<?xml version="1.0" encoding="UTF-8" standalone="no"?>
<svg
   version="1.1"
   style="display:block"
   viewBox="0 204 1041.5472 725.99359"
   width="1041.5472"
   height="725.99359"
   preserveAspectRatio="xMidYMid meet"
   id="svg413"
   xmlns="http://www.w3.org/2000/svg"
   xmlns:svg="http://www.w3.org/2000/svg">
  <defs
     id="defs18">
    <linearGradient
       id="Gradient4"
       gradientUnits="userSpaceOnUse"
       x1="448.418"
       y1="700.43799"
       x2="469.578"
       y2="684.95502">
      <stop
         class="stop0"
         offset="0"
         stop-opacity="1"
         stop-color="rgb(13,133,128)"
         id="stop7" />
      <stop
         class="stop1"
         offset="1"
         stop-opacity="1"
         stop-color="rgb(21,163,152)"
         id="stop8" />
    </linearGradient>
    <linearGradient
       id="Gradient5"
       gradientUnits="userSpaceOnUse"
       x1="934.69397"
       y1="549.42401"
       x2="983.78003"
       y2="441.341">
      <stop
         class="stop0"
         offset="0"
         stop-opacity="1"
         stop-color="rgb(151,150,150)"
         id="stop9" />
      <stop
         class="stop1"
         offset="1"
         stop-opacity="1"
         stop-color="rgb(214,214,213)"
         id="stop10" />
    </linearGradient>
    <linearGradient
       id="Gradient6"
       gradientUnits="userSpaceOnUse"
       x1="1389.86"
       y1="935.40601"
       x2="1355.96"
       y2="806.53302">
      <stop
         class="stop0"
         offset="0"
         stop-opacity="1"
         stop-color="rgb(159,158,158)"
         id="stop11" />
      <stop
         class="stop1"
         offset="1"
         stop-opacity="1"
         stop-color="rgb(211,210,210)"
         id="stop12" />
    </linearGradient>
    <linearGradient
       id="Gradient7"
       gradientUnits="userSpaceOnUse"
       x1="564.93701"
       y1="862.30798"
       x2="549.07098"
       y2="863.784">
      <stop
         class="stop0"
         offset="0"
         stop-opacity="1"
         stop-color="rgb(124,124,125)"
         id="stop13" />
      <stop
         class="stop1"
         offset="1"
         stop-opacity="1"
         stop-color="rgb(149,147,148)"
         id="stop14" />
    </linearGradient>
    <linearGradient
       id="Gradient8"
       gradientUnits="userSpaceOnUse"
       x1="1182.67"
       y1="814.74402"
       x2="1173.65"
       y2="772.04901">
      <stop
         class="stop0"
         offset="0"
         stop-opacity="1"
         stop-color="rgb(106,106,106)"
         id="stop15" />
      <stop
         class="stop1"
         offset="1"
         stop-opacity="1"
         stop-color="rgb(142,140,140)"
         id="stop16" />
    </linearGradient>
    <linearGradient
       id="Gradient9"
       gradientUnits="userSpaceOnUse"
       x1="1280.51"
       y1="926.37402"
       x2="1276.05"
       y2="824.25598">
      <stop
         class="stop0"
         offset="0"
         stop-opacity="1"
         stop-color="rgb(165,164,164)"
         id="stop17" />
      <stop
         class="stop1"
         offset="1"
         stop-opacity="1"
         stop-color="rgb(210,209,209)"
         id="stop18" />
    </linearGradient>
  </defs>
  <g
     id="g416"
     transform="translate(-432.44496,-41.230475)">
    <path
       fill="#000000"
       d="m 604.793,245.313 c 9.732,-0.59 18.783,1.978 26.597,7.884 8.581,6.587 14.151,16.349 15.456,27.087 1.626,12.566 -1.944,21.55 -9.314,31.177 6.153,17.694 13.635,35.713 20.632,53.164 l 1.698,-0.758 c 17.413,-7.569 39.588,-13.966 58.619,-15.109 5.812,-0.349 18.227,1.203 23.139,0.02 9.632,-2.319 20.489,-6.472 30.139,-9.398 26.717,-8.102 60.884,-12.611 87.439,-1.665 34.123,14.065 47.547,49.311 60.671,80.834 14.59,-2.861 28.282,-3.178 43.144,1.044 42.857,12.175 60.817,82.209 50.557,120.387 -5.25,19.568 -20.374,32.214 -37.834,41.404 7.362,36.063 2.335,51.653 -22.177,78.048 3.61,-0.897 7.241,-1.706 10.891,-2.426 70.9,-14.187 96.39,24.252 108.95,87.592 0.97,-0.8 1.84,-1.549 2.89,-2.258 32.7,-22.093 68.51,-39.405 104.23,-55.964 11.33,-5.25 24.38,-8.496 35.01,-13.407 12.75,-5.891 21.4,-13.603 36.01,-17.895 8.92,-2.651 18.34,-3.148 27.49,-1.451 9.65,1.787 18.68,5.969 26.29,12.161 21.13,16.995 61.77,83.373 78.31,108.372 17.54,-11.195 34.95,-14.146 55.91,-11.194 9.39,1.322 20.27,8.529 25,17.107 17.31,31.374 6.81,84.071 0.19,118.064 -3.89,19.951 -16.15,57.528 -34.22,68.384 -16.31,9.799 -40.08,2.01 -56.97,-2.802 -36.76,-7.215 -79.61,-7.458 -117.16,-11.145 -8.14,-1.623 -26.64,-0.695 -33.83,-3.497 -21.15,-8.246 -38.71,-5.678 -61.23,-6.275 -28.45,-0.784 -56.89,-2.173 -85.28,-4.168 -30.28,-2.213 -60.64,-9.708 -90.298,-11.696 -23.907,-1.602 -45.696,20.768 -73.838,14.288 -44.887,-10.334 -88.748,-30.508 -130.484,-48.742 -6.043,11.76 -12.884,21.238 -24.773,27.838 -22.008,12.217 -164.054,35.777 -194.322,37.579 -12.696,0.756 -25.461,0.185 -37.701,-3.517 -13.813,-4.177 -25.767,-12.092 -32.443,-25.29 -5.09,-10.063 -7.013,-21.76 -7.83,-32.904 -1.316,-17.943 1.063,-35.788 2.068,-53.679 1.567,-27.901 -0.026,-59.032 9.246,-85.763 -45.869,-17.548 -70.446,-83.659 -61.343,-129.773 3.927,-19.898 13.793,-31.099 30.794,-41.771 -9.726,-28.644 -16.788,-67.528 -5.457,-96.723 11.492,-29.609 41.761,-45.837 69.312,-57.922 0.943,-2.936 1.853,-6.015 3.214,-8.792 9.038,-18.429 68.832,-37.386 89.643,-45.153 -5.479,-14.202 -12.475,-36.998 -16.765,-51.499 -34.09,-10.069 -51.131,-40.973 -21.988,-70.522 4.896,-4.964 14.811,-8.078 21.718,-9.276 z m -6.351,561.279 c 0.492,13.013 0.134,21.147 -0.712,34.172 l -0.55,3.263 0.918,1.064 c 37.608,-12.724 82.197,-27.949 121.77,-32.772 3.182,-8.051 21.844,-29.83 21.657,-32.249 -46.065,22.996 -88.579,44.815 -140.459,27.415 z m 582.738,15.831 c 5.01,1.307 11.36,3.147 16.3,4.201 16.65,-5.73 29,-6.754 46.45,-8.679 -2.4,-5.774 -9.24,-23.704 -13.01,-27.119 -16.16,9.664 -34.39,20.628 -49.74,31.597 z"
       id="path18" />
    <path
       fill="#c8c7c7"
       d="m 747.482,353.726 c 33.18,-13.631 74.264,-24.46 109.399,-10.775 28.403,11.063 43.791,42.521 54.331,69.37 13.193,33.606 25.797,69.685 37.388,103.983 7.006,20.731 18.487,51.011 22.306,71.918 13.832,53.748 -28.907,75.81 -68.789,98.122 -51.836,29.001 -104.538,59.589 -157.156,86.99 -37.352,19.452 -81.009,39.621 -123.867,33.928 -10.314,-1.733 -14.049,-2.87 -23.182,-7.83 -0.901,-13.602 -1.332,-24.186 -3.675,-37.693 -6.409,-16.903 -9.11,-22.156 -23.691,-33.368 l -12.042,-5.107 c -7.329,-43.578 -18.061,-90.332 -49.33,-124.359 -10.455,-11.377 -23.152,-14.952 -38.241,-14.712 -9.827,-17.452 -13.644,-61.012 -9.629,-80.967 10.503,-40.212 38.028,-53.425 73.098,-69.488 19.28,-5.315 35.539,-0.25 51.657,10.522 4.988,4.155 7.236,6.031 11.595,10.91 12.655,17.759 16.281,32.125 37.663,42.119 43.331,-6.968 113.219,-39.709 150.206,-62.943 9.243,-35.735 -11.148,-60.208 -38.041,-80.62 z"
       id="path19" />
    <path
       fill="#8c8b8b"
       d="m 461.304,503.226 1.308,1.583 c 5.009,-2.014 14.847,-7.868 19.891,-5.142 14.507,8.059 23.028,22.921 28.592,38.057 21.909,59.594 40.301,116.692 68.569,173.839 25.006,50.552 46.712,93.402 112.04,67.098 26.773,-10.779 52.523,-23.901 78.387,-37.1 42.204,-21.187 83.629,-43.892 124.193,-68.072 29.772,-17.906 64.312,-33.593 73.749,-69.031 1.525,-5.729 1.912,-10.47 2.873,-16.236 13.832,53.748 -28.907,75.81 -68.789,98.122 -51.836,29.001 -104.538,59.589 -157.156,86.99 -37.352,19.452 -81.009,39.621 -123.867,33.928 -10.314,-1.733 -14.049,-2.87 -23.182,-7.83 -0.901,-13.602 -1.332,-24.186 -3.675,-37.693 -6.409,-16.903 -9.11,-22.156 -23.691,-33.368 l -12.042,-5.107 c -7.329,-43.578 -18.061,-90.332 -49.33,-124.359 -10.455,-11.377 -23.152,-14.952 -38.241,-14.712 -9.827,-17.452 -13.644,-61.012 -9.629,-80.967 z"
       id="path20" />
    <path
       fill="#777676"
       d="m 470.933,584.193 c 16.665,-14.176 37.003,5.054 46.834,18.411 27.828,37.809 38.102,82.066 52.779,125.767 l -12.042,-5.107 c -7.329,-43.578 -18.061,-90.332 -49.33,-124.359 -10.455,-11.377 -23.152,-14.952 -38.241,-14.712 z"
       id="path21" />
    <path
       fill="#777676"
       d="m 594.237,761.739 c 13.812,14.159 5.474,26.772 26.857,45.523 -10.314,-1.733 -14.049,-2.87 -23.182,-7.83 -0.901,-13.602 -1.332,-24.186 -3.675,-37.693 z"
       id="path22" />
    <path
       fill="#8c8b8b"
       d="m 635.317,497.289 c 43.331,-6.968 113.219,-39.709 150.206,-62.943 -6.056,15.883 -21.19,27.151 -38.377,33.185 -35.895,12.601 -84.122,45.112 -122.489,37.634 -11.348,-2.211 -26.693,-35.7 -33.689,-45.085 l 6.686,-4.91 c 12.655,17.759 16.281,32.125 37.663,42.119 z"
       id="path23" />
    <path
       fill="#8c8b8b"
       d="m 534.402,433.738 c 19.28,-5.315 35.539,-0.25 51.657,10.522 -1.24,2.111 -2.446,4.601 -4.106,6.26 -16.682,-8.147 -36.081,-8.578 -47.551,-16.782 z"
       id="path24" />
    <path
       fill="#b8b7b7"
       d="m 586.059,444.26 c 4.988,4.155 7.236,6.031 11.595,10.91 l -6.686,4.91 c -2.768,-3.107 -6.128,-6.487 -9.015,-9.56 1.66,-1.659 2.866,-4.149 4.106,-6.26 z"
       id="path25" />
    <path
       fill="#000000"
       d="m 849.187,433.203 c 1.611,-0.145 3.204,-0.289 4.821,-0.317 7.967,-0.138 15.506,1.834 21.253,7.626 14.424,14.538 57.321,142.481 56.912,163.067 -0.174,8.8 -4.434,14.96 -10.668,20.943 -16.902,16.223 -50.932,31.381 -72.072,42.838 -33.98,18.703 -68.364,36.663 -103.127,53.866 -20.955,10.322 -56.933,30.179 -79.625,29.733 -26.627,-5.665 -33.165,-33.051 -42.694,-55.742 -13.186,-33.306 -30.158,-65.925 -41.424,-99.873 -13.707,-41.306 36.429,-57.413 64.415,-70.277 l 59.426,-27.593 c 26.124,-12.297 52.178,-24.74 78.161,-37.33 18.118,-8.669 45.77,-23.152 64.622,-26.941 z"
       id="path26" />
    <path
       fill="#2b2a2a"
       d="m 591.857,603.734 c -8.971,-22.087 -10.452,-37.881 12.925,-52.074 31.041,-18.148 65.22,-31.118 97.563,-46.984 32.226,-15.313 63.301,-31.755 96.021,-46.172 20.954,-9.232 64.401,-38.845 79.153,-6.698 20.542,44.767 34.976,94.188 49.126,141.319 4.268,14.218 -7.573,29.013 -20.264,34.766 -6.759,5.399 -34.69,20.231 -44.352,25.598 -42.281,23.561 -85.148,46.053 -128.562,67.455 -18.323,9.004 -60.68,33.754 -78.553,19.118 -9.821,-8.044 -21.259,-38.004 -26.604,-50.466 z"
       id="path27" />
    <path
       fill="#1b1b1b"
       d="m 591.857,603.734 c -8.971,-22.087 -10.452,-37.881 12.925,-52.074 31.041,-18.148 65.22,-31.118 97.563,-46.984 32.226,-15.313 63.301,-31.755 96.021,-46.172 20.954,-9.232 64.401,-38.845 79.153,-6.698 20.542,44.767 34.976,94.188 49.126,141.319 4.268,14.218 -7.573,29.013 -20.264,34.766 3.513,-6.894 8.089,-12.204 9.124,-20.133 3.395,-26.008 -29.023,-123.769 -46.779,-146.014 -4.569,-5.723 -9.95,-8.756 -17.265,-9.532 -8.214,-0.872 -17.02,1.61 -24.709,4.381 -13.379,4.82 -26.354,11.529 -39.268,17.482 -30.862,14.371 -61.49,29.24 -91.872,44.601 -29.205,14.533 -68.077,32.022 -94.452,51.001 -9.2,6.621 -9.024,23.576 -9.303,34.057 z"
       id="path28" />
    <path
       fill="#000000"
       d="m 663.853,592.422 c 0.315,-18.017 8.173,-34.546 28.648,-33.544 19.117,0.936 29.347,23.373 34.962,38.91 7.436,20.574 14.861,42.342 0.503,61.642 -30.588,48.344 -68.281,-39.741 -64.113,-67.008 z"
       id="path29" />
    <path
       fill="#1b1b1b"
       d="m 663.853,592.422 c 14.061,24.667 16.69,87.242 64.113,67.008 -30.588,48.344 -68.281,-39.741 -64.113,-67.008 z"
       id="path30" />
    <path
       fill="#26dacb"
       d="m 676.534,571.344 c 10.736,-12.9 26.556,-7.7 34.278,5.442 8.949,13.386 20.486,46.921 19.998,63.116 -2.605,13.871 -7.364,16.303 -20.447,19.42 -17.214,-7.673 -24.019,-19.125 -30.724,-36.205 -6.157,-15.682 -15.117,-35.42 -4.076,-50.997 z"
       id="path31" />
    <path
       fill="#14aba1"
       d="m 710.363,659.322 c -17.214,-7.673 -24.019,-19.125 -30.724,-36.205 -6.157,-15.682 -15.117,-35.42 -4.076,-50.997 1.871,6.892 1.051,13.994 2.581,20.097 4.406,17.588 13.786,62.279 39.636,55.724 3.992,-1.005 9.838,-5.565 13.03,-8.039 -2.605,13.871 -7.364,16.303 -20.447,19.42 z"
       id="path32" />
    <path
       fill="#59e0d2"
       d="m 676.534,571.344 c 10.736,-12.9 26.556,-7.7 34.278,5.442 l -2.795,1.198 c -6.259,-1.735 -12.301,-3.022 -18.759,-3.841 -5.061,-0.641 -9.204,0.904 -12.724,-2.799 z"
       id="path33" />
    <path
       fill="#000000"
       d="m 790.559,526.617 c 16.045,-49.114 48.664,-25.346 59.797,10.201 8.202,26.19 16.386,38.91 1.556,64.856 -11.188,20.026 -30.259,11.883 -40.282,-3.748 -12.002,-18.718 -24.981,-48.796 -21.071,-71.309 z"
       id="path34" />
    <path
       fill="#1b1b1b"
       d="m 851.912,601.674 c -11.188,20.026 -30.259,11.883 -40.282,-3.748 -12.002,-18.718 -24.981,-48.796 -21.071,-71.309 3.731,14.813 6.127,25.994 12.047,40.366 9.616,23.348 19.248,44.989 49.306,34.691 z"
       id="path35" />
    <path
       fill="#26dacb"
       d="m 801.316,513.677 c 11.997,-14.546 26.105,-10.68 34.539,4.943 7.443,11.777 19.678,50.032 18.699,63.976 -1.785,11.487 -6.746,14.423 -17.038,17.718 -22.563,-7.249 -26.625,-24.85 -34.146,-44.867 -4.475,-11.913 -9.473,-29.452 -2.382,-41.036 z"
       id="path36" />
    <path
       fill="#14aba1"
       d="m 837.516,600.314 c -22.563,-7.249 -26.625,-24.85 -34.146,-44.867 -4.475,-11.913 -9.473,-29.452 -2.382,-41.036 0.721,4.593 1.123,11.767 1.927,15.616 3.024,14.475 12.403,47.779 24.369,56.782 4.01,3.055 9.156,4.201 14.083,3.135 5.043,-1.042 9.15,-4.244 13.187,-7.348 -1.785,11.487 -6.746,14.423 -17.038,17.718 z"
       id="path37" />
    <path
       fill="#59e0d2"
       d="m 801.316,513.677 c 11.997,-14.546 26.105,-10.68 34.539,4.943 -4.591,1.163 -11.094,-3.05 -15.491,-5.293 -6.221,0.609 -14.309,3.549 -19.048,0.35 z"
       id="path38" />
    <path
       fill="#c8c7c7"
       d="m 868.057,710.077 c 35.792,-19.747 36.962,-28.29 78.421,-28.221 9.287,0.503 19.387,1.269 28.432,3.587 42.02,11.329 55.92,30.589 71.9,69.682 l 4.09,10.542 c -42.53,18.292 -69.43,57.612 -79.083,102.024 -1.874,20.603 -0.97,32.267 4.936,51.683 -45.367,27.768 -76.19,18.15 -122.206,-1.32 -23.83,-10.082 -47.225,-18.718 -70.342,-30.964 7.368,-18.78 5.325,-24.984 0.031,-44.054 -7.243,-10.541 -9.76,-12.612 -20.361,-20.352 -14.46,-6.305 -27.05,-8.097 -38.006,-12.846 2.649,-4.09 31.25,-43.622 35.933,-40.492 12.036,8.043 14.927,7.073 28.862,7.731 36.04,-3.203 61.484,-18.393 77.085,-51.228 0.93,-6.415 1.465,-9.27 0.308,-15.772 z"
       id="path39" />
    <path
       fill="#9d9c9c"
       d="m 868.057,710.077 c 35.792,-19.747 36.962,-28.29 78.421,-28.221 9.287,0.503 19.387,1.269 28.432,3.587 -10.3,3.477 -47.267,15.267 -48.595,25.944 l 0.737,1.082 c -18.056,1.547 -26.131,11.325 -39.506,22.996 -2.182,-3.003 -1.74,-3.516 -4.584,-4.404 -7.561,4.263 -18.634,14.421 -25.435,20.693 -25.023,23.075 -60.58,35.229 -86.331,55.95 35.732,27.14 115.226,81.764 164.085,79.916 7.834,-0.296 16.549,-10.595 20.823,-17.132 15.405,-23.564 23.367,-50.371 42.454,-72.061 9.382,-10.662 18.002,-18.983 29.032,-28 2.96,-2.428 17.78,-13.523 19.22,-15.302 l 4.09,10.542 c -42.53,18.292 -69.43,57.612 -79.083,102.024 -1.874,20.603 -0.97,32.267 4.936,51.683 -45.367,27.768 -76.19,18.15 -122.206,-1.32 -23.83,-10.082 -47.225,-18.718 -70.342,-30.964 7.368,-18.78 5.325,-24.984 0.031,-44.054 -7.243,-10.541 -9.76,-12.612 -20.361,-20.352 -14.46,-6.305 -27.05,-8.097 -38.006,-12.846 2.649,-4.09 31.25,-43.622 35.933,-40.492 12.036,8.043 14.927,7.073 28.862,7.731 36.04,-3.203 61.484,-18.393 77.085,-51.228 0.93,-6.415 1.465,-9.27 0.308,-15.772 z"
       id="path40" />
    <path
       fill="#777676"
       d="m 784.236,843.036 0.947,0.82 c 10.994,9.706 7.181,17.157 16.787,25.852 8.754,7.924 21.734,15.178 32,21.029 27.423,15.629 61.933,34.239 94.456,32.317 13.476,-0.796 25.228,-5.644 37.141,-11.848 -2.33,-13.696 -1.352,-31.613 6.25,-43.515 -1.874,20.603 -0.97,32.267 4.936,51.683 -45.367,27.768 -76.19,18.15 -122.206,-1.32 -23.83,-10.082 -47.225,-18.718 -70.342,-30.964 7.368,-18.78 5.325,-24.984 0.031,-44.054 z"
       id="path41" />
    <path
       fill="#777676"
       d="m 725.869,809.838 c 2.649,-4.09 31.25,-43.622 35.933,-40.492 12.036,8.043 14.927,7.073 28.862,7.731 -9.421,3.616 -42.579,16.901 -36.19,32.238 2.216,5.319 7.828,5.915 9.401,13.369 -14.46,-6.305 -27.05,-8.097 -38.006,-12.846 z"
       id="path42" />
    <path
       fill="#777676"
       d="m 868.057,710.077 c 35.792,-19.747 36.962,-28.29 78.421,-28.221 -2.537,2.031 -77.85,43.778 -78.729,43.993 0.93,-6.415 1.465,-9.27 0.308,-15.772 z"
       id="path43" />
    <path
       fill="#000000"
       d="m 887.546,735.465 c 13.375,-11.671 21.45,-21.449 39.506,-22.996 17.935,4.116 61.931,24.882 53.112,48.889 -9.085,24.729 -48.922,70.251 -79.942,59.498 -62.417,-21.637 -58.694,-45.169 -12.676,-85.391 z"
       id="path44" />
    <path
       fill="#26dacb"
       d="m 920.733,719.228 c 20.58,-1.117 44.195,11.809 54.386,29.697 1.581,13.925 -3.765,23.362 -12.189,33.746 -9.406,11.597 -34.292,34.151 -49.636,35.36 -16.9,1.332 -56.65,-17.943 -55.075,-38.668 11.238,-18.228 41.907,-53.44 62.514,-60.135 z"
       id="path45" />
    <path
       fill="#14aba1"
       d="m 975.119,748.925 c 1.581,13.925 -3.765,23.362 -12.189,33.746 -9.406,11.597 -34.292,34.151 -49.636,35.36 -16.9,1.332 -56.65,-17.943 -55.075,-38.668 5.109,2.606 13.832,11.82 19.114,14.947 10.558,6.249 27.361,14.465 39.658,11.216 20.408,-5.392 39.938,-29.755 50.137,-46.512 z"
       id="path46" />
    <path
       fill="#59e0d2"
       d="m 920.733,719.228 c 20.58,-1.117 44.195,11.809 54.386,29.697 l -7.991,10.089 c -3.897,-5.057 -4.269,-13.754 -9.626,-18.598 -9.847,-8.903 -22.484,-13.633 -34.713,-18.23 -0.685,-0.986 -1.371,-1.972 -2.056,-2.958 z"
       id="path47" />
    <path
       fill="#26dacb"
       d="m 660.869,368.783 c 30.197,-11.958 60.679,-24.995 90.632,-5.282 10.261,8.318 20.764,19.291 25.703,31.763 l 1.498,5.378 c 7.514,18.297 8.025,31.205 -11.277,41.45 -29.921,15.881 -99.304,49.222 -131.502,51.063 -26.341,-15.387 -28.457,-40.001 -53.839,-55.562 -8.672,-5.402 -18.548,-8.57 -28.744,-9.221 -4.469,-0.26 -15.047,0.829 -16.621,-3.388 1.213,-3.49 2.659,-4.692 5.092,-7.435 9.636,-8.286 27.801,-15.161 39.764,-20.236 7.065,-3.137 35.798,-15.884 41.61,-14.8 6.74,9.009 -2.261,9.241 11.907,15.816 25.328,1.155 31.825,-5.493 25.777,-29.546 z"
       id="path48" />
    <path
       fill="#26dacb"
       d="m 660.869,368.783 c 30.197,-11.958 60.679,-24.995 90.632,-5.282 -6.127,14.095 -24.817,21.597 -38.484,27.039 -35.122,13.986 -69.369,31.275 -105.517,42.315 -4.086,1.239 -8.409,1.449 -12.354,2.515 -19.742,-11.676 -30.617,-14.292 -53.335,-17.821 9.636,-8.286 27.801,-15.161 39.764,-20.236 7.065,-3.137 35.798,-15.884 41.61,-14.8 6.74,9.009 -2.261,9.241 11.907,15.816 25.328,1.155 31.825,-5.493 25.777,-29.546 z"
       id="path49" />
    <path
       fill="#0f8f88"
       d="m 581.575,397.313 c 7.065,-3.137 35.798,-15.884 41.61,-14.8 6.74,9.009 -2.261,9.241 11.907,15.816 -7.653,1.398 -47.123,2.256 -53.517,-1.016 z"
       id="path50" />
    <path
       fill="#14aba1"
       d="m 778.702,400.642 c 7.514,18.297 8.025,31.205 -11.277,41.45 -29.921,15.881 -99.304,49.222 -131.502,51.063 -26.341,-15.387 -28.457,-40.001 -53.839,-55.562 -8.672,-5.402 -18.548,-8.57 -28.744,-9.221 -4.469,-0.26 -15.047,0.829 -16.621,-3.388 1.213,-3.49 2.659,-4.692 5.092,-7.435 22.718,3.529 33.593,6.145 53.335,17.821 9.717,8.18 12.174,10.497 18.602,21.348 3.836,6.375 14.562,24.881 22.186,24.011 32.04,-3.659 75.008,-22.926 104.74,-36.195 11.266,-5.719 22.564,-11.537 32.461,-19.439 9.188,-7.337 4.399,-14.992 5.567,-24.453 z"
       id="path51" />
    <path
       fill="#59e0d2"
       d="m 751.501,363.501 c 10.261,8.318 20.764,19.291 25.703,31.763 -0.513,3.164 -0.432,5.193 -2.661,7.41 -6.494,-3.431 -9.295,-19.88 -26.954,-12.732 -41.254,16.701 -86.205,29.438 -123.829,53.629 -4.735,3.045 -7.465,8.433 -10.012,13.147 -6.428,-10.851 -8.885,-13.168 -18.602,-21.348 3.945,-1.066 8.268,-1.276 12.354,-2.515 36.148,-11.04 70.395,-28.329 105.517,-42.315 13.667,-5.442 32.357,-12.944 38.484,-27.039 z"
       id="path52" />
    <path
       fill="#c8c7c7"
       d="m 610.144,847.619 c 35.319,-14.234 73.089,-24.251 110.828,-29.38 29.592,-4.021 44.768,14.11 54.055,39.533 3.698,13.204 4.395,21.347 -0.567,34.754 -1.665,3.341 -3.269,6.934 -5.498,9.884 -15.374,17.993 -31.951,21.13 -54.327,25.457 -28.285,5.468 -56.966,11.65 -85.62,14.619 3.14,-5.018 5.124,-8.043 7.502,-13.561 4.049,-10.195 4.748,-15.956 4.345,-26.668 -1.448,-8.141 -3.793,-15.757 -7.301,-23.263 -4.574,-9.785 -15.042,-21.677 -25.506,-25.324 -2.578,-0.899 -2.33,-0.469 -4.969,-2.219 2.392,-2.486 3.638,-2.472 7.058,-3.832 z"
       id="path53" />
    <path
       fill="#9d9c9c"
       d="m 775.027,857.772 c 3.698,13.204 4.395,21.347 -0.567,34.754 -1.665,3.341 -3.269,6.934 -5.498,9.884 -15.374,17.993 -31.951,21.13 -54.327,25.457 -28.285,5.468 -56.966,11.65 -85.62,14.619 3.14,-5.018 5.124,-8.043 7.502,-13.561 4.049,-10.195 4.748,-15.956 4.345,-26.668 0.974,-6.644 0.469,-10.172 -0.111,-16.852 2.758,6.461 3.444,13.038 4.605,19.999 31.349,-4.359 93.226,-20.119 123.859,-31.805 1.913,-0.729 2.095,-3.504 2.862,-6.059 -0.072,-3.793 1.357,-6.452 2.95,-9.768 z"
       id="path54" />
    <path
       fill="#777676"
       d="m 636.517,928.925 c 32.973,-1.085 100.233,-18.686 132.445,-26.515 -15.374,17.993 -31.951,21.13 -54.327,25.457 -28.285,5.468 -56.966,11.65 -85.62,14.619 3.14,-5.018 5.124,-8.043 7.502,-13.561 z"
       id="path55" />
    <path
       fill="#9d9c9c"
       d="m 775.027,857.772 c 3.698,13.204 4.395,21.347 -0.567,34.754 -3.349,-6.045 -2.228,-17.335 -2.383,-24.986 -0.072,-3.793 1.357,-6.452 2.95,-9.768 z"
       id="path56" />
    <path
       fill="#9d9c9c"
       d="m 640.862,902.257 c -1.448,-8.141 -3.793,-15.757 -7.301,-23.263 -4.574,-9.785 -15.042,-21.677 -25.506,-25.324 -2.578,-0.899 -2.33,-0.469 -4.969,-2.219 2.392,-2.486 3.638,-2.472 7.058,-3.832 13.31,9.252 27.738,20.6 30.607,37.786 0.58,6.68 1.085,10.208 0.111,16.852 z"
       id="path57" />
    <path
       fill="#c8c7c7"
       d="m 1251.49,725.302 c 24.7,-21.394 49.21,-31.417 80.75,-17.063 9.12,13.03 41.07,57.96 45.07,70.285 -0.66,2.807 -0.32,1.877 -1.8,4.351 -3.97,1.864 -12.58,1.385 -17.49,1.722 -20.09,1.377 -37.01,9.682 -52.12,22.655 -3.52,3.628 -6.18,7.425 -9.2,11.46 -15.19,1.334 -30.42,2.172 -45.67,2.515 -15.26,-24.903 -20.11,-44.745 -16.53,-73.049 5.46,-10.073 8.75,-15.102 16.99,-22.876 z"
       id="path58" />
    <path
       fill="#9d9c9c"
       d="m 1251.49,725.302 c 16.25,20.281 35.12,56.855 48.95,80.592 l -2.8,3.282 8.26,-1.924 c -3.52,3.628 -6.18,7.425 -9.2,11.46 -15.19,1.334 -30.42,2.172 -45.67,2.515 -15.26,-24.903 -20.11,-44.745 -16.53,-73.049 5.46,-10.073 8.75,-15.102 16.99,-22.876 z"
       id="path59" />
    <path
       fill="#777676"
       d="m 1251.03,821.227 c -15.26,-24.903 -20.11,-44.745 -16.53,-73.049 13.13,19.643 19.85,54.762 39.69,67.609 6.7,-1.61 17.55,-3.891 23.45,-6.611 l 8.26,-1.924 c -3.52,3.628 -6.18,7.425 -9.2,11.46 -15.19,1.334 -30.42,2.172 -45.67,2.515 z"
       id="path60" />
    <path
       fill="#8c8b8b"
       d="m 1300.44,805.894 c 4.78,-6.086 7.91,-8.928 14.38,-13.009 18.11,-11.22 39.93,-14.819 60.69,-10.01 -3.97,1.864 -12.58,1.385 -17.49,1.722 -20.09,1.377 -37.01,9.682 -52.12,22.655 l -8.26,1.924 z"
       id="path61" />
    <path
       fill="url(#Gradient9)"
       d="m 1246.22,824.903 c 7.44,-1.364 22.87,-1.533 31.28,-1.827 23.08,-0.852 46.19,-1.186 69.29,-1 -6.21,5.702 -8.86,8.48 -14.24,14.971 -18.43,26.881 -17.32,44.547 -14.49,75.834 4.16,16.882 10.11,27.305 21.63,40.212 -31.05,-1.703 -100.69,-4.334 -127.38,-13.098 18.94,-7.989 23.57,-11.617 31.92,-30.314 3.12,-12.191 4.12,-29.359 1.5,-41.687 -3.67,-17.251 -10.54,-24.438 -24.31,-33.497 l -12.55,-5.584 c 12.07,-1.929 24.25,-4.066 36.49,-3.803 z"
       id="path62"
       style="fill:url(#Gradient9)" />
    <path
       fill="#777676"
       d="m 1212.31,939.995 c 18.94,-7.989 23.57,-11.617 31.92,-30.314 0.54,4.653 0.83,7.733 0.89,12.407 21.56,3.33 49.65,6.436 71.38,4.578 0.52,-4.512 1.16,-9.29 1.56,-13.785 4.16,16.882 10.11,27.305 21.63,40.212 -31.05,-1.703 -100.69,-4.334 -127.38,-13.098 z"
       id="path63" />
    <path
       fill="#c8c7c7"
       d="m 1246.22,824.903 c 7.44,-1.364 22.87,-1.533 31.28,-1.827 23.08,-0.852 46.19,-1.186 69.29,-1 -6.21,5.702 -8.86,8.48 -14.24,14.971 -0.57,-0.313 -1.76,-0.995 -2.61,-1.302 -26.25,-9.524 -25.04,-11.224 -49.29,-1.261 -17.3,-6.497 -15.71,-8.214 -34.43,-9.581 z"
       id="path64" />
    <path
       fill="#c8c7c7"
       d="m 1208.87,828.913 c 12.07,-1.929 24.25,-4.066 36.49,-3.803 -4.73,3.895 -8.74,0.729 -14.77,3.359 -3.29,1.433 -6.33,3.87 -9.17,6.028 z"
       id="path65" />
    <path
       fill="#9d9c9c"
       d="m 1052.36,852.946 c 8.9,-14.662 18.69,-26.119 36.49,-29.967 28.84,-6.237 62.52,-1.547 90.95,4.036 -38.88,9.541 -51.7,35.786 -46.31,73.299 2.32,7.666 3.76,11.561 8.34,18.498 0.05,0.033 0.09,0.066 0.13,0.098 6.5,8.19 14.46,13.467 23.22,19.087 -14.55,-0.043 -29.85,-1.211 -44.49,-1.59 -22.71,-0.588 -49.91,-0.674 -64.69,-20.889 -12.91,-20.625 -13.41,-40.623 -3.64,-62.572 z"
       id="path66" />
    <path
       fill="#c8c7c7"
       d="m 1052.36,852.946 c 8.9,-14.662 18.69,-26.119 36.49,-29.967 28.84,-6.237 62.52,-1.547 90.95,4.036 -38.88,9.541 -51.7,35.786 -46.31,73.299 l -0.82,1.985 c -6.17,-3.515 -6.74,-16.967 -6.76,-23.275 -15.18,0.219 -55.83,-0.461 -68.43,-9.448 -4.63,-3.304 -4.5,-10.959 -5.12,-16.63 z"
       id="path67" />
    <path
       fill="#777676"
       d="m 1056,915.518 c 10.3,3.111 77.7,6.95 85.83,3.294 0.05,0.033 0.09,0.066 0.13,0.098 6.5,8.19 14.46,13.467 23.22,19.087 -14.55,-0.043 -29.85,-1.211 -44.49,-1.59 -22.71,-0.588 -49.91,-0.674 -64.69,-20.889 z"
       id="path68" />
    <path
       fill="#9d9c9c"
       d="m 1094.52,739.362 c 23.51,-19.483 85.89,-47.994 115.2,-57.503 -19.66,26.989 -22.89,42.273 -7.78,72.829 l 5.09,7.075 c 0.35,0.303 0.69,0.607 1.04,0.91 4.57,5.898 19.89,9.362 20.8,16.064 -4.63,11.494 -45.32,35.639 -56.93,41.384 -14.74,-2.34 -28.12,-3.292 -42.93,-4.29 0.16,-8.904 0.58,-19.042 0.41,-27.85 -1.34,-12.89 -3.24,-17.935 -9.9,-28.481 -7.7,-11.02 -13.49,-14.307 -25,-20.138 z"
       id="path69" />
    <path
       fill="#c8c7c7"
       d="m 1094.52,739.362 c 23.51,-19.483 85.89,-47.994 115.2,-57.503 -19.66,26.989 -22.89,42.273 -7.78,72.829 l -2.84,2.457 c -6.1,-1.715 -11.08,-19.039 -13.07,-24.593 -14.89,5.579 -54.78,25.942 -66.51,26.948 -7.7,-11.02 -13.49,-14.307 -25,-20.138 z"
       id="path70" />
    <path
       fill="url(#Gradient8)"
       d="m 1207.03,761.763 c 0.35,0.303 0.69,0.607 1.04,0.91 4.57,5.898 19.89,9.362 20.8,16.064 -4.63,11.494 -45.32,35.639 -56.93,41.384 -14.74,-2.34 -28.12,-3.292 -42.93,-4.29 0.16,-8.904 0.58,-19.042 0.41,-27.85 l 1.14,3.974 c 6.32,6.816 8.75,8.215 17.01,11.73 14.16,-5.47 52.29,-29.151 59.46,-41.922 z"
       id="path71"
       style="fill:url(#Gradient8)" />
    <path
       fill="#c8c7c7"
       d="m 515.388,812.723 c 14.789,-1.895 30.71,-1.374 44.774,4.085 l 2.194,0.723 c 11.315,6.01 16.433,9.549 24.446,20.243 3.651,13.945 2.721,36.832 -2.17,50.484 -0.978,2.05 -2.06,4.496 -3.139,6.45 -3.955,7.379 -15.069,24.458 -24.698,21.191 -1.608,-2.478 -1.392,-4.914 -1.585,-7.939 l -1.979,1.186 -0.922,3.37 c -0.653,2.394 -1.481,6.775 -3.854,7.852 -18.443,8.364 -47.18,3.223 -58.003,-14.401 -1.503,-22.486 -0.971,-45.838 2.149,-68.106 2.521,-17.989 5.827,-21.663 22.787,-25.138 z"
       id="path72" />
    <path
       fill="#8c8b8b"
       d="m 490.452,905.967 c -1.503,-22.486 -0.971,-45.838 2.149,-68.106 2.521,-17.989 5.827,-21.663 22.787,-25.138 -2.305,24.092 -7.092,46.745 -4.845,71.326 2.588,28.326 13.704,26.087 36.52,24.905 l 6.168,0.192 -0.922,3.37 c -0.653,2.394 -1.481,6.775 -3.854,7.852 -18.443,8.364 -47.18,3.223 -58.003,-14.401 z"
       id="path73" />
    <path
       fill="#c8c7c7"
       d="m 562.356,817.531 c 11.315,6.01 16.433,9.549 24.446,20.243 3.651,13.945 2.721,36.832 -2.17,50.484 -0.978,2.05 -2.06,4.496 -3.139,6.45 -3.955,7.379 -15.069,24.458 -24.698,21.191 -1.608,-2.478 -1.392,-4.914 -1.585,-7.939 l 2.429,-1.549 c -1.562,-3.951 3.88,-81.095 4.717,-88.88 z"
       id="path74" />
    <path
       fill="#edecec"
       d="m 584.632,888.258 c -10.424,-5.319 -4.363,-43.881 2.17,-50.484 3.651,13.945 2.721,36.832 -2.17,50.484 z"
       id="path75" />
    <path
       fill="#8c8b8b"
       d="m 557.639,906.411 c 9.38,-3.761 15.051,-6.884 23.854,-11.703 -3.955,7.379 -15.069,24.458 -24.698,21.191 -1.608,-2.478 -1.392,-4.914 -1.585,-7.939 z"
       id="path76" />
    <path
       fill="url(#Gradient7)"
       d="m 560.162,816.808 2.194,0.723 c -0.837,7.785 -6.279,84.929 -4.717,88.88 l -2.429,1.549 -1.979,1.186 -6.168,-0.192 2.149,-0.86 c 3.667,-3.342 10.124,-80.169 10.95,-91.286 z"
       id="path77"
       style="fill:url(#Gradient7)" />
    <path
       fill="#c8c7c7"
       d="m 1138.12,875.645 c 3.92,-20.732 19.77,-37.159 40.35,-41.817 20.58,-4.659 41.96,3.341 54.42,20.363 15.39,21.01 13.22,50.087 -5.11,68.581 -10.4,10.483 -24.69,16.154 -39.44,15.644 -14.76,-0.509 -28.63,-7.153 -38.27,-18.328 -10.55,-12.22 -14.95,-28.583 -11.95,-44.443 z"
       id="path78" />
    <path
       fill="#9d9c9c"
       d="m 1232.89,854.191 c 15.39,21.01 13.22,50.087 -5.11,68.581 -10.4,10.483 -24.69,16.154 -39.44,15.644 -14.76,-0.509 -28.63,-7.153 -38.27,-18.328 -10.55,-12.22 -14.95,-28.583 -11.95,-44.443 1.67,4.117 4.02,10.572 7.45,13.205 11.83,9.063 30.8,12.025 45.19,12.454 19.01,0.567 33.15,2.496 44.03,-14.583 0.98,-11.851 -0.28,-20.723 -1.9,-32.53 z"
       id="path79" />
    <path
       fill="#777676"
       d="m 1150.07,920.088 c 25.48,5.556 51.65,4.102 77.71,2.684 -10.4,10.483 -24.69,16.154 -39.44,15.644 -14.76,-0.509 -28.63,-7.153 -38.27,-18.328 z"
       id="path80" />
    <path
       fill="#c8c7c7"
       d="m 1001.45,813.084 c 8.09,-14.453 28.62,-31.904 43.76,-38.85 31.01,-14.222 55.98,-7.601 70.54,25.025 1.97,5.394 2.27,9.952 3,15.629 l -12.47,0.16 c -11.11,2.118 -33.87,5.217 -45.45,5.129 -11.37,3.422 -19.57,6.349 -29.06,13.848 -23.56,18.62 -32.229,53.418 -16.51,79.825 2.32,3.907 5.19,7.923 7.87,11.616 -7.45,-0.952 -15.51,-1.826 -22.84,-3.18 -5.372,-0.197 -11.323,-1.285 -16.694,-2.092 -7.542,-13.404 -9.801,-31.614 -6.665,-46.513 1.022,-19.471 13.049,-45.069 24.519,-60.597 z"
       id="path81" />
    <path
       fill="#9d9c9c"
       d="m 1007.58,864.511 c 9,-29.651 32.69,-49.121 59.5,-62.377 17.51,-8.655 29.51,-4.344 47.33,-1.552 l 1.34,-1.323 c 1.97,5.394 2.27,9.952 3,15.629 l -12.47,0.16 c -11.11,2.118 -33.87,5.217 -45.45,5.129 -11.37,3.422 -19.57,6.349 -29.06,13.848 -23.56,18.62 -32.229,53.418 -16.51,79.825 2.32,3.907 5.19,7.923 7.87,11.616 -7.45,-0.952 -15.51,-1.826 -22.84,-3.18 -5.372,-0.197 -11.323,-1.285 -16.694,-2.092 -7.542,-13.404 -9.801,-31.614 -6.665,-46.513 1.022,-19.471 13.049,-45.069 24.519,-60.597 -0.36,7.466 -5.479,15.995 -10.247,21.572 5.164,10.025 11.087,19.499 16.377,29.855 z"
       id="path82" />
    <path
       fill="#777676"
       d="m 983.596,920.194 c -7.542,-13.404 -9.801,-31.614 -6.665,-46.513 -0.091,22.174 6.514,34.374 23.359,48.605 -5.372,-0.197 -11.323,-1.285 -16.694,-2.092 z"
       id="path83" />
    <path
       fill="#777676"
       d="m 1060.83,820.177 c 9.44,-7.301 35.32,-11.65 45.45,-5.129 -11.11,2.118 -33.87,5.217 -45.45,5.129 z"
       id="path84" />
    <path
       fill="#1bc1b5"
       d="m 1451.19,782.443 c 37.96,15.329 5.17,143.483 -13.68,168.595 -19.58,26.406 -28.75,-12.132 -29.97,-26.792 -0.91,-10.969 -2.09,-39.973 1.2,-49.869 0.89,-14.264 3.68,-28.477 7.02,-42.339 4.5,-18.829 12.89,-46.817 35.43,-49.595 z"
       id="path85" />
    <path
       fill="#0f8f88"
       d="m 1408.74,874.377 c 0.13,6.443 1.24,12.585 2.39,18.917 3.41,18.651 -2.09,53.948 23.17,57.315 l 1.97,0.277 c 0.41,0.051 0.83,0.102 1.24,0.152 -19.58,26.406 -28.75,-12.132 -29.97,-26.792 -0.91,-10.969 -2.09,-39.973 1.2,-49.869 z"
       id="path86" />
    <path
       fill="#59e0d2"
       d="m 1415.76,832.038 c 4.5,-18.829 12.89,-46.817 35.43,-49.595 -5.22,5.05 -7.29,6.993 -11.58,12.644 -7.72,10.176 -14.48,29.543 -23.85,36.951 z"
       id="path87" />
    <path
       fill="#c8c7c7"
       d="m 454.566,614.343 c -4.59,-0.349 -5.269,0.434 -8.024,-1.937 0.763,-5.26 10.645,-16.163 14.833,-19.114 37.276,-26.267 66.922,38.847 76.267,63.984 4.761,12.688 7.72,22.63 11.815,35.355 l 3.311,14.487 c 0.993,6.666 1.171,9.065 1.155,15.803 -8.123,-0.255 -15.889,-0.681 -24.053,0.072 -5.339,0.493 -11.385,4.222 -14.421,2.886 -1.345,-4.895 -1.212,-6.272 -1.34,-11.465 l -0.612,-4.847 c -7.548,-30.762 -26.479,-82.922 -58.931,-95.224 z"
       id="path88" />
    <path
       fill="#edecec"
       d="m 454.566,614.343 c -4.59,-0.349 -5.269,0.434 -8.024,-1.937 0.763,-5.26 10.645,-16.163 14.833,-19.114 37.276,-26.267 66.922,38.847 76.267,63.984 -18.083,-1.056 -33.856,-76.06 -65.492,-62.069 -9.782,4.326 -12.848,10.505 -17.584,19.136 z"
       id="path89" />
    <path
       fill="#9d9c9c"
       d="m 549.457,692.631 3.311,14.487 c 0.993,6.666 1.171,9.065 1.155,15.803 -8.123,-0.255 -15.889,-0.681 -24.053,0.072 -5.339,0.493 -11.385,4.222 -14.421,2.886 -1.345,-4.895 -1.212,-6.272 -1.34,-11.465 l -0.612,-4.847 c 13.645,4.416 27.906,-7.131 35.96,-16.936 z"
       id="path90" />
    <path
       fill="#777676"
       d="m 552.768,707.118 c 0.993,6.666 1.171,9.065 1.155,15.803 -8.123,-0.255 -15.889,-0.681 -24.053,0.072 -5.339,0.493 -11.385,4.222 -14.421,2.886 -1.345,-4.895 -1.212,-6.272 -1.34,-11.465 l 1.581,6.432 c 6.054,1.828 33.526,-7.804 37.078,-13.728 z"
       id="path91" />
    <path
       fill="#14aba1"
       d="m 593.226,866.79 c -0.175,-11.584 4.056,-13.605 14.199,-9.186 l 4.377,2.399 c 11.264,9.119 14.229,13.815 19.928,26.99 1.712,5.584 3.434,10.486 2.563,16.453 0.015,10.042 0.407,14.393 -3.302,23.902 -12.364,26.768 -76.999,28.087 -102.174,21.858 -16.892,-4.179 -24.49,-13.189 -32.571,-27.841 14.354,6.67 18.972,7.094 34.466,7.041 16.525,-0.678 26.533,-4.823 41.003,-12.687 11.531,-10.343 13.434,-15.349 18.663,-29.569 0.709,-4.458 1.028,-16.433 2.848,-19.36 z"
       id="path92" />
    <path
       fill="#59e0d2"
       d="m 593.226,866.79 c -0.175,-11.584 4.056,-13.605 14.199,-9.186 l 4.377,2.399 c 11.264,9.119 14.229,13.815 19.928,26.99 1.712,5.584 3.434,10.486 2.563,16.453 -16.619,16.332 -37.265,12.494 -57.721,12.294 l -4.857,-0.021 c 11.531,-10.343 13.434,-15.349 18.663,-29.569 0.709,-4.458 1.028,-16.433 2.848,-19.36 z"
       id="path93" />
    <path
       fill="#26dacb"
       d="m 631.73,886.993 c 1.712,5.584 3.434,10.486 2.563,16.453 -16.619,16.332 -37.265,12.494 -57.721,12.294 8.046,-1.562 27.284,-24.251 38.893,-26.185 5.294,-0.882 11.115,-1.566 16.265,-2.562 z"
       id="path94" />
    <path
       fill="#26dacb"
       d="m 593.226,866.79 c -0.175,-11.584 4.056,-13.605 14.199,-9.186 l 4.377,2.399 c -5.774,9.094 -12.089,21.091 -21.424,26.147 0.709,-4.458 1.028,-16.433 2.848,-19.36 z"
       id="path95" />
    <path
       fill="#1bc1b5"
       d="m 593.226,866.79 c -0.175,-11.584 4.056,-13.605 14.199,-9.186 -3.379,1.895 -12.456,8.508 -14.199,9.186 z"
       id="path96" />
    <path
       fill="#0f8f88"
       d="m 496.246,921.365 c 14.354,6.67 18.972,7.094 34.466,7.041 -4.76,2.741 -9.204,-0.248 -13.043,2.112 1.289,2.195 2.313,2.901 5.313,3.615 27.055,6.44 55.209,4.663 82.329,-0.173 9.315,-1.661 17.309,-4.757 25.68,-6.612 -12.364,26.768 -76.999,28.087 -102.174,21.858 -16.892,-4.179 -24.49,-13.189 -32.571,-27.841 z"
       id="path97" />
    <path
       fill="url(#Gradient6)"
       d="m 1358.32,822.839 c 8.43,-35.705 33.22,-53.782 69,-55.059 -6.73,4.163 -8.61,5.721 -14.11,11.173 -10.2,12.1 -17.46,27.789 -21.89,42.92 -9.96,38.846 -9.91,59.655 -8.38,98.84 4.38,18.726 5.63,29.625 18.99,44.408 -27.86,-5.302 -34.28,-12.458 -44.76,-38.236 -10.3,-28.26 -6.42,-62.1 -1.88,-91.12 0.85,-4.592 1.86,-8.432 3.03,-12.926 z"
       id="path98"
       style="fill:url(#Gradient6)" />
    <path
       fill="#c8c7c7"
       d="m 1358.32,822.839 c 8.43,-35.705 33.22,-53.782 69,-55.059 -6.73,4.163 -8.61,5.721 -14.11,11.173 -10.2,12.1 -17.46,27.789 -21.89,42.92 -10.25,-7.228 -10.31,-11.614 -12.44,-23.408 -2.84,4.523 -4.49,7.888 -8.62,11.275 -2.76,4.433 -4.63,9.098 -6.75,13.875 -2.59,1.046 -1.34,0.625 -5.19,-0.776 z"
       id="path99" />
    <path
       fill="#edecec"
       d="m 1358.32,822.839 c 8.43,-35.705 33.22,-53.782 69,-55.059 -6.73,4.163 -8.61,5.721 -14.11,11.173 -19.5,3.315 -34.4,12.312 -42.95,30.787 -2.76,4.433 -4.63,9.098 -6.75,13.875 -2.59,1.046 -1.34,0.625 -5.19,-0.776 z"
       id="path100" />
    <path
       fill="#777676"
       d="m 1382.94,920.713 c 4.38,18.726 5.63,29.625 18.99,44.408 -27.86,-5.302 -34.28,-12.458 -44.76,-38.236 7.39,4.885 11.62,11.388 20.61,13.558 8.25,-2.161 5.6,-12.766 5.16,-19.73 z"
       id="path101" />
    <path
       fill="#c8c7c7"
       d="m 1355.29,835.765 c 0.85,-4.592 1.86,-8.432 3.03,-12.926 3.85,1.401 2.6,1.822 5.19,0.776 3.71,-0.701 2.18,-1.144 4.96,0.344 -0.42,6.725 -7.1,9.329 -12.44,11.515 z"
       id="path102" />
    <path
       fill="url(#Gradient5)"
       d="m 926.897,423.349 c 8.69,-1.079 20.612,-2.906 27.791,3.632 27.106,24.686 35.017,71.594 41.795,106.342 3.757,19.27 -0.124,31.329 -17.065,40.616 -1.629,0.732 -2.749,1.054 -4.443,1.612 -4.407,-2.787 -12.979,-34.684 -15.233,-41.421 -9.703,-28.939 -19.724,-57.77 -30.062,-86.489 -1.712,-2.812 -7.464,-18.074 -6.159,-21.852 0.602,-1.743 1.101,-1.331 3.376,-2.44 z"
       id="path103"
       style="fill:url(#Gradient5)" />
    <path
       fill="#777676"
       d="m 929.68,447.641 c 8.885,3.083 10.549,14.23 19.017,21.292 4.695,10.541 13.242,32.556 15.789,44.205 l 1.321,4.864 c 7.45,21.214 8.285,35.038 13.611,55.937 -1.629,0.732 -2.749,1.054 -4.443,1.612 -4.407,-2.787 -12.979,-34.684 -15.233,-41.421 -9.703,-28.939 -19.724,-57.77 -30.062,-86.489 z"
       id="path104" />
    <path
       fill="#9d9c9c"
       d="m 929.68,447.641 c -1.712,-2.812 -7.464,-18.074 -6.159,-21.852 0.602,-1.743 1.101,-1.331 3.376,-2.44 1.23,9.767 17.972,29.119 21.8,45.584 -8.468,-7.062 -10.132,-18.209 -19.017,-21.292 z"
       id="path105" />
    <path
       fill="#9d9c9c"
       d="m 964.486,513.138 c 9.616,-1.897 11.721,-2.686 20.711,-7.533 l 3.591,8.009 -0.746,1.573 1.015,-0.185 -0.586,0.71 c -3.17,-2.853 -3.883,-3.543 -6.45,-6.904 -5.204,1.583 -10.334,3.398 -15.376,5.438 l -0.838,3.756 z"
       id="path106" />
    <path
       fill="#c8c7c7"
       d="m 1219.64,679.952 c 26.42,-24.665 62.81,-31.894 89.49,-2.137 4.2,4.76 8.08,9.796 11.61,15.076 l 1.5,2.426 c -3.42,2.11 -15.9,0.318 -20.72,0.753 -24.23,2.188 -40.69,13.297 -57.29,29.634 -10.54,12.992 -13.64,22.313 -15.81,38.478 -15.82,-11.663 -23.62,-26.452 -23.54,-46.042 -1.42,-15.047 4.63,-27.54 14.76,-38.188 z"
       id="path107" />
    <path
       fill="#9d9c9c"
       d="m 1219.64,679.952 c 0.08,18.966 -0.84,34.005 19.26,42.183 l 0.09,0.524 5.24,3.045 c -10.54,12.992 -13.64,22.313 -15.81,38.478 -15.82,-11.663 -23.62,-26.452 -23.54,-46.042 -1.42,-15.047 4.63,-27.54 14.76,-38.188 z"
       id="path108" />
    <path
       fill="#777676"
       d="m 1204.88,718.14 c 6.99,13.622 10.16,19.339 23.43,27.784 2.96,-11.047 3.94,-13.762 10.68,-23.265 l 5.24,3.045 c -10.54,12.992 -13.64,22.313 -15.81,38.478 -15.82,-11.663 -23.62,-26.452 -23.54,-46.042 z"
       id="path109" />
    <path
       fill="#8c8b8b"
       d="m 1238.9,722.135 c 0.84,-0.991 1.71,-1.962 2.59,-2.912 13.66,-14.624 34.93,-28.46 55.61,-28.371 7.91,0.034 15.16,2.726 23.64,2.039 l 1.5,2.426 c -3.42,2.11 -15.9,0.318 -20.72,0.753 -24.23,2.188 -40.69,13.297 -57.29,29.634 l -5.24,-3.045 z"
       id="path110" />
    <path
       fill="#c8c7c7"
       d="m 523.791,729.183 c 10.522,-3.567 20.784,-5.148 31.83,-2.48 35.305,8.531 38.411,49.848 38.076,79.438 l -9.903,-11.813 c -18.935,-17.989 -38.201,-19.97 -63.139,-17.911 -11.613,4.017 -14.689,3.793 -25.129,11.365 0.848,-21.456 5.162,-45.93 25.545,-57.343 z"
       id="path111" />
    <path
       fill="#edecec"
       d="m 523.791,729.183 c 10.522,-3.567 20.784,-5.148 31.83,-2.48 35.305,8.531 38.411,49.848 38.076,79.438 l -9.903,-11.813 c 0.254,-4.47 0.281,-8.95 0.08,-13.423 -2.892,-65.748 -47.852,-39.287 -58.911,-50.464 -0.404,-0.407 -0.782,-0.839 -1.172,-1.258 z"
       id="path112" />
    <path
       fill="#8c8b8b"
       d="m 495.526,787.782 c 0.848,-21.456 5.162,-45.93 25.545,-57.343 -1.529,9.345 -4.131,36.281 -2.302,44.817 l 1.886,1.161 c -11.613,4.017 -14.689,3.793 -25.129,11.365 z"
       id="path113" />
    <path
       fill="#9d9c9c"
       d="m 972.236,661.544 c 8.947,-1.394 21.446,-2.174 30.294,-0.722 23.96,2.796 40.3,14.788 50.51,36.346 8.14,16.888 10.92,27.888 14.2,46.19 0.85,6.242 2.29,19.856 -7.39,18.856 -9.31,-6.038 -18.44,-29.804 -24.69,-41.212 -13.38,-22.262 -32.34,-31.875 -56.638,-39.14 -16.955,-3.155 -28.216,-4.038 -45.478,-3.29 12.517,-10.73 22.767,-15.141 39.192,-17.028 z"
       id="path114" />
    <path
       fill="#c8c7c7"
       d="m 1002.53,660.822 c 23.96,2.796 40.3,14.788 50.51,36.346 0.01,5.231 0.61,16.814 -6.43,16.699 -4.83,-3.374 -6.16,-7.967 -9.97,-12.429 -9.21,-10.884 -21.51,-17.534 -34.42,-22.997 -5.273,-2.229 -19.871,-5.239 -17.955,-11.543 5.832,-4.816 11.079,-5.941 18.265,-6.076 z"
       id="path115" />
    <path
       fill="#777676"
       d="m 1035.16,721.002 c 17.04,7.236 17.1,24.222 27.09,26.244 2.84,-1.456 2.73,-1.552 4.99,-3.888 0.85,6.242 2.29,19.856 -7.39,18.856 -9.31,-6.038 -18.44,-29.804 -24.69,-41.212 z"
       id="path116" />
    <path
       fill="#777676"
       d="m 933.044,678.572 c 12.517,-10.73 22.767,-15.141 39.192,-17.028 -2.899,3.1 -5.345,5.721 -8.478,8.611 5.583,3.112 12.208,5.895 14.764,11.707 -16.955,-3.155 -28.216,-4.038 -45.478,-3.29 z"
       id="path117" />
    <path
       fill="#1bc1b5"
       d="m 606.179,250.479 c 8.812,-0.486 17.477,2.409 24.228,8.095 3.926,3.306 7.068,7.444 9.199,12.114 7.094,15.54 1.802,33.931 -12.465,43.326 -14.267,9.394 -33.253,6.988 -44.726,-5.668 -11.473,-12.656 -12.01,-31.786 -1.264,-45.066 1.661,-2.053 3.552,-3.91 5.635,-5.534 5.573,-4.343 12.339,-6.878 19.393,-7.267 z"
       id="path118" />
    <path
       fill="#14aba1"
       d="m 639.606,270.688 c 7.094,15.54 1.802,33.931 -12.465,43.326 -14.267,9.394 -33.253,6.988 -44.726,-5.668 -11.473,-12.656 -12.01,-31.786 -1.264,-45.066 4.402,44.059 47.175,43.785 58.455,7.408 z"
       id="path119" />
    <path
       fill="#59e0d2"
       d="m 606.179,250.479 c 8.812,-0.486 17.477,2.409 24.228,8.095 -3.235,6.218 -14.83,16.737 -22.37,10.164 -1.939,-4.005 -1.456,-7.227 -1.429,-11.746 -7.552,1.984 -13.034,5.057 -19.822,0.754 5.573,-4.343 12.339,-6.878 19.393,-7.267 z"
       id="path120" />
    <path
       fill="#14aba1"
       d="m 440.858,645.394 c 14.649,-15.134 28.552,15.671 32.629,26.659 4.482,11.362 12.741,31.823 14.669,43.417 0.897,2.783 2.599,16.927 -2.247,18.733 -10.443,3.893 -21.799,-8.391 -27.706,-17.486 -10.366,-15.962 -24.107,-52.536 -17.345,-71.323 z"
       id="path121" />
    <path
       fill="url(#Gradient4)"
       d="m 488.156,715.47 c 0.897,2.783 2.599,16.927 -2.247,18.733 -10.443,3.893 -21.799,-8.391 -27.706,-17.486 -10.366,-15.962 -24.107,-52.536 -17.345,-71.323 l 4.961,3.524 c -4.962,16.881 15.913,80.656 38.48,77.529 5.957,-4.005 3.226,-4.689 3.857,-10.977 z"
       id="path122"
       style="fill:url(#Gradient4)" />
    <path
       fill="#59e0d2"
       d="m 440.858,645.394 c 14.649,-15.134 28.552,15.671 32.629,26.659 -2.029,3.361 -0.64,2.442 -3.649,3.848 -7.148,-4.877 -7.598,-18.355 -24.019,-26.983 z"
       id="path123" />
    <path
       fill="#26dacb"
       d="m 514.696,783.326 c 27.841,-4.272 53.415,-2.346 72.561,21.05 2.259,4.121 3.334,6.019 4.944,10.374 1.963,8.336 1.759,13.189 0.792,21.793 -4.17,-4.61 -8.084,-9.163 -12.709,-13.318 l -9.292,-6.66 -3.544,-1.437 c -18.322,-7.506 -32.918,-8.325 -52.325,-6.889 -10.405,3.128 -13.806,4.914 -22.377,11.498 -0.727,-18.267 1.042,-31.776 21.95,-36.411 z"
       id="path124" />
    <path
       fill="#14aba1"
       d="m 492.746,819.737 c -0.727,-18.267 1.042,-31.776 21.95,-36.411 -4.491,26.201 9.295,16.836 25.43,20.643 -7.342,0.446 -19.948,-0.155 -25.003,4.27 -10.405,3.128 -13.806,4.914 -22.377,11.498 z"
       id="path125" />
    <path
       fill="#1bc1b5"
       d="m 587.257,804.376 c 2.259,4.121 3.334,6.019 4.944,10.374 1.963,8.336 1.759,13.189 0.792,21.793 -4.17,-4.61 -8.084,-9.163 -12.709,-13.318 l -9.292,-6.66 c 0.27,-1.142 1.524,-3.326 2.122,-4.484 3.272,1.397 3.355,1.625 7.028,1.825 3.003,-1.489 4.952,-6.146 7.115,-9.53 z"
       id="path126" />
    <path
       fill="#14aba1"
       d="m 592.201,814.75 c 1.963,8.336 1.759,13.189 0.792,21.793 -4.17,-4.61 -8.084,-9.163 -12.709,-13.318 3.485,0.337 6.534,0.722 9.663,-0.81 2.734,-3.478 1.876,-2.421 2.254,-7.665 z"
       id="path127" />
    <path
       fill="#0f8f88"
       d="m 540.126,803.969 c 12.873,0.631 20.981,3.363 32.988,8.112 -0.598,1.158 -1.852,3.342 -2.122,4.484 l -3.544,-1.437 c -18.322,-7.506 -32.918,-8.325 -52.325,-6.889 5.055,-4.425 17.661,-3.824 25.003,-4.27 z"
       id="path128" />
    <path
       fill="#14aba1"
       d="m 1018.51,859.759 c 4.8,-11.844 13.47,-20.679 23.84,-27.792 0.83,3.786 1.01,6.756 3.5,9.619 l 0.9,0.277 1.68,4.269 c -4.31,8.436 -6.97,14.336 -8.9,23.763 0.01,7.123 -0.05,13.8 0.5,20.912 3.37,19.035 9.88,28.284 24.24,40.809 -19.23,-1.36 -33.15,-2.612 -44.8,-20.217 -8.92,-20.422 -7.15,-30.938 -0.96,-51.64 z"
       id="path129" />
    <path
       fill="#1bc1b5"
       d="m 1018.51,859.759 c 4.8,-11.844 13.47,-20.679 23.84,-27.792 0.83,3.786 1.01,6.756 3.5,9.619 l 0.9,0.277 1.68,4.269 c -4.31,8.436 -6.97,14.336 -8.9,23.763 -10,6.864 -16.45,-2.977 -21.02,-10.136 z"
       id="path130" />
    <path
       fill="#0d7771"
       d="m 1040.03,890.807 c 3.37,19.035 9.88,28.284 24.24,40.809 -19.23,-1.36 -33.15,-2.612 -44.8,-20.217 18.49,4.028 21.32,-2.649 20.56,-20.592 z"
       id="path131" />
    <path
       fill="#c8c7c7"
       d="m 610.223,324.75 c 7.099,-1.616 20.683,-8.001 24.083,-7.101 l 2.376,4.157 c 5.398,12.333 27.161,56.48 21.031,66.45 -3.413,2.354 -5.694,4.142 -9.529,5.754 -3.225,0.137 -10.281,0.797 -12.274,-1.224 -11.354,-11.513 -22.269,-53.658 -25.687,-68.036 z"
       id="path132" />
    <path
       fill="#9d9c9c"
       d="m 610.223,324.75 c 7.099,-1.616 20.683,-8.001 24.083,-7.101 l 2.376,4.157 -4.355,3.653 c -3.457,2.281 -6.752,4.413 -10.076,6.899 4.66,14.894 14.269,52.209 25.933,61.652 -3.225,0.137 -10.281,0.797 -12.274,-1.224 -11.354,-11.513 -22.269,-53.658 -25.687,-68.036 z"
       id="path133" />
    <path
       fill="#edecec"
       d="m 632.327,325.459 4.355,-3.653 c 5.398,12.333 27.161,56.48 21.031,66.45 -5.019,-3.887 -23.391,-54.32 -25.386,-62.797 z"
       id="path134" />
    <path
       fill="rgb(116,69,169)"
       d="m 1353.58,824.087 c -4.8,18.444 -5.72,31.673 -9.37,49.24 l -0.53,3.612 c 0.75,17.688 0.66,30.945 6.19,47.973 -1.07,10.303 0.04,14.294 -11.09,17.767 -16.1,-19.521 -17.69,-45.525 -15.16,-69.624 2.43,-14.226 6.57,-26.452 16.83,-37.167 4.43,-4.219 8.5,-7.813 13.13,-11.801 z"
       id="path135"
       style="fill:#14aba1;fill-opacity:1" />
    <path
       fill="rgb(139,88,195)"
       d="m 1353.58,824.087 c -4.8,18.444 -5.72,31.673 -9.37,49.24 l -0.53,3.612 c -2.49,4.507 0.7,11.567 -7.88,16.145 -8.64,-0.832 -10.88,-13.061 -12.18,-20.029 2.43,-14.226 6.57,-26.452 16.83,-37.167 4.43,-4.219 8.5,-7.813 13.13,-11.801 z"
       id="path136"
       style="fill:#59e0d2;fill-opacity:1" />
    <path
       fill="rgb(116,69,169)"
       d="m 1353.58,824.087 c -4.8,18.444 -5.72,31.673 -9.37,49.24 -2.48,-20.436 -5.69,-14.139 -3.76,-37.439 4.43,-4.219 8.5,-7.813 13.13,-11.801 z"
       id="path137"
       style="fill:#14aba1;fill-opacity:1" />
    <path
       fill="rgb(119,118,118)"
       d="m 765.366,766.593 c 24.017,-11.5 46.983,-25.469 70.246,-38.332 8.648,-4.782 20.811,-11.84 29.619,-15.548 -1.305,5.619 -2.079,10.093 -4.519,15.351 -1.178,2.357 -2.425,5.368 -4.059,7.276 -4.431,7.746 -14.479,18.627 -22.651,22.174 -17.317,14.22 -48.177,18.766 -68.636,9.079 z"
       id="path138"
       style="fill:#5e368a;fill-opacity:1" />
    <path
       fill="rgb(200,199,199)"
       d="m 838.387,743.824 c 3.825,-2.951 13.805,-9.827 18.266,-8.484 -4.431,7.746 -14.479,18.627 -22.651,22.174 -5.992,0.638 -9.498,2.169 -15.081,4.197 l -0.965,-0.73 0.038,-1.425 c 5.521,-6.404 13.28,-11.268 20.393,-15.732 z"
       id="path139"
       style="fill:#9465cc;fill-opacity:1" />
    <path
       fill="rgb(157,156,156)"
       d="m 791.284,767.6 c 18.59,-8.429 31.317,-16.759 47.325,-29.221 0.337,2.36 0.782,3.403 -0.222,5.445 -7.113,4.464 -14.872,9.328 -20.393,15.732 l -0.038,1.425 0.965,0.73 c -5.531,3.106 -20.785,4.899 -27.637,5.889 z"
       id="path140"
       style="fill:#8b58c3;fill-opacity:1" />
    <path
       fill="rgb(157,156,156)"
       d="m 838.609,738.379 c 4.94,-3.094 16.547,-11.15 22.103,-10.315 -1.178,2.357 -2.425,5.368 -4.059,7.276 -4.461,-1.343 -14.441,5.533 -18.266,8.484 1.004,-2.042 0.559,-3.085 0.222,-5.445 z"
       id="path141"
       style="fill:#8b58c3;fill-opacity:1" />
    <path
       fill="#c8c7c7"
       d="m 1417.32,782.368 c 5.47,3.525 6.32,3.981 12.53,5.535 -17.49,22.582 -28.35,72.06 -27.96,100.536 -0.94,3.895 -0.2,3.593 -2.65,5.686 -5.17,-0.498 -7.11,-3.631 -10.58,-7.778 1.15,-38.712 5.1,-72.075 28.66,-103.979 z"
       id="path142" />
    <path
       fill="#26dacb"
       d="m 1346.1,790.129 c 8.93,-1.161 15.32,-2.057 24.4,-2.08 -4.2,6.425 -7.26,11.161 -10.78,17.936 l -4.04,11.02 c -7.63,0.045 -16.59,-0.132 -24.05,0.66 -9.94,0.541 -19.9,0.853 -29.85,0.936 3.99,-4.936 5.71,-6.6 10.32,-10.815 11.89,-9.898 19.23,-13.081 34,-17.657 z"
       id="path143" />
    <path
       fill="#59e0d2"
       d="m 1312.1,807.786 c 11.89,-9.898 19.23,-13.081 34,-17.657 -1.87,12.174 -7.51,12.524 -11.8,22.824 -1.1,2.18 -1.27,2.763 -2.67,4.712 -9.94,0.541 -19.9,0.853 -29.85,0.936 3.99,-4.936 5.71,-6.6 10.32,-10.815 z"
       id="path144" />
    <path
       fill="#14aba1"
       d="m 1312.1,807.786 c 6.41,7.504 13.06,5.678 22.2,5.167 -1.1,2.18 -1.27,2.763 -2.67,4.712 -9.94,0.541 -19.9,0.853 -29.85,0.936 3.99,-4.936 5.71,-6.6 10.32,-10.815 z"
       id="path145" />
    <path
       fill="#0f8f88"
       d="m 1334.3,812.953 c 9.64,-1.644 16.34,-3.631 25.42,-6.968 l -4.04,11.02 c -7.63,0.045 -16.59,-0.132 -24.05,0.66 1.4,-1.949 1.57,-2.532 2.67,-4.712 z"
       id="path146" />
    <path
       fill="#0f8f88"
       d="m 1076.76,751.588 c 10.25,-10.539 21.68,-7.89 31.32,2.369 1.1,1.19 2.17,2.409 3.2,3.656 10.48,13.481 12.76,29.549 13.21,45.958 -10.32,-27.054 -24.52,-41.824 -54.96,-41.593 2.54,-4.291 4.15,-6.45 7.23,-10.39 z"
       id="path147" />
    <path
       fill="#1bc1b5"
       d="m 1076.76,751.588 c 10.25,-10.539 21.68,-7.89 31.32,2.369 1.1,1.19 2.17,2.409 3.2,3.656 -1.5,2.679 -2.17,5.297 -4.98,5.713 -9.11,1.349 -22.41,-7.222 -29.54,-11.738 z"
       id="path148" />
    <path
       fill="#9465cc"
       d="m 478.782,639.974 c 11.154,15.949 17.244,30.938 23.879,49.084 -4.186,3.431 -8.531,7.345 -13.78,8.917 -5.003,-14.546 -13.747,-34.451 -21.57,-47.731 3.179,-3.212 7.984,-7.193 11.471,-10.27 z"
       id="path149" />
    <path
       fill="#9465cc"
       d="m 438.172,640.335 c 0.94,-10.711 0.678,-19.278 12.737,-22.186 4.23,1.27 7.869,2.247 11.926,4.047 4.539,3.625 6.379,4.866 9.883,9.693 l 6.064,8.085 c -3.487,3.077 -8.292,7.058 -11.471,10.27 l -5.087,-6.043 c -4.487,-4.206 -5.263,-4.934 -10.735,-7.651 -6.796,0.147 -7.512,0.543 -13.317,3.785 z"
       id="path150" />
    <path
       fill="#8b58c3"
       d="m 438.172,640.335 c 0.94,-10.711 0.678,-19.278 12.737,-22.186 0.246,4.877 0.442,12.723 1.034,17.388 l -0.454,1.013 c -6.796,0.147 -7.512,0.543 -13.317,3.785 z"
       id="path151" />
    <path
       fill="#af87e1"
       d="m 472.718,631.889 6.064,8.085 c -3.487,3.077 -8.292,7.058 -11.471,10.27 l -5.087,-6.043 c 5.029,-4.699 7.127,-6.051 10.494,-12.312 z"
       id="path152" />
    <path
       fill="#af87e1"
       d="m 450.909,618.149 c 4.23,1.27 7.869,2.247 11.926,4.047 -2.594,5.463 -4.666,11.467 -10.892,13.341 -0.592,-4.665 -0.788,-12.511 -1.034,-17.388 z"
       id="path153" />
    <path
       fill="#7445a9"
       d="m 991.672,485.091 c 5.71,1.759 9.018,1.917 14.838,0.582 1.64,7.297 3.45,14.299 3.61,21.8 2.26,16.163 0.09,26.967 -6.83,41.609 -0.24,-10.57 -1.26,-15.824 -2.59,-25.999 -2.138,-13.161 -5.363,-25.236 -9.028,-37.992 z"
       id="path154" />
    <path
       fill="#5e368a"
       d="m 1010.12,507.473 c 2.26,16.163 0.09,26.967 -6.83,41.609 -0.24,-10.57 -1.26,-15.824 -2.59,-25.999 5.47,0.592 6.93,1.864 9.32,-3.073 -0.34,-4.894 -0.21,-7.618 0.1,-12.537 z"
       id="path155" />
    <path
       fill="#9d9c9c"
       d="m 1388.66,886.347 c 3.47,4.147 5.41,7.28 10.58,7.778 2.45,-2.093 1.71,-1.791 2.65,-5.686 -1.07,14.334 -0.29,34.527 2.69,48.809 -3.7,3.091 -6.35,2.612 -11.02,2.275 -4.25,-15.439 -5.83,-37.28 -4.9,-53.176 z"
       id="path156" />
    <path
       fill="#8b58c3"
       d="m 502.661,689.058 c 4.308,13.593 6.13,19.06 7.845,33.233 -4.417,6.393 -10.597,4.913 -16.422,1.555 -0.239,-9.281 -2.454,-17.118 -5.203,-25.871 5.249,-1.572 9.594,-5.486 13.78,-8.917 z"
       id="path157" />
    <path
       fill="#5e368a"
       d="m 510.506,722.291 c 2.212,15.577 -16.308,32.717 -32.653,18.327 l -1.131,-0.984 c -0.222,-0.201 -0.444,-0.403 -0.667,-0.604 10.819,-1.794 13.989,-0.668 17.118,-11.979 l 0.911,-3.205 c 5.825,3.358 12.005,4.838 16.422,-1.555 z"
       id="path158" />
    <path
       fill="#af87e1"
       d="m 965.905,426.812 c 17.447,8.431 22.837,14.452 30.899,31.679 l -12.612,4.84 c -4.885,-12.36 -11.963,-24.722 -18.287,-36.519 z"
       id="path159" />
    <path
       fill="#8b58c3"
       d="m 996.804,458.491 c 3.966,9.946 6.476,16.974 9.706,27.182 -5.82,1.335 -9.128,1.177 -14.838,-0.582 -2.162,-7.476 -4.805,-14.47 -7.48,-21.76 z"
       id="path160" />
    <path
       fill="rgb(94,54,138)"
       d="m 1349.87,924.912 c 5.31,14.31 8.6,20.249 18.21,32.406 -12.7,-1.993 -20.56,-4.063 -29.3,-14.639 11.13,-3.473 10.02,-7.464 11.09,-17.767 z"
       id="path161"
       style="fill:#0f8f88;fill-opacity:1" />
    <path
       fill="#edecec"
       d="m 1417.32,782.368 c 13.45,-13.617 22.5,-14.176 38.8,-4.868 -12.84,0.415 -16.76,0.857 -26.27,10.403 -6.21,-1.554 -7.06,-2.01 -12.53,-5.535 z"
       id="path162" />
    <path
       fill="#777676"
       d="m 1404.58,937.248 c 1.98,6.941 3.46,12.286 7.72,18.348 1.47,2.096 5.45,7.183 4.77,9.35 -13.69,0.524 -20.37,-14.533 -23.51,-25.423 4.67,0.337 7.32,0.816 11.02,-2.275 z"
       id="path163" />
    <path
       fill="#1bc1b5"
       d="m 1052.67,827.206 c 7.64,-2.503 16.71,-4.485 24.61,-6.455 -12.68,7.645 -19.81,13.266 -28.85,25.381 l -1.68,-4.269 -0.9,-0.277 c -2.49,-2.863 -2.67,-5.833 -3.5,-9.619 2.68,-1.609 7.34,-3.463 10.32,-4.761 z"
       id="path164" />
    <path
       fill="#59e0d2"
       d="m 1042.35,831.967 c 2.68,-1.609 7.34,-3.463 10.32,-4.761 -2.15,4.896 -4.35,9.546 -5.92,14.657 l -0.9,-0.277 c -2.49,-2.863 -2.67,-5.833 -3.5,-9.619 z"
       id="path165" />
    <path
       fill="#362b49"
       d="m 1198.13,712.565 c 3.19,3.326 1.97,18.375 4.44,24.988 2.94,7.85 6.01,12.708 10.14,19.896 -13.68,-7.439 -15.45,-31.114 -14.58,-44.884 z"
       id="path166" />
    <path
       fill="#135753"
       d="m 772.975,837.813 c 10.623,7.902 11.508,25.402 10.834,37.582 -2.259,-2.582 -1.743,-1.715 -2.171,-6.132 -1.234,-12.745 -3.573,-19.892 -8.663,-31.45 z"
       id="path167" />
  </g>
</svg>
