<?xml version="1.0" encoding="UTF-8" standalone="no"?>
<svg
   version="1.1"
   style="display:block"
   viewBox="0 204 673.93787 1007.6715"
   width="673.93787"
   height="1007.6715"
   preserveAspectRatio="xMidYMid meet"
   id="svg413"
   xmlns="http://www.w3.org/2000/svg"
   xmlns:svg="http://www.w3.org/2000/svg">
  <defs
     id="defs18">
    <linearGradient
       id="Gradient2"
       gradientUnits="userSpaceOnUse"
       x1="1868.7"
       y1="1183.9399"
       x2="1941.52"
       y2="1103.25">
      <stop
         class="stop0"
         offset="0"
         stop-opacity="1"
         stop-color="rgb(166,164,165)"
         id="stop3" />
      <stop
         class="stop1"
         offset="1"
         stop-opacity="1"
         stop-color="rgb(211,211,210)"
         id="stop4" />
    </linearGradient>
    <linearGradient
       id="Gradient3"
       gradientUnits="userSpaceOnUse"
       x1="1487.42"
       y1="1752.6801"
       x2="1525.9301"
       y2="1622.5601">
      <stop
         class="stop0"
         offset="0"
         stop-opacity="1"
         stop-color="rgb(169,168,168)"
         id="stop5" />
      <stop
         class="stop1"
         offset="1"
         stop-opacity="1"
         stop-color="rgb(219,218,217)"
         id="stop6" />
    </linearGradient>
  </defs>
  <g
     id="g418"
     transform="translate(-1332.9899,-591.05767)">
    <path
       fill="#000000"
       d="m 1671.33,795.239 c 31.55,-2.876 45.83,29.042 32.02,54.297 -3.18,5.826 -6.63,8.556 -11.53,12.714 0.63,20.024 1.41,40.044 2.33,60.057 36.65,-1.016 62.96,-2.395 91.34,22.314 25.61,1.99 58.72,8.101 78.71,25.195 26.98,23.077 28.38,61.084 31.19,93.744 27.94,2.38 46.71,21.14 51.25,48.62 4.97,30.05 4.75,74.44 -11.71,101.23 -9.47,15.42 -27.06,21.89 -43.93,25.15 -5.04,40.39 -16.3,58.34 -55.99,71.65 12.7,0.93 23.57,3.01 35.9,5.09 43.13,7.28 32.24,35.11 23.51,67.35 19.96,6.37 21.04,11.05 20.7,31.22 1.76,1.45 3.51,2.92 5.24,4.41 41.11,35.56 43.19,83.49 7.67,123.78 42.13,3.04 74.08,19.5 78.31,65.75 4.47,48.83 -17.12,116.84 -45.56,156.49 -11.09,15.47 -32.77,28.4 -51.58,29.64 -27.52,2.25 -54.11,-9.16 -75.54,-26.13 -5,-3.96 -11.98,-13.81 -16.92,-17.41 -33.68,-24.54 -73.82,-54.06 -114.26,-64.78 -13.89,-3.68 -36.14,-2.34 -49.71,-0.47 -32.51,6.33 -99.82,57.41 -128.61,77.28 -8.14,5.62 -20.98,17.85 -30.59,24.38 -21.45,14.56 -39.92,18.5 -65.4,14.38 -20.9,-3.39 -44.21,-19.27 -55.31,-37.49 -26.29,-43.17 -46.75,-102.51 -37.69,-153.2 3.34,-18.68 14.17,-38.43 29.83,-48.52 25.55,-16.45 49.53,-13.94 77.34,-8.77 -22.98,-54.13 -3.07,-134.06 21.18,-185.94 15,-32.06 40.96,-34.57 72.2,-33.83 2.65,0.06 24.03,-6.74 27.89,-7.88 -44.76,-8.88 -79.31,-23.27 -89.14,-72.29 -16.32,-6.63 -33.44,-15.61 -39.86,-33.1 -16.71,-45.51 -21.25,-122.51 31.3,-145.8 0.33,-78.881 22.85,-117.021 103.89,-126.823 20.31,-25.919 56.84,-24.003 87.01,-25.406 -1.34,-12.929 -0.02,-45.561 0.22,-59.865 -8.97,-7.578 -15.75,-14.354 -17.98,-26.666 -1.65,-8.692 0.26,-17.682 5.32,-24.943 6.72,-9.607 15.92,-13.507 26.96,-15.428 z m 113.73,744.181 c 20.95,9.59 35.05,12.15 55.28,19.65 8.6,2.94 16.45,5.52 24.32,10.15 9.84,-7.83 16.3,-12.4 27.6,-17.86 -6.73,-1.64 -8.42,-2.29 -14.5,-4.7 -5.79,-2.3 -25.76,-15.03 -29.05,-15.32 -16.15,2.91 -47.1,6.93 -63.65,8.08 z"
       id="path168"
       style="display:block" />
    <path
       fill="#c8c7c7"
       d="m 1791.37,951.439 c 45.27,5.684 86.02,18.193 94.11,69.031 6.15,38.57 4.65,82.4 3.24,121.47 -1.15,31.85 1.53,92.5 -9,121.34 -7.76,33 -37.81,41.05 -67.01,45.53 -0.72,-3.45 -2.36,-10.32 -2.73,-13.54 -2.14,-14.39 -5.01,-20.06 -15.82,-29.1 39.72,-1.51 61.04,-4.68 61.55,-51.15 0.4,-37.97 1.26,-76.03 0.41,-114 -0.23,-10.32 -1.25,-25.53 -9.57,-32.74 -8.05,-6.59 -19.94,-9.13 -30.33,-8.86 -68.62,1.85 -138.55,2.36 -206.8,9.37 -15.06,2.34 -31.08,8.74 -33.64,25.8 -6.45,43 -3.51,88.25 -4.77,131.48 -1.05,36.32 9.96,48.43 46.33,47.83 10.26,-0.18 21.34,-0.66 31.81,-1.12 24.49,-1.26 49.01,-2.23 73.53,-2.91 10.78,0.44 19.12,-3.88 22.6,7.26 -0.52,6.87 -1.14,13.94 -1.41,20.81 4.18,0.1 8.7,-0.22 12.91,-0.42 -2.13,7.85 -2.76,9.56 -8.54,15.2 -11.27,3.17 -60.31,4.37 -74.8,5.05 -31.36,1.02 -62.57,5.78 -93.96,3.74 -43.01,-2.8 -81.35,-15.5 -97.35,-58.58 l -2.5,-10.09 c 28.77,-7.32 31.27,-21.34 38.39,-47.19 0.86,-6.48 1.53,-12.98 2.03,-19.5 1.62,-19.84 1.76,-40.14 -0.37,-59.91 -3.31,-30.69 -15.13,-51.53 -48.58,-53.67 0.02,-27.18 3.44,-63.32 21.98,-84.826 18.46,-23.161 53.69,-36.172 82.71,-34.878 34.75,0.171 51.24,18.31 57.28,51.114 1.51,8.19 3.62,24.16 12.12,28.98 22.83,10.28 54.24,6.21 78.14,5.83 26.59,-0.42 45.92,-1.06 70.66,-9.63 20.49,-15.28 6.79,-59.266 -2.62,-77.721 z"
       id="path169"
       style="display:block" />
    <path
       fill="#8c8b8b"
       d="m 1471.1,1072.57 c 0.02,-27.18 3.44,-63.32 21.98,-84.826 11.45,4.608 25.91,3.308 31.93,16.306 3.05,6.6 4.77,11.41 6.9,18.41 4.8,41.09 2.64,100.9 4.18,144 0.17,14.21 1.96,38.57 1.33,51.4 -4.45,90.47 32.7,88.22 107.76,85.23 30.42,-1.21 67.99,-4.04 98.69,-5.15 4.18,0.1 8.7,-0.22 12.91,-0.42 -2.13,7.85 -2.76,9.56 -8.54,15.2 -11.27,3.17 -60.31,4.37 -74.8,5.05 -31.36,1.02 -62.57,5.78 -93.96,3.74 -43.01,-2.8 -81.35,-15.5 -97.35,-58.58 l -2.5,-10.09 c 28.77,-7.32 31.27,-21.34 38.39,-47.19 0.86,-6.48 1.53,-12.98 2.03,-19.5 1.62,-19.84 1.76,-40.14 -0.37,-59.91 -3.31,-30.69 -15.13,-51.53 -48.58,-53.67 z"
       id="path170"
       style="display:block" />
    <path
       fill="#c8c7c7"
       d="m 1493.08,987.744 c 18.46,-23.161 53.69,-36.172 82.71,-34.878 15.18,6.849 29.56,10.138 40.05,23.791 -37.19,1.035 -74.79,2.335 -83.93,45.803 -2.13,-7 -3.85,-11.81 -6.9,-18.41 -6.02,-12.998 -20.48,-11.698 -31.93,-16.306 z"
       id="path172"
       style="display:block" />
    <path
       fill="#8c8b8b"
       d="m 1575.79,952.866 c 34.75,0.171 51.24,18.31 57.28,51.114 1.51,8.19 3.62,24.16 12.12,28.98 22.83,10.28 54.24,6.21 78.14,5.83 26.59,-0.42 45.92,-1.06 70.66,-9.63 -19.14,27.77 -127.94,25.86 -157.33,13.34 -9.88,-4.2 -13.4,-45.032 -15.79,-56.456 -1.32,-3.139 -3.32,-6.392 -5.03,-9.387 -10.49,-13.653 -24.87,-16.942 -40.05,-23.791 z"
       id="path173"
       style="display:block" />
    <path
       fill="#edecec"
       d="m 1531.91,1022.46 c 9.14,-43.468 46.74,-44.768 83.93,-45.803 1.71,2.995 3.71,6.248 5.03,9.387 -3.81,1.371 -13.32,2.189 -17.46,2.459 -52.42,3.412 -60.7,29.467 -63.02,74.577 -0.78,15.18 0.59,103.56 -2.75,109.53 l -1.55,-6.15 c -1.54,-43.1 0.62,-102.91 -4.18,-144 z"
       id="path174"
       style="display:block" />
    <path
       fill="#14aba1"
       d="m 1371.69,1596.32 c 44.54,-9.79 69.29,21.17 80.99,59.77 7.08,24.23 13.89,50.25 14.35,75.67 0.63,18.56 1.17,41.41 -12.53,55.82 -15.89,16.73 -40.65,5.69 -55.76,-5.72 -25.43,-19.39 -39.28,-54.27 -48.9,-84 -11.33,-35.01 -24.39,-87.26 21.85,-101.54 z"
       id="path190"
       style="display:block" />
    <path
       fill="#0f8f88"
       d="m 1398.74,1781.86 c 37.3,2.07 50.75,6.89 62.58,-35.38 1.51,-5.42 2.24,-10.19 5.71,-14.72 0.63,18.56 1.17,41.41 -12.53,55.82 -15.89,16.73 -40.65,5.69 -55.76,-5.72 z"
       id="path191"
       style="display:block" />
    <path
       fill="#59e0d2"
       d="m 1371.69,1596.32 c 44.54,-9.79 69.29,21.17 80.99,59.77 -8.17,2.73 -20.48,-27.33 -25.67,-34.91 -14.1,-20.59 -42.64,-16.33 -55.32,-24.86 z"
       id="path192"
       style="display:block" />
    <path
       fill="#26dacb"
       d="m 1697.05,927.034 c 30.37,-1.298 72.56,-1.419 90,28.379 10.04,17.684 11.65,24.208 10.94,44.302 l -0.04,7.225 c -0.21,2.85 -0.49,7.4 -1.1,10.1 -0.86,3.94 -3.31,7.34 -6.76,9.41 -19.15,11.53 -106.1,11.47 -131.28,7.6 -26.81,-4.13 -19.7,-42.89 -32.93,-60.502 -13.27,-17.68 -28.79,-21.187 -48.79,-25.804 3.02,-3.679 4.48,-4.996 8.08,-8.143 10.93,-6.252 18.74,-7.274 31.08,-9.101 13.84,-2.163 26.17,-3.524 40.27,-3.753 0.54,7.053 0.22,10.472 4.39,16.241 23.88,1.32 25.69,8.726 36.14,-15.954 z"
       id="path206"
       style="display:block" />
    <path
       fill="#14aba1"
       d="m 1585.17,939.601 c 22.68,12.138 25.47,6.277 47.15,26.649 6.54,9.423 9.09,18.961 11.87,30.047 1.01,7.493 1.89,18.233 8.37,23.213 16.67,12.8 98.86,6.43 121.51,2.36 6.97,-1.25 18.05,-4.33 22.07,-10.65 0.89,-1.39 1.28,-2.76 1.81,-4.28 -0.21,2.85 -0.49,7.4 -1.1,10.1 -0.86,3.94 -3.31,7.34 -6.76,9.41 -19.15,11.53 -106.1,11.47 -131.28,7.6 -26.81,-4.13 -19.7,-42.89 -32.93,-60.502 -13.27,-17.68 -28.79,-21.187 -48.79,-25.804 3.02,-3.679 4.48,-4.996 8.08,-8.143 z"
       id="path209"
       style="display:block" />
    <path
       fill="#c8c7c7"
       d="m 1437.94,1496.1 c -0.11,-30.7 6.84,-62.51 16.11,-92.74 10.04,-32.76 31.52,-75.85 74.62,-62.47 11.3,3.51 19.13,12.44 24.33,23.02 7.31,32.21 -2.43,65.59 -11.23,96.55 -1.19,4.16 -4.77,17.28 -7.18,20.11 l -1.69,-1.77 c -40.33,-34.33 -69.09,-24.23 -94.96,17.3 z"
       id="path221"
       style="display:block" />
    <path
       fill="#8c8b8b"
       d="m 1437.94,1496.1 c -0.11,-30.7 6.84,-62.51 16.11,-92.74 10.04,-32.76 31.52,-75.85 74.62,-62.47 11.3,3.51 19.13,12.44 24.33,23.02 l -7.22,-3.49 c -56.75,-42.44 -80.74,65.9 -83.94,102.61 23.7,-11.91 44.92,-14.4 65.47,5.77 2.67,3.58 4.69,5.63 5.59,10 -40.33,-34.33 -69.09,-24.23 -94.96,17.3 z"
       id="path222"
       style="display:block" />
    <path
       fill="#c8c7c7"
       d="m 1362.1,1582.64 c 14.3,-6.38 21.84,-7.42 37.61,-7.88 38.32,1.71 62.06,35.5 72.09,69.38 12.59,32.42 23.52,96.4 9.07,129.26 -0.34,0.78 -0.7,1.55 -1.07,2.33 -4.07,0.24 -8.66,1 -12.34,-0.43 13.39,-47.91 -0.7,-125.4 -33.25,-164.12 -13.9,-16.54 -33.53,-21.13 -54.14,-22.02 -7.12,-3.02 -11.65,-2.5 -17.97,-6.52 z"
       id="path245"
       style="display:block" />
    <path
       fill="#edecec"
       d="m 1399.71,1574.76 c 38.32,1.71 62.06,35.5 72.09,69.38 l -1.35,1.04 c -5.15,-1.19 -19.44,-32.37 -24.32,-37.79 -11.91,-13.21 -26.78,-19.61 -42.47,-26.95 -2.79,-1.31 -3.14,-3.25 -3.95,-5.68 z"
       id="path246"
       style="display:block" />
    <path
       fill="#26dacb"
       d="m 1405.59,1555.69 c 24.83,-0.4 49.31,5.51 66.91,24.15 -7.46,7.6 -11.41,10 -19.73,16.35 -18.55,-17.12 -26.81,-22.59 -51.32,-26.54 1.26,-4.74 2.68,-9.28 4.14,-13.96 z"
       id="path292"
       style="display:block" />
    <path
       fill="#14aba1"
       d="m 1439.93,1502.94 c 4.7,-11.11 6.77,-14.77 14.87,-23.5 3.02,7.04 2.98,14.37 11.69,15.56 -5.67,6.59 -9.03,10.69 -13.89,17.83 -6.01,-2.82 -8.64,-4.65 -12.67,-9.89 z"
       id="path330"
       style="display:block" />
    <path
       fill="#1bc1b5"
       d="m 1358.96,1577.93 c 12.21,-16.75 27.08,-20.91 46.63,-22.24 -1.46,4.68 -2.88,9.22 -4.14,13.96 -14.94,-1.37 -28.84,2.6 -42.49,8.28 z"
       id="path331"
       style="display:block" />
    <path
       fill="#0d7771"
       d="m 1447.44,1548.5 c -7.19,-17.42 -8.02,-26.7 -7.51,-45.56 4.03,5.24 6.66,7.07 12.67,9.89 -4.91,11.83 -4.8,23.12 -5.16,35.67 z"
       id="path345"
       style="display:block" />
    <path
       fill="#8c8b8b"
       d="m 1340.8,1608.96 c 4.94,-12.98 8.46,-20.08 21.3,-26.32 6.32,4.02 10.85,3.5 17.97,6.52 -18.76,2.96 -25.56,7.37 -39.27,19.8 z"
       id="path347"
       style="display:block" />
    <path
       fill="#777676"
       d="m 1479.63,1252.84 c 28.77,-7.32 31.27,-21.34 38.39,-47.19 3,14.09 -4.23,51.99 -21.47,56.38 -4.06,1.03 -10.2,-1.1 -14.42,0.9 z"
       id="path171" />
    <path
       fill="#8c8b8b"
       d="m 1879.72,1263.28 c -7.76,33 -37.81,41.05 -67.01,45.53 -0.72,-3.45 -2.36,-10.32 -2.73,-13.54 34.88,-7.78 41.82,-4.84 69.74,-31.99 z"
       id="path175" />
    <path
       fill="#2b2a2a"
       d="m 1764.8,1065.5 c 16.38,-1.18 60.46,-3.81 74.04,4.47 17.58,10.71 11.15,48.92 11.29,67.9 0.22,30.61 0.14,63.97 -2.22,94.73 -3.88,30.05 -32.19,24.48 -51.98,26.76 -23.35,2.69 -35.77,-16.16 -49.43,2.29 l -0.71,0.98 c -25.57,0.97 -52.51,2.75 -78.48,3.82 -8.43,0.19 -17.38,1.05 -25.58,1.03 -30.54,-0.16 -64.06,10.53 -64.76,-32.87 -0.5,-39.01 -0.83,-78.46 1.29,-117.42 1.21,-22.15 3.41,-37.99 28.31,-42.54 19.84,-3.63 38.54,-3.98 58.57,-4.99 33.21,-1.66 66.43,-3.04 99.66,-4.16 z"
       id="path176" />
    <path
       fill="#2b2a2a"
       d="m 1658.14,1108.86 c 20.94,4.35 24.43,21.5 25.21,40.7 0.81,19.88 1.63,65.07 -18.77,76.05 -47.06,40.69 -45.96,-67.93 -32.49,-92.71 6.84,-13.43 12.26,-18.84 26.05,-24.04 z"
       id="path177" />
    <path
       fill="#2b2a2a"
       d="m 1632.09,1132.9 c -1.28,27.9 -9.27,73.9 15.57,91.84 6.98,0.84 9.87,1.05 16.92,0.87 -47.06,40.69 -45.96,-67.93 -32.49,-92.71 z"
       id="path178" />
    <g
       id="andy-eye-left"
       class="andy-eye-pupil">
      <path
         fill="#26dacb"
         d="m 1652.2,1117.32 c 4.74,-2.3 5.81,-2.14 10.65,-1.2 12.02,5.42 13.68,13.06 14.5,25.7 2.7,14.92 -0.01,53.63 -4.72,67.47 -2.26,4.5 -5.57,8.4 -9.65,11.37 -2.33,1.67 -5.89,3.05 -8.46,1.97 -20.89,-8.83 -19.51,-38.68 -19.16,-55.99 0.37,-18.47 -0.37,-40.29 16.84,-49.32 z"
         id="path179" />
      <path
         fill="#14aba1"
         d="m 1672.63,1209.29 c -2.26,4.5 -5.57,8.4 -9.65,11.37 -2.33,1.67 -5.89,3.05 -8.46,1.97 -20.89,-8.83 -19.51,-38.68 -19.16,-55.99 0.37,-18.47 -0.37,-40.29 16.84,-49.32 -11.52,23.95 -13.68,56.24 -7.24,81.8 3.69,14.64 16.3,14.05 27.67,10.17 z"
         id="path180" />
      <path
         fill="#59e0d2"
         d="m 1662.85,1116.12 c 12.02,5.42 13.68,13.06 14.5,25.7 l -2.07,-0.48 c -3.22,-3.07 -4.72,-7.35 -6.64,-11.49 -4.67,-2.21 -7.63,-2.82 -8.9,-8.04 0.93,-2.96 0.82,-3.62 3.11,-5.69 z"
         id="path181" />
    </g>
    <path
       fill="#2b2a2a"
       d="m 1779.35,1106.88 c 22.3,5.09 25.15,23.68 25.36,44.03 0.22,20.15 0.53,62.14 -22.11,71.26 -5.83,3.79 -7.96,5.03 -14.34,7.85 -3.29,-1.4 -6.94,-3.38 -10.16,-5.02 -13.66,-24.8 -14.63,-64.09 -4.63,-90.29 7.21,-15.24 9.98,-21.11 25.88,-27.83 z"
       id="path182" />
    <path
       fill="#2b2a2a"
       d="m 1758.1,1225 c -13.66,-24.8 -14.63,-64.09 -4.63,-90.29 l 0.06,1.31 c 0.82,22.8 -6.37,62.37 11.12,80.86 5.24,5.53 10.98,5.23 17.95,5.29 -5.83,3.79 -7.96,5.03 -14.34,7.85 -3.29,-1.4 -6.94,-3.38 -10.16,-5.02 z"
       id="path183" />
    <g
       id="andy-eye-right"
       class="andy-eye-pupil">
      <path
         fill="#26dacb"
         d="m 1773.34,1114.73 c 19.65,-4.58 25.43,10.12 25.65,27.02 0.44,17.98 0.53,43.61 -5.12,60.61 -4.9,12.06 -15.9,23.47 -26.48,9.43 -14.08,-18.7 -11.11,-56.76 -6.56,-78.77 1.39,-6.75 6.53,-13.57 11.65,-17.61 z"
         id="path184" />
      <path
         fill="#14aba1"
         d="m 1793.87,1202.36 c -4.9,12.06 -15.9,23.47 -26.48,9.43 -14.08,-18.7 -11.11,-56.76 -6.56,-78.77 1.39,-6.75 6.53,-13.57 11.65,-17.61 -1.61,8.22 -4.82,16.66 -5.92,24.72 -2.66,19.55 -12.51,85.62 27.31,62.23 z"
         id="path185" />
      <path
         fill="#59e0d2"
         d="m 1773.34,1114.73 c 19.65,-4.58 25.43,10.12 25.65,27.02 -5.53,-1.02 -5.56,-7.44 -9.03,-11.43 -6.47,-7.42 -12.71,-6.14 -16.62,-15.59 z"
         id="path186" />
    </g>
    <path
       fill="#1bc1b5"
       d="m 1889.1,1643.03 c 11.73,-37.28 40.75,-65.15 82.07,-55.55 49.67,16.51 23.97,85.39 11.94,120.07 -8.35,24.1 -20.51,49.39 -40.4,66.08 -2.29,1.96 -4.69,3.79 -7.2,5.46 -16.5,10.95 -43.98,14.54 -54.85,-5.46 -16.98,-31.26 -7.08,-76.21 0.78,-108.93 2.47,-7.61 4.76,-14.21 7.66,-21.67 z"
       id="path187" />
    <path
       fill="#0f8f88"
       d="m 1942.71,1773.63 c -2.29,1.96 -4.69,3.79 -7.2,5.46 -16.5,10.95 -43.98,14.54 -54.85,-5.46 -16.98,-31.26 -7.08,-76.21 0.78,-108.93 11.85,22.32 -23.62,94.62 20.9,107.63 14.48,4.23 25.87,2.53 40.37,1.3 z"
       id="path188" />
    <path
       fill="#59e0d2"
       d="m 1889.1,1643.03 c 11.73,-37.28 40.75,-65.15 82.07,-55.55 -4.29,3.78 -21.43,6.22 -28.55,8.61 -6.92,2.35 -13.42,5.79 -19.25,10.21 -13.25,10 -28.11,35.97 -31.87,37.78 z"
       id="path189" />
    <path
       fill="#edecec"
       d="m 1770.78,1381.5 c 26.11,3.86 52.64,3.79 78.73,-0.21 7.46,-1.13 36.41,-8.68 40.2,-4.4 l -0.98,2.25 c -5.74,12.04 -11.53,9.17 -20.9,19.72 1.17,12.2 -0.4,15.45 5.82,26.27 l -0.63,1.09 c -2.71,0.67 -6.91,1.58 -9.42,2.45 -7.26,2.88 -9.15,3.72 -14.18,9.58 -0.41,6.74 -1.82,20.33 2.68,25.89 1.83,2.27 2.24,1.48 4.2,5.08 -0.99,2.53 -4.7,3.62 -7.76,5.17 -2.08,1.89 -3.74,3.12 -5.37,5.37 -0.6,35.47 3.26,19.32 22.81,35.21 0.49,5.86 -11.79,10.59 -16.57,11.98 -10.62,2.45 -26.18,5.68 -37.24,5.17 -16.37,2.72 -44.84,0 -57.8,-11.28 -10.21,-8.67 -11.62,-23.72 -12.58,-36.46 -2.43,-32.26 -5.91,-64.87 -7.92,-97.16 -0.56,-4.71 -1.29,-4.6 0.3,-8.35 8.5,-5.44 26.16,0.49 36.61,2.63 z"
       id="path193" />
    <path
       fill="#c8c7c7"
       d="m 1770.78,1381.5 c 26.11,3.86 52.64,3.79 78.73,-0.21 7.46,-1.13 36.41,-8.68 40.2,-4.4 l -0.98,2.25 c -3.96,-1.28 -23.89,6.43 -29.43,8.21 -28.95,9.34 -59.86,6.36 -89.75,4.53 -0.01,25.75 -1.65,113.12 16.02,131.2 7.3,7.47 16.7,8.73 26.6,9.04 -16.37,2.72 -44.84,0 -57.8,-11.28 -10.21,-8.67 -11.62,-23.72 -12.58,-36.46 -2.43,-32.26 -5.91,-64.87 -7.92,-97.16 -0.56,-4.71 -1.29,-4.6 0.3,-8.35 8.5,-5.44 26.16,0.49 36.61,2.63 z"
       id="path194" />
    <path
       fill="#b8b7b7"
       d="m 1733.87,1387.22 c -0.56,-4.71 -1.29,-4.6 0.3,-8.35 8.5,-5.44 26.16,0.49 36.61,2.63 -0.48,3.36 -0.43,6.46 -2.32,8.93 -9.88,2.63 -30.12,-10.7 -34,-10.34 z"
       id="path195" />
    <path
       fill="#c8c7c7"
       d="m 1849.41,1526.95 c 1.41,-2.6 2.05,-3.31 2.46,-6.24 -7.89,-4.82 -18.37,-12.32 -17.69,-23.19 0.36,-5.77 4.69,-13.86 8.99,-17.76 -0.6,35.47 3.26,19.32 22.81,35.21 0.49,5.86 -11.79,10.59 -16.57,11.98 z"
       id="path196" />
    <path
       fill="#b8b7b7"
       d="m 1849.42,1438.25 c -0.41,6.74 -1.82,20.33 2.68,25.89 1.83,2.27 2.24,1.48 4.2,5.08 -0.99,2.53 -4.7,3.62 -7.76,5.17 -12.92,-12.49 -8.17,-23.13 0.88,-36.14 z"
       id="path197" />
    <path
       fill="#b8b7b7"
       d="m 1863.6,1428.67 c -5.04,-12.89 -2.98,-18.81 4.23,-29.81 1.17,12.2 -0.4,15.45 5.82,26.27 l -0.63,1.09 c -2.71,0.67 -6.91,1.58 -9.42,2.45 z"
       id="path198" />
    <path
       fill="#c8c7c7"
       d="m 1537.52,1339.39 c 25.38,-9.55 47.32,-13.93 74.47,-13.02 3.72,9.84 4.54,11.51 12.49,18.42 29.04,18.65 67.51,18.44 96.28,-0.71 -0.09,4.61 -0.46,10.48 0.38,14.9 0.52,2.62 1.03,5.97 1.89,8.42 l 3.35,2.15 c 5.23,5.01 4.8,25.14 5.31,33.93 -6.41,-1.68 -9.21,-2.38 -15.86,-3.13 l -6.93,-0.28 c -32.11,-0.09 -70.74,-4.39 -83.73,32.93 -13.92,22.79 -12.03,58.38 1.67,80.84 -14.41,0.3 -25.95,-10.57 -35.3,-20.08 -4.94,-0.7 -8.33,-3.12 -12.75,-5.59 2.21,9.21 4.47,16.58 7.34,25.54 l -6.82,-4.2 c -12.95,-7.08 -27.09,-15.84 -39.72,-23.56 4.48,-26.89 14.48,-53.39 18.43,-80.46 1.07,-7.31 1.91,-14.67 4.14,-21.73 -0.77,-13.96 -1.87,-18.73 -8.86,-30.84 -5.19,-6.45 -9.09,-9.2 -15.78,-13.53 z"
       id="path199" />
    <path
       fill="#9d9c9c"
       d="m 1537.52,1339.39 c 25.38,-9.55 47.32,-13.93 74.47,-13.02 3.72,9.84 4.54,11.51 12.49,18.42 -3.83,0.48 -7.75,1.07 -11.59,1.26 3.72,8.15 14.74,9.67 22.54,16.56 -24.82,2.47 -39.43,4.79 -65.1,5.59 2.75,15.94 4.45,27.06 5.69,43.79 1.64,22.12 0.03,47.15 5.54,68.61 0.74,2.87 7.65,10.48 9.98,13.16 -4.94,-0.7 -8.33,-3.12 -12.75,-5.59 2.21,9.21 4.47,16.58 7.34,25.54 l -6.82,-4.2 c -12.95,-7.08 -27.09,-15.84 -39.72,-23.56 4.48,-26.89 14.48,-53.39 18.43,-80.46 1.07,-7.31 1.91,-14.67 4.14,-21.73 -0.77,-13.96 -1.87,-18.73 -8.86,-30.84 -5.19,-6.45 -9.09,-9.2 -15.78,-13.53 z"
       id="path200" />
    <path
       fill="#777676"
       d="m 1537.52,1339.39 c 25.38,-9.55 47.32,-13.93 74.47,-13.02 3.72,9.84 4.54,11.51 12.49,18.42 -3.83,0.48 -7.75,1.07 -11.59,1.26 -12.94,-0.58 -50.25,-2.02 -59.59,6.87 -5.19,-6.45 -9.09,-9.2 -15.78,-13.53 z"
       id="path201" />
    <path
       fill="#777676"
       d="m 1562.16,1383.76 c 5.69,28.92 -12.41,69.19 -0.11,101.14 4.75,12.32 14.29,16.92 17.26,24.61 -12.95,-7.08 -27.09,-15.84 -39.72,-23.56 4.48,-26.89 14.48,-53.39 18.43,-80.46 1.07,-7.31 1.91,-14.67 4.14,-21.73 z"
       id="path202" />
    <path
       fill="#8c8b8b"
       d="m 1624.48,1344.79 c 29.04,18.65 67.51,18.44 96.28,-0.71 -0.09,4.61 -0.46,10.48 0.38,14.9 -29.73,8.47 -55.58,17.99 -85.71,3.63 -7.8,-6.89 -18.82,-8.41 -22.54,-16.56 3.84,-0.19 7.76,-0.78 11.59,-1.26 z"
       id="path203" />
    <path
       fill="#b8b7b7"
       d="m 1723.03,1367.4 3.35,2.15 c 5.23,5.01 4.8,25.14 5.31,33.93 -6.41,-1.68 -9.21,-2.38 -15.86,-3.13 l -6.93,-0.28 c -3.13,-14.2 5.93,-22.6 14.13,-32.67 z"
       id="path204" />
    <path
       fill="#777676"
       d="m 1726.38,1369.55 c 5.23,5.01 4.8,25.14 5.31,33.93 -6.41,-1.68 -9.21,-2.38 -15.86,-3.13 2.57,-0.24 3.04,-0.38 5.54,-1.09 1.72,-9.86 3.68,-19.8 5.01,-29.71 z"
       id="path205" />
    <path
       fill="#26dacb"
       d="m 1697.05,927.034 c 30.37,-1.298 72.56,-1.419 90,28.379 -2.26,1.623 -7.96,5.935 -10.4,6.191 -19.17,2.015 -41.43,2.624 -60.67,2.961 -19.86,0.347 -61.11,5.87 -78.68,2.768 -1.68,-0.289 -3.33,-0.65 -4.98,-1.083 -21.68,-20.372 -24.47,-14.511 -47.15,-26.649 10.93,-6.252 18.74,-7.274 31.08,-9.101 13.84,-2.163 26.17,-3.524 40.27,-3.753 0.54,7.053 0.22,10.472 4.39,16.241 23.88,1.32 25.69,8.726 36.14,-15.954 z"
       id="path207" />
    <path
       fill="#14aba1"
       d="m 1616.25,930.5 c 13.84,-2.163 26.17,-3.524 40.27,-3.753 0.54,7.053 0.22,10.472 4.39,16.241 -10.53,-0.407 -23.69,-4.55 -33.36,-8.228 -4.75,-1.809 -5.99,-3.637 -11.3,-4.26 z"
       id="path208" />
    <path
       fill="#59e0d2"
       d="m 1787.05,955.413 c 10.04,17.684 11.65,24.208 10.94,44.302 -7.29,-3.926 -6.1,-10.58 -9.28,-17.341 -1.28,-2.725 -3.3,-4.485 -6.2,-5.429 -16.63,-5.412 -115.62,-2.428 -130.43,5.402 -3.38,1.79 -4.71,4.446 -5.64,7.936 -0.44,1.655 -0.82,3.129 -1.58,4.675 -0.22,0.449 -0.45,0.893 -0.67,1.339 -2.78,-11.086 -5.33,-20.624 -11.87,-30.047 1.65,0.433 3.3,0.794 4.98,1.083 17.57,3.102 58.82,-2.421 78.68,-2.768 19.24,-0.337 41.5,-0.946 60.67,-2.961 2.44,-0.256 8.14,-4.568 10.4,-6.191 z"
       id="path210" />
    <path
       fill="#b8b7b7"
       d="m 1625.17,1433 c -2.78,54.65 -5.8,89.9 63.26,82.25 11.67,-1.29 23.02,-0.23 35.1,-2.96 l 4.14,-0.9 c 4.02,-1.62 6.1,-2 10.39,-2.95 7.97,3.98 7.92,10.67 14.42,15.84 7.34,5.83 20.81,4.52 26.35,11.95 0.8,9.43 -24.21,17.19 -31.33,18.19 -9.15,5.34 -12.59,7.91 -19.63,15.87 -17.81,19.73 -21.34,38.81 -26.37,63.77 2.34,7.6 1.37,16.13 3.06,24.65 3.2,10.62 4.18,15.56 11.18,24.25 -37.73,-4.19 -48.88,-4.74 -87.01,4.68 13.21,-20.32 14.44,-27.22 14.69,-51.44 2.31,-2.34 4.46,-4.8 6.66,-7.25 7.07,-12.29 8.81,-19.36 7.15,-34.04 -4.32,-38.14 -41.67,-59.52 -71.1,-81.2 -2.87,-8.96 -5.13,-16.33 -7.34,-25.54 4.42,2.47 7.81,4.89 12.75,5.59 9.35,9.51 20.89,20.38 35.3,20.08 -13.7,-22.46 -15.59,-58.05 -1.67,-80.84 z"
       id="path211" />
    <path
       fill="#9d9c9c"
       d="m 1625.17,1433 c -2.78,54.65 -5.8,89.9 63.26,82.25 11.67,-1.29 23.02,-0.23 35.1,-2.96 l 4.14,-0.9 c 4.02,-1.62 6.1,-2 10.39,-2.95 7.97,3.98 7.92,10.67 14.42,15.84 7.34,5.83 20.81,4.52 26.35,11.95 0.8,9.43 -24.21,17.19 -31.33,18.19 -9.15,5.34 -12.59,7.91 -19.63,15.87 -6.48,-17.54 -7.76,-27.75 -10.22,-46.19 -32.63,4.62 -61.09,4.15 -91.74,-7.81 l 1.83,-1.27 -0.9,-1.18 c -13.7,-22.46 -15.59,-58.05 -1.67,-80.84 z"
       id="path212" />
    <path
       fill="#777676"
       d="m 1727.67,1511.39 c 4.02,-1.62 6.1,-2 10.39,-2.95 7.97,3.98 7.92,10.67 14.42,15.84 7.34,5.83 20.81,4.52 26.35,11.95 0.8,9.43 -24.21,17.19 -31.33,18.19 -12.92,-18.64 -14.9,-20.22 -19.83,-43.03 z"
       id="path213" />
    <path
       fill="#777676"
       d="m 1650.08,1628.95 c 0.18,10.75 -0.21,16.69 -2.72,27.24 13.63,3.68 31.66,6.7 44.75,-1.56 7.32,-4.62 7.9,-12.66 9.39,-20.57 2.34,7.6 1.37,16.13 3.06,24.65 3.2,10.62 4.18,15.56 11.18,24.25 -37.73,-4.19 -48.88,-4.74 -87.01,4.68 13.21,-20.32 14.44,-27.22 14.69,-51.44 2.31,-2.34 4.46,-4.8 6.66,-7.25 z"
       id="path214" />
    <path
       fill="#9d9c9c"
       d="m 1647.36,1656.19 c 13.63,3.68 31.66,6.7 44.75,-1.56 7.32,-4.62 7.9,-12.66 9.39,-20.57 2.34,7.6 1.37,16.13 3.06,24.65 -3.29,16.64 -48.89,15.35 -57.28,7.76 -1.01,-3.94 -0.41,-6.15 0.08,-10.28 z"
       id="path215" />
    <path
       fill="#c8c7c7"
       d="m 1752.46,1574.91 c 27.59,-28.58 52.15,-21.98 86.06,-11.71 7,2.74 12.84,5.04 19.59,8.32 -2.91,6.98 -2.51,8.63 -9.95,11.53 -22.73,10.84 -40.04,43.37 -45.9,66.78 -0.44,4.32 -0.92,8.63 -1.44,12.94 -3.99,30.39 -2.2,43.28 8.15,72.88 -8.84,-5.01 -18.07,-10.26 -26.9,-15.23 -34.6,-19.5 -55.6,-28.18 -58.88,-71.33 0.12,-14.73 2.75,-23.92 7.06,-37.92 6.76,-16.41 10.73,-22.91 22.21,-36.26 z"
       id="path216" />
    <path
       fill="#9d9c9c"
       d="m 1730.25,1611.17 c 16.3,16.96 31.24,29.8 52.77,39.78 4.58,2.12 9.63,5.42 14.82,5.51 1.98,-2.53 2.81,-3.93 4.42,-6.63 -0.44,4.32 -0.92,8.63 -1.44,12.94 -3.99,30.39 -2.2,43.28 8.15,72.88 -8.84,-5.01 -18.07,-10.26 -26.9,-15.23 -34.6,-19.5 -55.6,-28.18 -58.88,-71.33 0.12,-14.73 2.75,-23.92 7.06,-37.92 z"
       id="path217" />
    <path
       fill="#8c8b8b"
       d="m 1723.19,1649.09 c 1.92,3.57 4.71,4.51 7.77,7.53 19.23,18.99 41.89,29.52 63.92,43.4 0.2,-13.93 -1.47,-25.81 5.94,-37.25 -3.99,30.39 -2.2,43.28 8.15,72.88 -8.84,-5.01 -18.07,-10.26 -26.9,-15.23 -34.6,-19.5 -55.6,-28.18 -58.88,-71.33 z"
       id="path218" />
    <path
       fill="#9d9c9c"
       d="m 1752.46,1574.91 c 27.59,-28.58 52.15,-21.98 86.06,-11.71 -5.34,2.26 -9.87,3.41 -15.41,4.93 -23.06,6.78 -48.37,19.39 -70.65,6.78 z"
       id="path219" />
    <path
       fill="#edecec"
       d="m 1838.52,1563.2 c 7,2.74 12.84,5.04 19.59,8.32 -2.91,6.98 -2.51,8.63 -9.95,11.53 -7.06,-3.33 -21.93,-7.96 -25.05,-14.92 5.54,-1.52 10.07,-2.67 15.41,-4.93 z"
       id="path220" />
    <path
       fill="#edecec"
       d="m 1545.78,1360.42 7.22,3.49 c 7.31,32.21 -2.43,65.59 -11.23,96.55 -1.19,4.16 -4.77,17.28 -7.18,20.11 l -1.69,-1.77 c -0.9,-4.37 -2.92,-6.42 -5.59,-10 0.92,-5.25 6.42,-21.07 8.34,-27.28 9.65,-31.21 13.73,-49.24 10.13,-81.1 z"
       id="path223" />
    <path
       fill="#26dacb"
       d="m 1725.79,1404.99 c 2.37,1.18 5.31,2.51 5.86,5.12 4.41,20.59 3.64,51.17 6.84,71.2 1.06,7.75 1.92,15.3 3.13,23.06 -6.18,2.86 -7.44,3.34 -14.2,4.89 -5.22,0.33 -10.54,0.62 -15.75,1.01 -12.01,2.14 -46.1,2.63 -57.51,0.34 -34.72,-6.98 -28.62,-61.26 -21.43,-85.91 11.13,-21.32 53.88,-19.82 75.3,-19.7 0.79,2.91 1.37,5.49 2.51,8.27 0.24,1.42 0.37,3.41 1,4.5 l 0.54,-2.1 c 2.82,-1.11 7.07,0.1 10.29,0.67 1.04,-5.05 1.48,-6.58 3.42,-11.35 z"
       id="path224" />
    <path
       fill="#14aba1"
       d="m 1725.79,1404.99 c 2.37,1.18 5.31,2.51 5.86,5.12 4.41,20.59 3.64,51.17 6.84,71.2 1.06,7.75 1.92,15.3 3.13,23.06 -6.18,2.86 -7.44,3.34 -14.2,4.89 -5.22,0.33 -10.54,0.62 -15.75,1.01 -12.01,2.14 -46.1,2.63 -57.51,0.34 -34.72,-6.98 -28.62,-61.26 -21.43,-85.91 0.57,3.42 1.29,7.15 1.54,10.57 -0.86,13.07 0.4,47.21 8.63,57.27 8.21,10.03 56.05,10.78 65.92,3.11 6.92,-11.5 3.99,-62.4 2.72,-77.88 l 0.54,-2.1 c 2.82,-1.11 7.07,0.1 10.29,0.67 1.04,-5.05 1.48,-6.58 3.42,-11.35 z"
       id="path225" />
    <path
       fill="#0f8f88"
       d="m 1725.79,1404.99 c 2.37,1.18 5.31,2.51 5.86,5.12 4.41,20.59 3.64,51.17 6.84,71.2 1.06,7.75 1.92,15.3 3.13,23.06 -6.18,2.86 -7.44,3.34 -14.2,4.89 -0.53,-3.78 -0.58,-10.16 -0.73,-14.17 l -0.67,0.14 c -1.99,-17.63 -5.56,-63.11 -3.65,-78.89 1.04,-5.05 1.48,-6.58 3.42,-11.35 z"
       id="path226" />
    <path
       fill="#135753"
       d="m 1738.49,1481.31 c 1.06,7.75 1.92,15.3 3.13,23.06 -6.18,2.86 -7.44,3.34 -14.2,4.89 -0.53,-3.78 -0.58,-10.16 -0.73,-14.17 5.54,-4.14 11.25,-6.67 11.8,-13.78 z"
       id="path227" />
    <path
       fill="#0d7771"
       d="m 1726.02,1495.23 0.67,-0.14 c 0.15,4.01 0.2,10.39 0.73,14.17 -5.22,0.33 -10.54,0.62 -15.75,1.01 0.51,-3.44 1.41,-7.59 2.07,-11.08 4.05,-0.9 9.28,-1.5 12.28,-3.96 z"
       id="path228" />
    <path
       fill="#59e0d2"
       d="m 1632.73,1424.7 c 11.13,-21.32 53.88,-19.82 75.3,-19.7 0.79,2.91 1.37,5.49 2.51,8.27 l -1.69,0.24 c -16.89,2.29 -35.89,0.54 -53.53,7.39 -6.72,2.61 -16.4,13.52 -21.05,14.37 -0.25,-3.42 -0.97,-7.15 -1.54,-10.57 z"
       id="path229" />
    <path
       fill="#c8c7c7"
       d="m 1461.17,1511.01 c 33.35,-47.54 72.69,-25.87 110.79,1.07 -31.36,0.52 -52.12,16.61 -62.08,46.28 -1.22,5.22 -2.04,8.94 -2.77,14.33 -0.73,8.88 1.58,20.85 4.47,29.31 -14.35,-8.1 -47.49,-32.54 -57.13,-45.37 -2.08,-11.71 -2.11,-17 -1.14,-28.86 2.79,-7.39 3.87,-10.01 7.86,-16.76 z"
       id="path230" />
    <path
       fill="#9d9c9c"
       d="m 1461.17,1511.01 c 16.69,23.82 27.83,28.7 48.71,47.35 -1.22,5.22 -2.04,8.94 -2.77,14.33 -0.73,8.88 1.58,20.85 4.47,29.31 -14.35,-8.1 -47.49,-32.54 -57.13,-45.37 -2.08,-11.71 -2.11,-17 -1.14,-28.86 2.79,-7.39 3.87,-10.01 7.86,-16.76 z"
       id="path231" />
    <path
       fill="#777676"
       d="m 1453.31,1527.77 c 1.25,20.14 43.28,55.49 53.8,44.92 -0.73,8.88 1.58,20.85 4.47,29.31 -14.35,-8.1 -47.49,-32.54 -57.13,-45.37 -2.08,-11.71 -2.11,-17 -1.14,-28.86 z"
       id="path232" />
    <path
       fill="#777676"
       d="m 1812.06,1640.92 c 5.98,-22.18 20.26,-42.84 40.7,-53.86 -13.51,27.89 -16.8,46.62 2.09,73.51 l -4.65,24.29 c -1.61,11.66 -3.5,29.72 -3,41.52 1.41,19.09 4.22,29.27 8.74,48.08 -42.42,-25.22 -58.06,-55.54 -50.14,-104.99 0.71,-8.7 3.98,-19.9 6.26,-28.55 z"
       id="path233" />
    <path
       fill="#c8c7c7"
       d="m 1812.06,1640.92 c 5.98,-22.18 20.26,-42.84 40.7,-53.86 -13.51,27.89 -16.8,46.62 2.09,73.51 l -4.65,24.29 c -30.25,16.92 -40.99,-22.02 -38.14,-43.94 z"
       id="path234" />
    <path
       fill="#9d9c9c"
       d="m 1812.06,1640.92 c -2.85,21.92 7.89,60.86 38.14,43.94 -1.61,11.66 -3.5,29.72 -3,41.52 -29.01,-0.23 -39.97,-32.81 -41.4,-56.91 0.71,-8.7 3.98,-19.9 6.26,-28.55 z"
       id="path235" />
    <path
       fill="url(#Gradient3)"
       d="m 1482.8,1586.96 c 28.62,23.13 48.57,53.95 49.24,91.99 5.37,26.51 -3.82,59.45 -18.3,82.04 -7.61,11.59 -20.31,21.09 -32.84,26.78 4.78,-14.73 8.21,-24.73 10.91,-40.03 1.98,-36.78 0.44,-47.98 -7.78,-83.86 15.42,-18.13 15.09,-33.24 10.34,-55.13 -4.2,-7.21 -7.31,-14.76 -11.57,-21.79 z"
       id="path236"
       style="fill:url(#Gradient3)" />
    <path
       fill="#edecec"
       d="m 1482.8,1586.96 c 28.62,23.13 48.57,53.95 49.24,91.99 -0.24,3.33 -0.1,6.76 -0.04,10.11 l -9.1,11.29 c -0.29,-23.25 -7.88,-77.49 -28.53,-91.6 -4.2,-7.21 -7.31,-14.76 -11.57,-21.79 z"
       id="path237" />
    <path
       fill="#8c8b8b"
       d="m 1491.81,1747.74 c 7.14,17.07 10.42,7.77 21.93,13.25 -7.61,11.59 -20.31,21.09 -32.84,26.78 4.78,-14.73 8.21,-24.73 10.91,-40.03 z"
       id="path238" />
    <path
       fill="#c8c7c7"
       d="m 1452.59,1088.45 c 26.06,-20.02 49.11,-13.48 58.12,18.02 7.89,27.58 7.42,71.71 2.06,99.7 -1.58,13.73 -3.57,24.24 -13.6,34.58 -13.9,12.81 -30.13,7.42 -42.95,-3.59 13.6,-4.17 14.93,-5.36 22.34,-17.46 3.1,-8.07 4.54,-15.68 6.37,-24.07 3.59,-27.93 7.7,-80.23 -17.58,-101.83 -4.12,-3.52 -9.5,-4.34 -14.76,-5.35 z"
       id="path239" />
    <path
       fill="#8c8b8b"
       d="m 1478.56,1219.7 c 3.1,-8.07 4.54,-15.68 6.37,-24.07 0.1,24.01 12.03,28.54 27.84,10.54 -1.58,13.73 -3.57,24.24 -13.6,34.58 -13.9,12.81 -30.13,7.42 -42.95,-3.59 13.6,-4.17 14.93,-5.36 22.34,-17.46 z"
       id="path240" />
    <path
       fill="#777676"
       d="m 1456.22,1237.16 c 13.6,-4.17 14.93,-5.36 22.34,-17.46 1.81,13.86 5.65,19.14 20.61,21.05 -13.9,12.81 -30.13,7.42 -42.95,-3.59 z"
       id="path241" />
    <path
       fill="url(#Gradient2)"
       d="m 1894.6,1082.45 c 0.18,-3.79 0.46,-7.57 0.85,-11.35 5.56,-5.02 14.66,0.11 18.66,5.23 3.54,6.12 4.32,7.71 6.57,14.46 10.76,30.6 5.46,91.11 -1.74,122.83 -2.86,7.39 -6.25,13.24 -14.18,15.96 -3.89,1.33 -8.33,3.73 -12.42,2.04 -0.86,-4.43 0.2,-20.39 0.31,-26.16 0.52,-28.27 1.22,-56.72 2.14,-84.97 0.3,-9.29 -1.56,-30.35 -0.19,-38.04 z"
       id="path242"
       style="fill:url(#Gradient2)" />
    <path
       fill="#777676"
       d="m 1894.6,1082.45 c 15.37,18.4 3.8,106.35 4.39,133.73 8,-0.19 12.01,-0.29 19.95,-2.56 -2.86,7.39 -6.25,13.24 -14.18,15.96 -3.89,1.33 -8.33,3.73 -12.42,2.04 -0.86,-4.43 0.2,-20.39 0.31,-26.16 0.52,-28.27 1.22,-56.72 2.14,-84.97 0.3,-9.29 -1.56,-30.35 -0.19,-38.04 z"
       id="path243" />
    <path
       fill="#c8c7c7"
       d="m 1914.11,1076.33 c 3.54,6.12 4.32,7.71 6.57,14.46 -1.61,0.84 -3.18,1.72 -4.72,2.69 -4.27,-1.17 -7.27,-1.55 -9.19,-5.71 1.35,-5.25 3.58,-5.24 6.46,-9.96 z"
       id="path244" />
    <path
       fill="#edecec"
       d="m 1816.32,1317.02 c 14.01,-0.24 72.86,-1.3 74.29,18.73 -13.18,28.1 -201.57,21.13 -149.18,-8.98 17.96,-6.67 27.09,-7.85 46.36,-9.26 1.7,8.61 -2.11,14.69 0.47,19.24 7.88,2.38 25.87,5.08 31.4,-2.5 0.96,-3.88 -2.12,-12.58 -3.34,-17.23 z"
       id="path247" />
    <path
       fill="#b8b7b7"
       d="m 1787.79,1317.51 c 1.7,8.61 -2.11,14.69 0.47,19.24 -16.79,0.29 -34.96,3.66 -46.83,-9.98 17.96,-6.67 27.09,-7.85 46.36,-9.26 z"
       id="path248" />
    <path
       fill="#9d9c9c"
       d="m 1540.88,1625.77 c 9.8,5.95 22,11.96 32.45,16.96 0.44,11.78 3.01,16.52 12.83,22.9 8.64,-3.33 15.29,-5.12 23.08,-10.17 3.99,0.01 8.11,-0.57 11.19,1.69 0.64,2.51 0.59,2.02 0.76,4.65 -0.39,7.58 -1.24,11.09 -4.29,18.27 -13.1,27.01 -47.84,45.17 -73.33,60.34 4.9,-10.04 8.9,-18.81 12.04,-29.61 1.81,-9.18 1.71,-17.73 1.78,-27.04 -0.7,-7.97 -2.58,-17 -4.04,-24.96 -1,-4.6 -2.6,-9.36 -4,-13.88 -3.67,-7.08 -5.7,-11.6 -8.47,-19.15 z"
       id="path249" />
    <path
       fill="#777676"
       d="m 1586.84,1691.49 c 14.17,0.6 18.06,-4.55 30.06,-11.42 -13.1,27.01 -47.84,45.17 -73.33,60.34 4.9,-10.04 8.9,-18.81 12.04,-29.61 11.36,-1.81 21.47,-12.42 31.23,-19.31 z"
       id="path250" />
    <path
       fill="#777676"
       d="m 1540.88,1625.77 c 9.8,5.95 22,11.96 32.45,16.96 0.44,11.78 3.01,16.52 12.83,22.9 8.64,-3.33 15.29,-5.12 23.08,-10.17 3.99,0.01 8.11,-0.57 11.19,1.69 0.64,2.51 0.59,2.02 0.76,4.65 -8.58,2.42 -25.54,13.86 -34.14,11.74 -16.99,-4.18 -16.54,-26.34 -37.7,-28.62 -3.67,-7.08 -5.7,-11.6 -8.47,-19.15 z"
       id="path251" />
    <path
       fill="#b8b7b7"
       d="m 1553.35,1658.8 1.02,-2.23 c 8.29,-0.07 18.68,15.25 23.03,21.92 -5.8,2.89 -11.16,6.01 -17.44,7.35 -2.29,-0.98 -1.5,-0.2 -2.57,-2.08 -0.7,-7.97 -2.58,-17 -4.04,-24.96 z"
       id="path252" />
    <path
       fill="#c8c7c7"
       d="m 1540.16,1568.04 c 21.03,-34.52 49.51,-55.09 83,-18.93 -6.27,1.25 -12.7,3.51 -18.82,5.46 -16.07,8.78 -23.31,13.19 -34.79,27.45 -6.44,9.81 -9.94,15.93 -11.58,28.05 -0.97,10.43 -0.61,13.09 2.14,22.74 -20.35,-11.05 -28.09,-17.25 -27.24,-41.63 0.4,-9.33 3.18,-15.15 7.29,-23.14 z"
       id="path253" />
    <path
       fill="#9d9c9c"
       d="m 1540.16,1568.04 c 6.76,10.2 9.83,14.09 19.11,21.95 2.27,-3.24 7.94,-11.69 10.38,-14.28 l -0.1,6.31 c -6.44,9.81 -9.94,15.93 -11.58,28.05 -0.97,10.43 -0.61,13.09 2.14,22.74 -20.35,-11.05 -28.09,-17.25 -27.24,-41.63 0.4,-9.33 3.18,-15.15 7.29,-23.14 z"
       id="path254" />
    <path
       fill="#777676"
       d="m 1532.87,1591.18 c 9.2,11.18 11.27,13 25.1,18.89 -0.97,10.43 -0.61,13.09 2.14,22.74 -20.35,-11.05 -28.09,-17.25 -27.24,-41.63 z"
       id="path255" />
    <path
       fill="#8c8b8b"
       d="m 1569.65,1575.71 c 6.92,-8.82 22.43,-26.43 34.69,-21.14 -16.07,8.78 -23.31,13.19 -34.79,27.45 z"
       id="path256" />
    <path
       fill="#c8c7c7"
       d="m 1583.15,1573.64 c 8.69,-7.58 12.1,-10.15 22.55,-14.97 14.59,14.44 21.49,24.97 27.02,44.88 -5.82,5.46 -17.29,17.67 -25.42,13.02 -1.94,-2.65 -2.46,-5.15 -3.46,-8.28 l -1.39,2.43 c 1.55,3.05 2.7,4.5 2.36,7.88 -3.92,5.22 -8.81,2.86 -15.88,6.05 l -8.16,6 c -0.49,0.66 -0.99,1.3 -1.5,1.93 -7.99,9.72 -14.74,1.52 -16.87,-7.11 -1.27,-5.13 -1.24,-8.87 -1.15,-14.01 1.82,-7.32 2.53,-10.03 5.53,-16.92 4.51,-8.06 8.4,-12.92 14.87,-19.42 z"
       id="path257" />
    <path
       fill="#c8c7c7"
       d="m 1583.15,1573.64 c 8.69,-7.58 12.1,-10.15 22.55,-14.97 14.59,14.44 21.49,24.97 27.02,44.88 -5.82,5.46 -17.29,17.67 -25.42,13.02 -1.94,-2.65 -2.46,-5.15 -3.46,-8.28 -3.57,-13.52 -12.23,-23.92 -20.69,-34.65 z"
       id="path258" />
    <path
       fill="#9d9c9c"
       d="m 1566.78,1594.54 c 5.38,7.38 16.25,24.81 22.15,30.11 l -8.16,6 c -0.49,0.66 -0.99,1.3 -1.5,1.93 -7.99,9.72 -14.74,1.52 -16.87,-7.11 -1.27,-5.13 -1.24,-8.87 -1.15,-14.01 1.82,-7.32 2.53,-10.03 5.53,-16.92 z"
       id="path259" />
    <path
       fill="#777676"
       d="m 1580.77,1630.65 c -0.49,0.66 -0.99,1.3 -1.5,1.93 -7.99,9.72 -14.74,1.52 -16.87,-7.11 -1.27,-5.13 -1.24,-8.87 -1.15,-14.01 6.18,7.48 11.23,13.96 19.52,19.19 z"
       id="path260" />
    <path
       fill="rgb(157,156,156)"
       d="m 1583.15,1573.64 c 8.46,10.73 17.12,21.13 20.69,34.65 l -1.39,2.43 c -3.92,-16.21 -11.85,-21.55 -19.85,-34.08 l -0.95,-1.52 z"
       id="path261"
       style="fill:#252525;fill-opacity:1" />
    <path
       fill="#1bc1b5"
       d="m 1656.89,804.838 c 12.85,-8.41 29.9,-6.217 40.2,5.169 3.09,3.413 5.38,7.467 6.72,11.872 3.12,10.282 0.72,21.445 -6.35,29.541 -6.32,7.251 -15.64,11.174 -25.25,10.63 -9.61,-0.544 -18.42,-5.493 -23.89,-13.411 -8.39,-12.138 -7.11,-28.489 3.04,-39.185 1.66,-1.747 3.52,-3.296 5.53,-4.616 z"
       id="path262" />
    <path
       fill="#14aba1"
       d="m 1651.36,809.454 c 0.26,9.284 0.18,21.329 7.87,27.614 17.72,14.49 36.51,1.709 44.58,-15.189 3.12,10.282 0.72,21.445 -6.35,29.541 -6.32,7.251 -15.64,11.174 -25.25,10.63 -9.61,-0.544 -18.42,-5.493 -23.89,-13.411 -8.39,-12.138 -7.11,-28.489 3.04,-39.185 z"
       id="path263" />
    <path
       fill="#0f8f88"
       d="m 1648.32,848.639 c 9.84,-1.327 36.19,2.504 49.14,2.781 -6.32,7.251 -15.64,11.174 -25.25,10.63 -9.61,-0.544 -18.42,-5.493 -23.89,-13.411 z"
       id="path264" />
    <path
       fill="#59e0d2"
       d="m 1656.89,804.838 c 12.85,-8.41 29.9,-6.217 40.2,5.169 -3.8,4.396 -11.81,8.746 -17.66,5.728 -2.62,-2.842 -2.31,-5.435 -2.66,-9.4 -7.59,1.315 -13.6,3.608 -19.88,-1.497 z"
       id="path265" />
    <path
       fill="#14aba1"
       d="m 1461.46,1192.86 c -1.07,10.24 -6.32,34.63 -21.6,16.83 -12.95,-15.11 -17.63,-102.59 12.49,-95.21 12.6,12.83 13.51,42.74 10.58,59.53 -0.08,6.68 -0.74,12.23 -1.47,18.85 z"
       id="path266" />
    <path
       fill="#0f8f88"
       d="m 1461.46,1192.86 c -1.07,10.24 -6.32,34.63 -21.6,16.83 -12.95,-15.11 -17.63,-102.59 12.49,-95.21 l -1.68,0.88 c -12.32,11.74 -17.9,82.57 4.34,83.29 3.49,-1.37 4.16,-2.83 6.45,-5.79 z"
       id="path267" />
    <path
       fill="#1bc1b5"
       d="m 1452.35,1114.48 c 12.6,12.83 13.51,42.74 10.58,59.53 -3.05,-5.33 -1.64,-21.48 -3.29,-29.94 -2.38,-12.18 -3.02,-17.49 -8.97,-28.71 z"
       id="path268" />
    <path
       fill="rgb(119,118,118)"
       d="m 1617.18,1326.32 c 13.93,-0.77 95.73,-6.85 103.02,-2.54 7.07,13.67 -11.98,22.91 -22.38,25.78 -17.69,4.27 -39.42,3.31 -57.03,-1.31 -11.52,-5.39 -16.27,-6.95 -21.99,-18.61 z"
       id="path269"
       style="fill:#5e368a;fill-opacity:1" />
    <path
       fill="rgb(157,156,156)"
       d="m 1640.79,1348.25 c 1.27,-3.35 2.67,-7.64 6.25,-9.22 1.06,-0.47 59.11,-5.3 62.6,-5.36 -4.09,6.9 -6.57,9.73 -11.82,15.89 -17.69,4.27 -39.42,3.31 -57.03,-1.31 z"
       id="path270"
       style="fill:#8b58c3;fill-opacity:1" />
    <path
       fill="#9d9c9c"
       d="m 1872.16,1623.2 c 3.53,6.85 6.73,8.38 14.19,9.85 -5.08,11.48 -13.45,38.54 -15.3,50.86 -6.12,40.72 -10.62,67.44 12.54,101.92 -12.26,-4.79 -21.06,-9.97 -26.06,-23.04 -13.84,-36.22 -0.15,-105.1 14.63,-139.59 z"
       id="path271" />
    <path
       fill="#c8c7c7"
       d="m 1872.16,1623.2 c 7.44,-15.77 14.78,-26.46 28.08,-37.92 27.91,-24.05 82.96,-30.65 97.51,11.76 0.33,0.97 0.65,1.94 0.96,2.92 -10.67,-12.02 -21.33,-18.94 -37.87,-19.68 -36.1,-1.63 -60.56,22.16 -74.49,52.77 -7.46,-1.47 -10.66,-3 -14.19,-9.85 z"
       id="path272" />
    <path
       fill="#c8c7c7"
       d="m 1669.06,876.071 c 6.8,-3.85 10.98,-4.53 18.42,-5.795 0.59,13.146 7.57,68.219 -6.47,72.265 -6.39,-0.539 -11.77,-0.674 -16.51,-5.557 -9.2,-9.489 -4.98,-41.436 -4.32,-54.902 3.38,-3.224 4.69,-3.721 8.88,-6.011 z"
       id="path273" />
    <path
       fill="#9d9c9c"
       d="m 1669.06,876.071 c -1.12,19.443 -4.61,48.048 8.95,63.34 0.97,1.075 1.97,2.118 3,3.13 -6.39,-0.539 -11.77,-0.674 -16.51,-5.557 -9.2,-9.489 -4.98,-41.436 -4.32,-54.902 3.38,-3.224 4.69,-3.721 8.88,-6.011 z"
       id="path274" />
    <path
       fill="#5e368a"
       d="m 1752.08,1261.17 c 10.91,-7.75 30.18,3.86 40.13,10.39 8.66,6.17 11.14,11.48 13.19,21.8 1.95,7.95 8.99,32.24 6.52,38.69 -1.55,1.1 -2.52,1.81 -4.17,2.78 -1.78,-0.02 -3.55,-0.16 -5.31,-0.41 -16.01,-2.15 -8.74,-31.52 -16.27,-44.12 -8.07,-13.5 -25.8,-9.97 -34.54,-21.05 -1.24,-3.58 -0.64,-4.46 0.45,-8.08 z"
       id="path275" />
    <path
       fill="#a374d5"
       d="m 1793.49,1295.44 c 3.73,-0.51 8.14,-1.41 11.91,-2.08 1.95,7.95 8.99,32.24 6.52,38.69 -1.55,1.1 -2.52,1.81 -4.17,2.78 -9.4,-11.41 -12.13,-25.29 -14.26,-39.39 z"
       id="path276" />
    <path
       fill="#a374d5"
       d="m 1752.08,1261.17 c 10.91,-7.75 30.18,3.86 40.13,10.39 -6.38,3.11 -7.6,3.62 -14.77,5.13 -9.72,-3.76 -19.72,-6.56 -25.36,-15.52 z"
       id="path277" />
    <path
       fill="#8b58c3"
       d="m 1792.21,1271.56 c 8.66,6.17 11.14,11.48 13.19,21.8 -3.77,0.67 -8.18,1.57 -11.91,2.08 -2.81,-8.78 -6.76,-15.86 -16.05,-18.75 7.17,-1.51 8.39,-2.02 14.77,-5.13 z"
       id="path278" />
    <path
       fill="#8b58c3"
       d="m 1840.09,1357.18 c 4.07,-0.33 8.53,-1.13 12.61,-1.75 -0.06,6.19 0.11,15.82 -0.44,21.71 l -5.43,0.35 c -18.38,4.15 -54.33,2.22 -73.76,0.15 -0.23,-4.88 -1.04,-16.1 0.66,-20.1 22.03,2.35 44.33,1.48 66.36,-0.36 z"
       id="path279" />
    <path
       fill="#a374d5"
       d="m 1840.09,1357.18 c 4.07,-0.33 8.53,-1.13 12.61,-1.75 -0.06,6.19 0.11,15.82 -0.44,21.71 l -5.43,0.35 -2.01,-0.76 c -4.15,-4.19 -4.19,-13.58 -4.73,-19.55 z"
       id="path280" />
    <path
       fill="#26dacb"
       d="m 1862.89,1580.89 c 5.5,-7.19 9.93,-10.02 17.24,-15.01 2.87,8.56 5.45,12.36 12.83,17.91 -4.34,4.15 -15.81,18.18 -17.24,19.39 -11.61,20.5 -14.76,29.98 -19.03,52.87 -11.31,-19.67 -12.69,-36.58 -4.16,-57.89 3.69,-7.07 5.85,-10.69 10.36,-17.27 z"
       id="path281" />
    <path
       fill="#0f8f88"
       d="m 1852.53,1598.16 c 2.57,5.22 10.84,24.19 16.59,9.34 2.85,-2.93 2.75,-2.75 6.6,-4.32 -11.61,20.5 -14.76,29.98 -19.03,52.87 -11.31,-19.67 -12.69,-36.58 -4.16,-57.89 z"
       id="path282" />
    <path
       fill="#1bc1b5"
       d="m 1862.89,1580.89 c 4.19,10.72 -0.52,14.62 6.23,26.61 -5.75,14.85 -14.02,-4.12 -16.59,-9.34 3.69,-7.07 5.85,-10.69 10.36,-17.27 z"
       id="path283" />
    <path
       fill="#0d7771"
       d="m 1528.44,1535.84 c 7.53,-8.68 10.68,-10.58 20.6,-15.39 -0.55,12.04 -1.49,7.75 5.16,15.99 1.37,0.06 4.43,-0.62 5.93,-0.9 -4.41,3.86 -8.95,7.72 -13.23,11.71 -14.77,22.33 -23.14,31.78 -17.2,61.16 0.45,2.28 0.95,4.56 1.51,6.82 -17.27,-13.06 -20.94,-25.65 -17.82,-46.82 2.31,-13.79 5.79,-20.33 14.29,-31.32 z"
       id="path284" />
    <path
       fill="#59e0d2"
       d="m 1528.44,1535.84 c 7.53,-8.68 10.68,-10.58 20.6,-15.39 -0.55,12.04 -1.49,7.75 5.16,15.99 1.37,0.06 4.43,-0.62 5.93,-0.9 -4.41,3.86 -8.95,7.72 -13.23,11.71 -5.92,2.83 -8.13,5.78 -12.17,10.94 -5.24,-5.96 -5.55,-13.1 -7.05,-21.1 z"
       id="path285" />
    <path
       fill="#1bc1b5"
       d="m 1554.2,1536.44 c 1.37,0.06 4.43,-0.62 5.93,-0.9 -4.41,3.86 -8.95,7.72 -13.23,11.71 -5.92,2.83 -8.13,5.78 -12.17,10.94 -5.24,-5.96 -5.55,-13.1 -7.05,-21.1 l 0.76,-1.25 c 6.05,9.44 15.76,7.13 24.01,1.79 0.59,-0.38 1.17,-0.78 1.75,-1.19 z"
       id="path286" />
    <path
       fill="#14aba1"
       d="m 1527.68,1537.09 c 1.5,8 1.81,15.14 7.05,21.1 l -0.48,0.98 c -3.4,7.02 -4.16,15.32 -9.89,18.26 -5.44,-0.8 -7.62,-4.7 -10.97,-9.02 2.31,-13.79 5.79,-20.33 14.29,-31.32 z"
       id="path287" />
    <path
       fill="#c8c7c7"
       d="m 1863.69,1432.98 c 11.7,-3.24 22.55,-4.23 30.26,6.61 3.27,6.86 3.41,10.01 1.92,17.58 -15.72,34.19 -66.05,-0.93 -34.4,-23.41 z"
       id="path288" />
    <path
       fill="#8c8b8b"
       d="m 1861.47,1433.76 c -8.56,28.26 12.23,33.47 34.4,23.41 -15.72,34.19 -66.05,-0.93 -34.4,-23.41 z"
       id="path289" />
    <path
       fill="#edecec"
       d="m 1863.69,1432.98 c 11.7,-3.24 22.55,-4.23 30.26,6.61 -9,4.82 -24.42,2.69 -30.26,-6.61 z"
       id="path290" />
    <path
       fill="#59e0d2"
       d="m 1880.13,1565.88 c 35.02,-21.79 73.54,-27.23 104.16,4.6 -34.76,-15.32 -61.68,-9.96 -91.33,13.31 -7.38,-5.55 -9.96,-9.35 -12.83,-17.91 z"
       id="path291" />
    <path
       fill="#1bc1b5"
       d="m 1472.5,1579.84 c 9.51,13.43 24.88,41.35 17.93,58.09 -1.45,8.07 -4.26,13.46 -8.13,20.6 -1.57,-5.94 -3.21,-11.87 -4.92,-17.77 -8.71,-20.84 -10.2,-27.22 -24.61,-44.57 8.32,-6.35 12.27,-8.75 19.73,-16.35 z"
       id="path293" />
    <path
       fill="#c8c7c7"
       d="m 1878.52,1394.39 c 11.6,-7.64 23.95,-8.43 31.54,4.59 0.42,7.14 0.87,10.56 -0.54,17.59 -3.59,5.51 -7.6,9.25 -14.33,10.37 -5.97,1.03 -12.09,-0.52 -16.85,-4.25 -9.52,-7.47 -8.9,-18.31 -1.5,-27.01 z"
       id="path294" />
    <path
       fill="#9d9c9c"
       d="m 1876.84,1395.68 c 0.87,24.48 11.77,23.25 32.68,20.89 -3.59,5.51 -7.6,9.25 -14.33,10.37 -5.97,1.03 -12.09,-0.52 -16.85,-4.25 -9.52,-7.47 -8.9,-18.31 -1.5,-27.01 z"
       id="path295" />
    <path
       fill="#edecec"
       d="m 1878.52,1394.39 c 11.6,-7.64 23.95,-8.43 31.54,4.59 -6.67,2.16 -26.2,-0.03 -31.54,-4.59 z"
       id="path296" />
    <path
       fill="#c8c7c7"
       d="m 1858.65,1474.88 c 7.72,-1.48 17.98,-1.23 24.6,3.42 4.28,7.74 3.41,12.24 0.24,20.31 -15.1,28.6 -53.04,-3.66 -30.38,-21.16 z"
       id="path297" />
    <path
       fill="#9d9c9c"
       d="m 1853.11,1477.45 c -0.99,20.74 11.55,26.15 30.38,21.16 -15.1,28.6 -53.04,-3.66 -30.38,-21.16 z"
       id="path298" />
    <path
       fill="#edecec"
       d="m 1858.65,1474.88 c 7.72,-1.48 17.98,-1.23 24.6,3.42 -6.72,5.54 -19.3,4.2 -24.6,-3.42 z"
       id="path299" />
    <path
       fill="#777676"
       d="m 1931.3,1496.23 c 4.15,-0.09 10,-1.45 14.22,-2.27 -1.55,7.73 -2.94,14.05 -5.94,21.42 -3.05,6.21 -5.75,10.41 -10.2,15.81 -16.48,17.02 -38.22,16.87 -58.3,6.8 17.27,0.31 20.72,-0.24 35.65,-9.57 5.94,-4.66 9.5,-8.85 14.57,-14.42 3.96,-6.04 6.67,-11.37 10,-17.77 z"
       id="path300" />
    <path
       fill="#9d9c9c"
       d="m 1931.3,1496.23 c 4.15,-0.09 10,-1.45 14.22,-2.27 -1.55,7.73 -2.94,14.05 -5.94,21.42 -4.51,1.06 -13.88,0.84 -18.28,-1.38 3.96,-6.04 6.67,-11.37 10,-17.77 z"
       id="path301" />
    <path
       fill="#8c8b8b"
       d="m 1921.3,1514 c 4.4,2.22 13.77,2.44 18.28,1.38 -3.05,6.21 -5.75,10.41 -10.2,15.81 -8.09,-0.27 -14.78,-1.02 -22.65,-2.77 5.94,-4.66 9.5,-8.85 14.57,-14.42 z"
       id="path302" />
    <path
       fill="#1bc1b5"
       d="m 1488.98,1462.59 c 14.06,-0.74 20.77,1.82 31.35,11.01 l 3.46,3.94 -0.42,1.1 c -21.84,0.7 -36.74,-4.71 -56.88,16.36 -8.71,-1.19 -8.67,-8.52 -11.69,-15.56 6.51,-6.33 11.51,-9.63 19.44,-13.7 6.41,-2.11 8.16,-2.35 14.74,-3.15 z"
       id="path303" />
    <path
       fill="#59e0d2"
       d="m 1488.98,1462.59 c 14.06,-0.74 20.77,1.82 31.35,11.01 -9.27,2.27 -21.09,1.37 -30.65,0.92 -1.15,-3.66 -0.76,-8.02 -0.7,-11.93 z"
       id="path304" />
    <path
       fill="#26dacb"
       d="m 1474.24,1465.74 c 6.41,-2.11 8.16,-2.35 14.74,-3.15 -0.06,3.91 -0.45,8.27 0.7,11.93 -8.93,-0.56 -10.43,-1.47 -15.44,-8.78 z"
       id="path305" />
    <path
       fill="#777676"
       d="m 1722.68,1269.87 c 7.54,-1.13 15.65,-0.92 23.33,-0.94 9.03,12.27 14.71,10.4 25.83,16.37 8.53,3.21 9.27,3.03 11.81,11.76 0.53,4.46 1,8.53 1.8,12.95 -12.82,0.48 -24.43,1.52 -37.21,2.71 5.78,-5.64 6.41,-7.35 8.54,-15.2 -4.21,0.2 -8.73,0.52 -12.91,0.42 0.27,-6.87 0.89,-13.94 1.41,-20.81 -3.48,-11.14 -11.82,-6.82 -22.6,-7.26 z"
       id="path306" />
    <path
       fill="#b8b7b7"
       d="m 1745.28,1277.13 c 4.91,7.3 10.62,12.44 11.5,20.39 -4.21,0.2 -8.73,0.52 -12.91,0.42 0.27,-6.87 0.89,-13.94 1.41,-20.81 z"
       id="path307" />
    <path
       fill="#9d9c9c"
       d="m 1771.84,1285.3 c 8.53,3.21 9.27,3.03 11.81,11.76 -5.53,0.16 -10.02,1.51 -13.03,-3.59 0.19,-4.03 0.15,-4.35 1.22,-8.17 z"
       id="path308" />
    <path
       fill="#5e368a"
       d="m 1727.18,1342.16 c 17.41,12.75 26.13,11.75 46.55,15.38 -1.7,4 -0.89,15.22 -0.66,20.1 -11.17,-1.46 -34.27,-3.39 -41.76,-12.1 -6.09,-7.09 -4.53,-14.59 -4.13,-23.38 z"
       id="path309" />
    <path
       fill="#8b58c3"
       d="m 1852.7,1355.43 c 18.58,-2.46 29.22,-4.17 44.49,-15.3 -0.59,9.4 -0.33,18.46 -7.85,25.53 -8.02,7.54 -26.29,9.72 -37.08,11.48 0.55,-5.89 0.38,-15.52 0.44,-21.71 z"
       id="path310" />
    <path
       fill="#af87e1"
       d="m 1454.9,1093.01 c 2.93,0.21 4.3,0.03 7.02,1.03 10.13,6.12 14.61,17.59 17.32,28.61 0.2,0.83 0.4,1.65 0.59,2.48 -2.23,5.5 -8.5,12.17 -14.03,5.69 -0.38,-1.81 -1.97,-6.62 -2.56,-8.6 -2.55,-4.29 -4.23,-6.82 -7.22,-10.81 -2.52,-1.1 -5,-1.9 -7.59,-2.8 -6.59,3.76 -6.68,2.96 -13.59,7.94 4.74,-9.81 6,-14.19 14.54,-21.01 z"
       id="path311" />
    <path
       fill="#a374d5"
       d="m 1449.38,1095.54 5.52,-2.53 2.08,1.69 c 0.22,4.36 0.89,13.11 -0.96,16.71 -2.52,-1.1 -5,-1.9 -7.59,-2.8 -6.59,3.76 -6.68,2.96 -13.59,7.94 4.74,-9.81 6,-14.19 14.54,-21.01 z"
       id="path312" />
    <path
       fill="#5e368a"
       d="m 1449.38,1095.54 c -0.94,4.49 -2.06,8.51 -0.95,13.07 -6.59,3.76 -6.68,2.96 -13.59,7.94 4.74,-9.81 6,-14.19 14.54,-21.01 z"
       id="path313" />
    <path
       fill="#9465cc"
       d="m 1454.9,1093.01 c 2.93,0.21 4.3,0.03 7.02,1.03 -2.77,5.44 1.44,20.03 1.32,28.18 -2.55,-4.29 -4.23,-6.82 -7.22,-10.81 1.85,-3.6 1.18,-12.35 0.96,-16.71 z"
       id="path314" />
    <path
       fill="#1bc1b5"
       d="m 1920.47,1453.07 c 0.41,2.87 0.72,5.14 0.89,8.06 3.95,3.54 7.08,6.2 10.58,10.23 -2.33,19.23 -9.54,34.5 -23.09,48.51 -6.2,-3.75 -7.59,-5.05 -10.14,-11.81 17.91,-17.79 20.97,-30.25 21.76,-54.99 z"
       id="path315" />
    <path
       fill="#9d9c9c"
       d="m 1588.62,1630.36 c 17.61,-9.22 19.99,-0.07 19.64,15.23 l -3.2,7.83 c -4.11,4.86 -8.7,7.41 -15.25,6.19 -3.94,-0.7 -7.38,-3.06 -9.47,-6.47 -2.64,-4.32 -2.5,-7.54 -1.24,-12.15 2.54,-5.08 5.13,-7.25 9.52,-10.63 z"
       id="path316" />
    <path
       fill="#b8b7b7"
       d="m 1588.62,1630.36 c 17.61,-9.22 19.99,-0.07 19.64,15.23 -18.13,0.35 -6.77,-8.89 -19.64,-15.23 z"
       id="path317" />
    <path
       fill="#777676"
       d="m 1579.1,1640.99 c 8.57,8.27 13.5,11.45 25.96,12.43 -4.11,4.86 -8.7,7.41 -15.25,6.19 -3.94,-0.7 -7.38,-3.06 -9.47,-6.47 -2.64,-4.32 -2.5,-7.54 -1.24,-12.15 z"
       id="path318" />
    <path
       fill="#9465cc"
       d="m 1479.83,1125.13 c 0.71,4.94 2.26,14.09 2.24,18.67 1.83,9.73 0.91,28.37 -0.15,38.43 -6.16,0.96 -9.93,-4.75 -13.41,-8.98 0.6,-10.23 0.14,-17.17 -0.6,-27.43 -0.29,-4.19 -1.47,-10.67 -2.11,-15 5.53,6.48 11.8,-0.19 14.03,-5.69 z"
       id="path319" />
    <path
       fill="#a374d5"
       d="m 1479.83,1125.13 c 0.71,4.94 2.26,14.09 2.24,18.67 -0.34,7.05 0.05,15.2 -0.45,21.75 -3.97,-6.59 -8.22,-14.53 -13.71,-19.73 -0.29,-4.19 -1.47,-10.67 -2.11,-15 5.53,6.48 11.8,-0.19 14.03,-5.69 z"
       id="path320" />
    <path
       fill="#c8c7c7"
       d="m 1613.71,1556.44 c 15.66,-1.67 26.87,2.71 32.54,20.1 2.15,6.59 -0.52,11.42 -4.25,16.96 -1.62,1.7 -2.92,2.85 -4.64,4.42 -2.21,-1.48 -4.65,-8.84 -6.09,-11.97 -5.33,-11.61 -10.02,-18.04 -18.37,-27.55 z"
       id="path321" />
    <path
       fill="#9d9c9c"
       d="m 1619.34,1618.74 c 15.76,-13.32 19.12,-2.75 14.15,12.59 -2.76,7.66 -6.75,18.88 -15.98,19.23 -10.65,-6.96 -2.97,-23.41 1.83,-31.82 z"
       id="path322" />
    <path
       fill="#c8c7c7"
       d="m 1619.34,1618.74 c 15.76,-13.32 19.12,-2.75 14.15,12.59 -9.85,4.01 -11.72,-5.69 -14.15,-12.59 z"
       id="path323" />
    <path
       fill="#0d7771"
       d="m 1898.71,1508.06 c 2.55,6.76 3.94,8.06 10.14,11.81 -14.71,14.6 -30.57,17.36 -49.11,8.69 16.54,-9.35 21.88,-6.93 38.97,-20.5 z"
       id="path324" />
    <path
       fill="rgb(116,69,169)"
       d="m 1550.74,1674.86 c 0.24,4.96 1.06,16.56 0.66,20.95 -1.14,7.79 -2.16,14.61 -3.81,22.3 -3.83,1.57 -8.44,3.31 -12.13,5.03 2.26,-13.03 2.83,-20.5 2.74,-33.74 l -0.59,-10.58 c 4.59,-0.9 8.7,-2.46 13.13,-3.96 z"
       id="path325"
       style="fill:#0d7771;fill-opacity:1" />
    <path
       fill="rgb(139,88,195)"
       d="m 1550.74,1674.86 c 0.24,4.96 1.06,16.56 0.66,20.95 -3.7,0.15 -5.89,0.28 -9.54,-0.08 -3.33,-2.41 -2.27,-1.46 -3.66,-6.33 l -0.59,-10.58 c 4.59,-0.9 8.7,-2.46 13.13,-3.96 z"
       id="path326"
       style="fill:#14aba1;fill-opacity:1" />
    <path
       fill="#14aba1"
       d="m 1708.9,1626.03 c 0.88,-11.31 7.16,-26.12 11.59,-36.3 2.54,5.89 3.42,7.78 6.97,13.25 -5.84,14.77 -7.82,24.62 -9.36,40.44 -10.33,-5.67 -9.43,-6.49 -9.2,-17.39 z"
       id="path327" />
    <path
       fill="#1bc1b5"
       d="m 1549.04,1520.45 c 16.3,-4.75 28.14,-6.14 42.9,4.37 -13.58,1.74 -19.74,3.9 -31.81,10.72 -1.5,0.28 -4.56,0.96 -5.93,0.9 -6.65,-8.24 -5.71,-3.95 -5.16,-15.99 z"
       id="path328" />
    <path
       fill="#8b58c3"
       d="m 1468.51,1173.25 c 3.48,4.23 7.25,9.94 13.41,8.98 -1.32,13.18 -2.64,24.63 -8.36,36.82 -6.16,-4.41 -7.48,-8.31 -9.54,-15.4 2.33,-9.18 3.44,-20.83 4.49,-30.4 z"
       id="path329" />
    <path
       fill="#c8c7c7"
       d="m 1909.77,1427.6 c 9.5,9.1 4.35,63.39 -7.68,66.61 -0.23,-8.67 -1,-12.7 -4.68,-20.53 5.06,-4.9 7.73,-8.14 11.73,-13.78 7.47,-10.53 -2.31,-22.53 0.63,-32.3 z"
       id="path332" />
    <path
       fill="#59e0d2"
       d="m 1913.99,1421.55 c 18.06,17.68 19.62,24.32 17.95,49.81 -3.5,-4.03 -6.63,-6.69 -10.58,-10.23 -0.17,-2.92 -0.48,-5.19 -0.89,-8.06 -1.25,-10.85 -3.51,-21.01 -6.48,-31.52 z"
       id="path333" />
    <path
       fill="#5e368a"
       d="m 1464.02,1203.65 c 2.06,7.09 3.38,10.99 9.54,15.4 -10.24,20.78 -21.27,13.97 -32.53,-0.1 15.36,2.01 17.95,-1.32 22.99,-15.3 z"
       id="path334" />
    <path
       fill="rgb(94,54,138)"
       d="m 1517.9,1613.78 c 13.49,10.78 19.85,17.65 25.8,34.37 l 3.16,8.22 c -3.67,-0.02 -9.13,-0.38 -12.45,0.51 l -3.06,-11.15 c -2.65,-8.78 -9.3,-23.38 -13.45,-31.95 z"
       id="path335"
       style="fill:#0d7771;fill-opacity:1" />
    <path
       fill="rgb(148,101,204)"
       d="m 1531.35,1645.73 1.43,-1.16 10.92,3.58 3.16,8.22 c -3.67,-0.02 -9.13,-0.38 -12.45,0.51 z"
       id="path336"
       style="fill:#14aba1;fill-opacity:1" />
    <path
       fill="#b8b7b7"
       d="m 1639.11,1605.73 c 3.41,-4.48 6.84,-8.92 10.32,-13.34 5.84,3.32 1.93,23.84 -0.65,29.32 l -0.72,1.19 c -2.99,5.59 -5.71,8.06 -10.02,12.53 1.06,-7.02 1.11,-11.04 1.21,-18.12 -0.2,-0.81 -0.4,-1.61 -0.59,-2.42 -1.19,-4.97 -1.79,-5.49 0.45,-9.16 z"
       id="path337" />
    <path
       fill="#9d9c9c"
       d="m 1639.11,1605.73 c 2.22,4.1 6.72,13.61 9.67,15.98 l -0.72,1.19 c -2.99,5.59 -5.71,8.06 -10.02,12.53 1.06,-7.02 1.11,-11.04 1.21,-18.12 -0.2,-0.81 -0.4,-1.61 -0.59,-2.42 -1.19,-4.97 -1.79,-5.49 0.45,-9.16 z"
       id="path338" />
    <path
       fill="#8c8b8b"
       d="m 1639.25,1617.31 1.52,3.93 c 3.4,1.1 4.45,0.6 7.29,1.66 -2.99,5.59 -5.71,8.06 -10.02,12.53 1.06,-7.02 1.11,-11.04 1.21,-18.12 z"
       id="path339" />
    <path
       fill="#7445a9"
       d="m 1932.02,1139.69 c 1.89,6.93 4.61,10.81 10.91,14.61 -0.05,10.33 -1.07,18.72 -2.35,28.93 -2.67,-0.76 -5.32,-1.59 -7.95,-2.49 -2.16,-3.21 -1.44,-3.43 -1.74,-7.97 0.09,-10.87 1.12,-21.52 1.13,-33.08 z"
       id="path340" />
    <path
       fill="#af87e1"
       d="m 1923.71,1080.68 c 13.42,14.36 15.98,20.5 18.79,40.04 -0.2,2.37 -0.22,2.78 -0.86,5.05 l -2.3,0.39 c -3.41,-1.4 -5.27,-3.24 -8.11,-5.56 -0.86,-13.93 -2.55,-26.75 -7.52,-39.92 z"
       id="path341" />
    <path
       fill="#0d7771"
       d="m 1708.9,1626.03 c -0.23,10.9 -1.13,11.72 9.2,17.39 -0.06,17.56 2.02,25.74 8.03,42.15 -9.32,-9.33 -15.46,-17.97 -17.24,-31.6 -1.05,-8.02 -1.86,-20.2 0.01,-27.94 z"
       id="path342" />
    <path
       fill="#0d7771"
       d="m 1637.37,1639.54 c 7.47,8.38 -5.38,35.43 -12.24,43.05 l -0.74,-1.19 c 2.15,-10.91 2.76,-18.53 3.14,-29.56 5.32,-4.04 6.52,-6.74 9.84,-12.3 z"
       id="path343" />
    <path
       fill="#1bc1b5"
       d="m 1733.26,1571.25 c 2.39,4.34 3.45,6.55 6.71,10.43 -5.04,7.23 -8.54,13.36 -12.51,21.3 -3.55,-5.47 -4.43,-7.36 -6.97,-13.25 3.36,-6.91 7.81,-12.68 12.77,-18.48 z"
       id="path344" />
    <path
       fill="#8b58c3"
       d="m 1931.23,1120.6 c 2.84,2.32 4.7,4.16 8.11,5.56 l 2.3,-0.39 c 0.64,-2.27 0.66,-2.68 0.86,-5.05 0.98,9.45 0.63,23.83 0.43,33.58 -6.3,-3.8 -9.02,-7.68 -10.91,-14.61 -0.09,-6.33 -0.48,-12.75 -0.79,-19.09 z"
       id="path346" />
    <path
       fill="rgb(175,135,225)"
       d="m 1546.86,1656.37 c 1.2,5.51 3.06,13.07 3.88,18.49 -4.43,1.5 -8.54,3.06 -13.13,3.96 -0.68,-7.2 -2.04,-14.76 -3.2,-21.94 3.32,-0.89 8.78,-0.53 12.45,-0.51 z"
       id="path348"
       style="fill:#1bc1b5;fill-opacity:1" />
    <path
       fill="#5e368a"
       d="m 1930.89,1172.77 c 0.3,4.54 -0.42,4.76 1.74,7.97 2.63,0.9 5.28,1.73 7.95,2.49 -2.89,14.93 -8.06,23.82 -17.92,35.04 5.97,-15.39 6.29,-29.1 8.23,-45.5 z"
       id="path349" />
    <path
       fill="#8c8b8b"
       d="m 1661.5,864.351 c 7.92,1.012 17.38,-1.019 23.98,1.684 1.18,0.485 1.46,2.597 2,4.241 -7.44,1.265 -11.62,1.945 -18.42,5.795 -4.19,2.29 -5.5,2.787 -8.88,6.011 0.6,-5.647 0.92,-12.008 1.32,-17.731 z"
       id="path350" />
    <path
       fill="#0d7771"
       d="m 1733.26,1571.25 c 6.34,-5.58 8.78,-7.63 15.93,-11.96 l 4.93,7.43 c -5.4,5.28 -9.24,9.24 -14.15,14.96 -3.26,-3.88 -4.32,-6.09 -6.71,-10.43 z"
       id="path351" />
    <path
       fill="#c8c7c7"
       d="m 1936.71,1475.19 9.46,5.41 c -0.14,3.8 -0.16,9.77 -0.65,13.36 -4.22,0.82 -10.07,2.18 -14.22,2.27 2.6,-7.78 3.72,-12.95 5.41,-21.04 z"
       id="path352" />
    <path
       fill="#777676"
       d="m 1467.46,1775.3 c 3.68,1.43 8.27,0.67 12.34,0.43 -6.23,13.36 -11.39,17.49 -25.58,20.02 7.73,-7.99 9.37,-10.06 13.24,-20.45 z"
       id="path353" />
    <path
       fill="#0f8f88"
       d="m 1749.19,1559.29 c 8.8,-3.92 24.58,-10.49 34.32,-10.1 -0.79,1.15 -25.76,15.13 -29.39,17.53 z"
       id="path354" />
    <path
       fill="rgb(94,54,138)"
       d="m 1547.59,1718.11 c -4.64,13.55 -8.65,19.77 -19.12,29.8 2.87,-8.81 4.8,-15.76 6.99,-24.77 3.69,-1.72 8.3,-3.46 12.13,-5.03 z"
       id="path355"
       style="fill:#0d7771;fill-opacity:1" />
    <path
       fill="#edecec"
       d="m 1936.71,1475.19 c 0.9,-11.68 0.57,-17.41 0.19,-28.9 6.72,13.09 8.67,19.59 9.27,34.31 z"
       id="path356" />
    <path
       fill="#1bc1b5"
       d="m 1708.03,1405 17.76,-0.01 c -1.94,4.77 -2.38,6.3 -3.42,11.35 -3.22,-0.57 -7.47,-1.78 -10.29,-0.67 l -0.54,2.1 c -0.63,-1.09 -0.76,-3.08 -1,-4.5 -1.14,-2.78 -1.72,-5.36 -2.51,-8.27 z"
       id="path357" />
    <path
       fill="#c8c7c7"
       d="m 1902.92,1443.88 c 0.13,-3.94 -0.65,-2.49 1.3,-5.12 6.09,1.63 4.31,11.93 2.4,16.41 -1.55,3.01 -5.21,7.61 -7.35,10.49 1.99,-8.5 2.81,-12.95 3.65,-21.78 z"
       id="path358" />
    <path
       fill="#9d9c9c"
       d="m 1902.92,1443.88 c 0.07,4.69 -1.14,9.76 3.7,11.29 -1.55,3.01 -5.21,7.61 -7.35,10.49 1.99,-8.5 2.81,-12.95 3.65,-21.78 z"
       id="path359" />
    <path
       fill="#c8c7c7"
       d="m 1889.37,1496.13 c 0.67,-4.89 0.81,-9.85 3.37,-13.89 l 1.94,-1.01 c 3.43,4.24 2.45,11.08 0.9,15.99 -2.71,-0.04 -3.6,-0.41 -6.21,-1.09 z"
       id="path360" />
    <path
       fill="#8c8b8b"
       d="m 1895.58,1497.22 c -2.59,4.33 -4.46,6.04 -7.88,9.67 -0.77,-0.13 -1.55,-0.26 -2.33,-0.39 1.21,-4.02 2.32,-6.5 4,-10.37 2.61,0.68 3.5,1.05 6.21,1.09 z"
       id="path361" />
    <path
       fill="rgb(116,69,169)"
       d="m 1788.1054,1674.86 c 0.5973,-4.9298 1.7392,-16.5025 2.8714,-20.7628 2.4335,-7.4875 4.5856,-14.039 7.505,-21.3421 4.0394,-0.9037 8.8763,-1.844 12.8029,-2.919 -4.4184,12.4645 -6.2362,19.7324 -8.3734,32.799 l -1.1971,10.5286 c -4.676,0.1156 -8.9898,0.9624 -13.6088,1.6963 z"
       id="path325-6"
       style="display:block;fill:#0d7771;fill-opacity:1" />
    <path
       fill="rgb(139,88,195)"
       d="m 1788.1054,1674.86 c 0.5973,-4.9298 1.7392,-16.5025 2.8714,-20.7628 3.6726,0.4741 5.8533,0.7142 9.3908,1.6827 2.8774,2.9355 1.9922,1.8208 2.5437,6.8552 l -1.1971,10.5286 c -4.676,0.1156 -8.9898,0.9624 -13.6088,1.6963 z"
       id="path326-1"
       style="display:block;fill:#14aba1;fill-opacity:1" />
    <path
       fill="rgb(94,54,138)"
       d="m 1810.2091,1740.5917 c -11.4857,-12.8946 -16.6001,-20.736 -19.6545,-38.2184 l -1.733,-8.6342 c 3.6143,0.6371 8.9361,1.9096 12.3585,1.5904 l 1.1419,11.5056 c 1.1362,9.1007 5.237,24.6108 7.8871,33.7566 z"
       id="path335-1"
       style="display:block;fill:#0d7771;fill-opacity:1" />
    <path
       fill="rgb(175,135,225)"
       d="m 1788.8216,1693.7391 c -0.2566,-5.6333 -0.8191,-13.3984 -0.7162,-18.8791 4.619,-0.7339 8.9328,-1.5807 13.6088,-1.6963 -0.5402,7.2118 -0.4704,14.8929 -0.5341,22.1658 -3.4224,0.3192 -8.7441,-0.9537 -12.3585,-1.5904 z"
       id="path348-6"
       style="display:block;fill:#1bc1b5;fill-opacity:1" />
    <path
       fill="rgb(94,54,138)"
       d="m 1798.4818,1632.7551 c 6.852,-12.577 11.8506,-18.0343 23.8579,-26.1614 -4.3104,8.2022 -7.3813,14.7287 -11.055,23.2424 -3.9266,1.075 -8.7635,2.0153 -12.8029,2.919 z"
       id="path355-5"
       style="display:block;fill:#0d7771;fill-opacity:1" />
    <path
       style="fill:#000000;fill-opacity:1;stroke:#000000"
       d="m 1822.3397,1606.5937 -9.7011,7.3351 -4.9834,5.0004 -3.9417,5.1305 -2.787,4.3865 -2.4447,4.3089 -1.9096,4.9516 -1.7973,4.9947 -1.2802,3.7425 -2.5179,7.6533 v 0 l -0.9232,4.8735 -0.4374,3.1023 -0.8454,6.9708 -0.6654,5.8162 0.1999,8.889 0.5163,9.9901 1.733,8.6342 2.7632,11.5923 3.4887,8.4525 5.7978,9.6219 -3.5588,-2.0188 -0.7037,-0.3991 -5.0046,-8.6683 -1.6354,-6.1034 -2.2512,-8.4013 -3.3464,-12.4889 v -41.4881 l 2.0757,-7.7465 3.6998,-6.4083 3.4404,-5.9588 3.0973,-5.3647 4.2725,-7.4003 4.5124,-4.5124 3.5152,-3.5151 z"
       id="path414" />
    <path
       style="fill:#000000;fill-opacity:1;stroke:#000000"
       d="m 1793.0916,1726.6461 -2.183,-4.5521 -2.2284,-7.4568 -1.1143,-4.1141 -2.2284,-8.1424 -0.3429,-1.7999 -0.3428,-1.2857 -0.2571,-2.3141 v 0 l -0.242,-3.4863 -0.2723,-6.3704 -0.086,-5.4854 2.3095,-29.1668 v 41.4881 l 12.2376,35.6619 z"
       id="path415" />
  </g>
</svg>
