<?xml version="1.0" encoding="UTF-8" standalone="no"?>
<svg
   version="1.1"
   style="display:block"
   viewBox="0 204 723.81409 683.11597"
   width="723.81409"
   height="683.11597"
   preserveAspectRatio="xMidYMid meet"
   id="svg413"
   xmlns="http://www.w3.org/2000/svg"
   xmlns:svg="http://www.w3.org/2000/svg">
  <defs
     id="defs18">
    <linearGradient
       id="Gradient1"
       gradientUnits="userSpaceOnUse"
       x1="103.936"
       y1="1531.03"
       x2="99.481201"
       y2="1377.36">
      <stop
         class="stop0"
         offset="0"
         stop-opacity="1"
         stop-color="rgb(177,175,175)"
         id="stop1" />
      <stop
         class="stop1"
         offset="1"
         stop-opacity="1"
         stop-color="rgb(211,210,210)"
         id="stop2" />
    </linearGradient>
  </defs>
  <g
     id="g417"
     transform="translate(-39.797283,-836.95139)">
    <path
       fill="#000000"
       d="m 397.353,1041.16 c 4.755,-0.31 8.967,-0.35 13.711,0.41 11.868,1.95 22.472,8.54 29.474,18.32 7.414,10.34 10.287,23.26 7.956,35.76 -2.867,15.52 -11.249,24.05 -23.491,32.43 0.066,24 1.229,48.72 2.064,72.76 22.178,0.07 47.608,-0.16 69.383,4.63 5.981,1.32 14.716,9.15 20.439,9.71 41.17,4.04 91.749,3.79 124.363,32.89 28.829,25.72 29.65,73.5 31.162,109.82 30.222,-0.01 41.091,3.93 64.406,23.82 19.877,16.96 25.997,44.09 26.222,69.44 0.275,31.03 2.997,85.08 -6.491,113.18 -2.763,8.39 -7.367,16.06 -13.476,22.44 -21.841,23.18 -42.848,26.88 -72.55,27.86 -2.451,27.94 -7.567,59.4 -28.309,79.93 -34.735,34.38 -99.778,29.25 -145.569,29.22 l -88.897,-0.12 -96.56,0.12 c -43.168,0.04 -106.95,3.51 -143.411,-23.52 -26.523,-19.65 -32.042,-54.51 -36.115,-85.34 -29.407,-1.45 -40.6647,-4.62 -63.8099,-24.46 -31.8813,-27.32 -27.823,-71.53 -27.9521,-109.77 -0.1072,-31.73 -0.3441,-67.5 22.6424,-92.09 22.1123,-23.66 36.5718,-28.96 68.1176,-30.34 1.974,-91.05 29.373,-134.52 124.586,-139.71 10.627,-0.58 22.545,-1.04 33.117,-2.36 6.149,-0.77 17.001,-8.97 23.779,-10.1 21.606,-5.73 44.572,-5.39 66.808,-5.92 0.26,-24.01 0.928,-48.02 2.003,-72.02 -11.115,-7.83 -18.767,-16.29 -21.76,-30.18 -2.651,-12.56 -0.149,-25.66 6.945,-36.37 7.749,-11.66 17.857,-17.6 31.213,-20.44 z"
       id="path362"
       style="display:block" />
    <path
       fill="#59e0d2"
       d="m 415.371,1055.6 c 5.097,-0.27 9.526,3.47 10.093,8.55 0.566,5.07 -2.927,9.71 -7.961,10.56 -3.518,0.59 -7.078,-0.81 -9.248,-3.64 -2.17,-2.83 -2.595,-6.64 -1.103,-9.88 1.492,-3.24 4.655,-5.39 8.219,-5.59 z"
       id="path400"
       style="display:block" />
    <path
       fill="#1bc1b5"
       d="m 373.801,1061.78 c 8.187,-8.7 15.53,-13.81 28.217,-14.43 10.022,-0.53 19.833,3.01 27.215,9.81 6.751,6.14 9.871,12.5 12.572,20.94 1.44,13.78 1.183,20.82 -6.685,32.99 -2.969,3.43 -5.171,5.83 -8.844,8.57 -8.604,6.36 -19.447,8.9 -29.979,7.01 -12.425,-2.12 -19.95,-8.69 -26.915,-18.51 -8.475,-17.85 -6.252,-30.7 4.419,-46.38 z"
       id="path397"
       style="display:block" />
    <path
       fill="#c8c7c7"
       d="m 518.028,1222.05 c 38.354,1.47 96.548,4.76 124.002,34.17 23.688,25.38 26.206,94.44 23.914,128.58 1.254,65.42 -1.87,135.1 -0.708,200.12 2.361,132.16 -55.241,133.04 -165.003,133.1 l -86.287,0.02 -106.056,-0.01 c -76.092,-0.03 -159.46,8.35 -168.395,-91.13 -3.728,-41.51 -2.394,-81.18 -2.62,-122.7 l -0.49,-102.37 c 0.015,-29.3 -0.973,-70.78 6.538,-98.38 2.005,-16.6 13.3,-36.58 25.201,-48.32 29.367,-28.98 80.488,-31.36 119.726,-31.05 l -3.491,10.67 c -1.081,27.1 -9.295,73.61 8.262,97.23 7.808,10.5 40.444,13.71 53.291,13.98 48.672,1.04 119.08,7.95 164.815,-10.67 14.866,-22.24 13.046,-48.47 12.413,-74.28 l -0.624,-8.26 c -0.976,-9.33 -2.655,-21.6 -4.488,-30.7 z"
       id="path363" />
    <path
       fill="#8c8b8b"
       d="m 665.944,1384.8 c 1.254,65.42 -1.87,135.1 -0.708,200.12 2.361,132.16 -55.241,133.04 -165.003,133.1 l -86.287,0.02 -106.056,-0.01 c -76.092,-0.03 -159.46,8.35 -168.395,-91.13 -3.728,-41.51 -2.394,-81.18 -2.62,-122.7 l -0.49,-102.37 c 0.015,-29.3 -0.973,-70.78 6.538,-98.38 2.432,13.29 -0.087,51.07 -0.185,67.26 -0.132,48.74 0.219,97.47 1.053,146.19 0.8,35.01 0.758,70.61 4.938,105.36 0.79,6.56 2.948,15.97 1.909,22.3 7.51,2.65 11.273,10.84 16.054,18 37.473,36.38 100.733,30.35 149.502,30.34 l 101.782,-0.03 78.247,0.14 c 41.168,0.31 93.398,4.22 128.562,-21.03 6.235,-4.48 18.447,-16.48 20.826,-23.66 14.141,-25.84 12.042,-74.79 12.688,-104.93 0.758,-45.05 1.281,-90.09 1.571,-135.15 2.688,-7.35 4.396,-15.78 6.074,-23.44 z"
       id="path364" />
    <path
       fill="#9d9c9c"
       d="m 150.638,1644.56 c 7.51,2.65 11.273,10.84 16.054,18 -10.096,-2.07 -13.283,-8.65 -16.054,-18 z"
       id="path365" />
    <path
       fill="#c8c7c7"
       d="m 518.028,1222.05 c 38.354,1.47 96.548,4.76 124.002,34.17 23.688,25.38 26.206,94.44 23.914,128.58 -1.678,7.66 -3.386,16.09 -6.074,23.44 -1.354,-5.09 -1.12,-13.25 -1.601,-18.73 -1.833,-20.88 -0.788,-43.85 -3.645,-64.44 -3.997,-28.8 -24.727,-57.52 -54.16,-63.91 -16.636,-3.61 -60.555,-13.82 -76.673,-10.88 l -1.275,2.47 c -0.976,-9.33 -2.655,-21.6 -4.488,-30.7 z"
       id="path366" />
    <path
       fill="#edecec"
       d="m 522.516,1252.75 1.275,-2.47 c 16.118,-2.94 60.037,7.27 76.673,10.88 29.433,6.39 50.163,35.11 54.16,63.91 2.857,20.59 1.812,43.56 3.645,64.44 0.481,5.48 0.247,13.64 1.601,18.73 -0.29,45.06 -0.813,90.1 -1.571,135.15 -0.646,30.14 1.453,79.09 -12.688,104.93 -1.214,-2.12 -1.852,-3.69 -1.544,-6.25 7.463,-64.43 7.555,-125.84 6.909,-191.08 -0.441,-44.51 4.266,-124.98 -25.973,-160.42 -17.797,-20.86 -74.078,-28.97 -101.863,-29.56 z"
       id="path367" />
    <path
       fill="#8c8b8b"
       d="m 284.359,1234.75 c -1.081,27.1 -9.295,73.61 8.262,97.23 7.808,10.5 40.444,13.71 53.291,13.98 48.672,1.04 119.08,7.95 164.815,-10.67 -9.472,16.78 -26.543,23.74 -45.965,24.59 -50.182,2.19 -124.851,8.82 -171.788,-7.95 -33.973,-12.14 -22.234,-91.99 -8.615,-117.18 z"
       id="path368" />
    <path
       fill="#000000"
       d="m 261.235,1379.41 c 15.493,-1.66 35.888,-0.42 51.837,-0.36 l 89.064,0.04 91.686,-0.12 c 23.873,-0.04 46.909,-0.83 70.697,2.14 36.133,4.52 43.84,19.75 45.545,53.89 1.605,36.85 2.179,73.74 1.723,110.63 -0.119,23.7 -0.009,46.88 -3.093,70.44 -4.624,35.31 -38.833,36.79 -67.444,38.02 -51.564,2.05 -104.074,-0.48 -155.75,0.08 -48.504,0.52 -96.901,1.7 -145.341,-2.22 -30.363,-1.56 -48.06,-18.17 -48.799,-49.87 -1.343,-57.67 -2.989,-119.42 0.748,-177.01 2.585,-39.84 37.239,-43.11 69.127,-45.66 z"
       id="path369" />
    <path
       fill="#2b2a2a"
       d="m 228.432,1642.92 c -21.269,-4.48 -28.71,-20.1 -30.355,-40.4 -2.452,-30.25 -1.113,-61.2 -1.538,-91.56 0.308,-30.77 -0.338,-62.21 3.817,-92.73 1.21,-8.88 9.543,-20.71 17.498,-24.42 22.325,-10.41 55.528,-8.04 79.702,-8.02 l 76.195,0.05 c 34.082,-0.24 68.166,-0.3 102.249,-0.18 20.948,-0.05 42.408,-0.2 62.886,0.32 18.069,0.46 51.2,-0.42 59.473,19.51 6.208,14.95 6.806,43.6 6.724,60.01 -0.221,44.59 1.807,89 -0.462,133.51 -1.462,26.27 -11.285,45.07 -40.78,45.1 -13.786,2.57 -42.005,2.3 -56.471,2.32 l -77.854,0.03 c -43.378,0.19 -86.758,0.12 -130.136,-0.2 -19.448,-0.21 -53.105,0.3 -70.948,-3.34 z"
       id="path370" />
    <path
       fill="#1b1b1b"
       d="m 228.432,1642.92 c -21.269,-4.48 -28.71,-20.1 -30.355,-40.4 -2.452,-30.25 -1.113,-61.2 -1.538,-91.56 0.308,-30.77 -0.338,-62.21 3.817,-92.73 1.21,-8.88 9.543,-20.71 17.498,-24.42 22.325,-10.41 55.528,-8.04 79.702,-8.02 l 76.195,0.05 c 34.082,-0.24 68.166,-0.3 102.249,-0.18 20.948,-0.05 42.408,-0.2 62.886,0.32 18.069,0.46 51.2,-0.42 59.473,19.51 6.208,14.95 6.806,43.6 6.724,60.01 -0.221,44.59 1.807,89 -0.462,133.51 -1.462,26.27 -11.285,45.07 -40.78,45.1 28.804,-13.72 28.608,-30.08 29.72,-58.69 1.323,-29.71 1.819,-59.46 1.487,-89.2 -0.107,-21.14 0.716,-71.12 -12.877,-84.17 -17.492,-16.79 -93.841,-13.1 -116.828,-13.12 l -137.918,0.04 c -21.415,0.08 -94.059,-1.96 -108.076,13.19 -17.916,19.36 -14.497,122.04 -13.387,151.01 1.052,27.47 0.992,59.85 22.47,79.75 z"
       id="path371" />
    <path
       fill="#000000"
       d="m 279.027,1463.53 c 39.676,-47.77 71.677,-9.15 68.979,37.95 -1.632,28.49 5.394,65.55 -16.435,88.26 -0.521,0.54 -1.048,1.07 -1.583,1.6 -0.798,1.3 -0.738,1.27 -1.847,2.7 -4.831,6.39 -12.032,10.56 -19.975,11.57 -9.246,1.06 -18.517,-1.78 -25.577,-7.84 -16.292,-14.2 -18.021,-43.35 -17.652,-63.46 0.376,-20.49 -0.187,-54.33 14.09,-70.78 z"
       id="path372" />
    <path
       fill="#1b1b1b"
       d="m 329.988,1591.34 c -0.798,1.3 -0.738,1.27 -1.847,2.7 -4.831,6.39 -12.032,10.56 -19.975,11.57 -9.246,1.06 -18.517,-1.78 -25.577,-7.84 -16.292,-14.2 -18.021,-43.35 -17.652,-63.46 0.376,-20.49 -0.187,-54.33 14.09,-70.78 -4.795,37.93 -21.156,153.72 50.961,127.81 z"
       id="path373" />
    <path
       fill="#26dacb"
       d="m 305.981,1449.51 c 23.555,-2.53 32.5,13.12 34.369,34.55 0.485,5.1 0.746,10.22 0.783,15.34 0.738,20.33 0.673,49.84 -3.766,69.47 -2.518,6.57 -7.925,15.63 -14.296,17.92 -44.168,15.7 -42.79,-51.94 -42.431,-78.09 0.294,-21.44 1.844,-50.35 25.341,-59.19 z"
       id="path374" />
    <path
       fill="#14aba1"
       d="m 337.367,1568.87 c -2.518,6.57 -7.925,15.63 -14.296,17.92 -44.168,15.7 -42.79,-51.94 -42.431,-78.09 0.294,-21.44 1.844,-50.35 25.341,-59.19 l -4.623,7.39 c -14.817,26.77 -11.976,71.59 -6.804,101.03 2.104,11.99 12.823,24.3 25.575,18.49 4.979,-2.27 12.296,-6.37 17.238,-7.55 z"
       id="path375" />
    <path
       fill="#59e0d2"
       d="m 305.981,1449.51 c 23.555,-2.53 32.5,13.12 34.369,34.55 0.485,5.1 0.746,10.22 0.783,15.34 -11.592,-2.83 -5.895,-22.34 -20.067,-33.8 l -1.171,-0.3 c -6.857,-3.98 -14.008,-3.6 -18.537,-8.4 z"
       id="path376" />
    <path
       fill="#b3faf6"
       d="m 319.895,1465.3 c 0.358,-4.62 -0.374,-3.81 1.938,-7.07 3.581,-0.86 1.842,-0.99 5.367,0.69 1.819,2.95 1.504,1.39 0.975,4.82 -3.136,2.49 -2.184,1.7 -7.109,1.86 z"
       id="path377" />
    <path
       fill="#000000"
       d="m 461.545,1463.23 c 8.267,-9.55 16.525,-20.37 30.246,-20.96 32.439,-1.37 38.69,30 38.263,55.58 -0.306,18.3 1.125,36.19 -1.731,54.48 -2.862,18.32 -4.663,27.12 -18.576,39.91 -3.446,5.75 -7.179,8.14 -13.357,10.68 -33.215,13.63 -47.172,-21.88 -47.418,-49.57 -0.208,-23.36 -4.107,-71.59 12.573,-90.12 z"
       id="path378" />
    <path
       fill="#1b1b1b"
       d="m 461.545,1463.23 c -5.07,35.24 -21.733,154.67 48.202,129.01 -3.446,5.75 -7.179,8.14 -13.357,10.68 -33.215,13.63 -47.172,-21.88 -47.418,-49.57 -0.208,-23.36 -4.107,-71.59 12.573,-90.12 z"
       id="path379" />
    <path
       fill="#26dacb"
       d="m 482.037,1452.02 c 30.189,-11.35 39.13,12.57 40.944,37.94 0.296,21.5 1.491,57.58 -4.27,77.86 -11.744,37.97 -54.094,21.85 -54.367,-15.9 -0.198,-27.27 -8.724,-82.37 17.693,-99.9 z"
       id="path380" />
    <path
       fill="#14aba1"
       d="m 482.037,1452.02 c -0.473,2.28 -0.931,4.93 -1.592,7.12 -11.684,23.66 -8.9,76.73 -2.283,102.82 2.849,11.24 12.529,19.68 24.223,15.08 6.092,-2.39 10.719,-6.68 16.326,-9.22 -11.744,37.97 -54.094,21.85 -54.367,-15.9 -0.198,-27.27 -8.724,-82.37 17.693,-99.9 z"
       id="path381" />
    <path
       fill="#59e0d2"
       d="m 482.037,1452.02 c 30.189,-11.35 39.13,12.57 40.944,37.94 -6.492,-1.71 -10.643,-13.47 -14.335,-19.27 -7.523,-11.82 -15.528,-8.18 -26.693,-11.13 l -1.508,-0.42 c 0.661,-2.19 1.119,-4.84 1.592,-7.12 z"
       id="path382" />
    <path
       fill="#26dacb"
       d="m 334.172,1208.55 c 12.593,-0.85 32.605,-2.17 44.901,-1.89 -0.121,8.79 -0.75,13.75 2.504,21.98 10.191,5.03 27.918,11.44 37.885,2.92 7.131,-6.09 7.471,-16.05 8.222,-24.74 18.063,0.11 58.605,1.48 74.188,7.34 7.581,4.43 10.952,9.43 12.943,18.13 4.904,21.43 3.413,58 -1.395,79.69 l -2.265,9.26 c -2.233,4.95 -4.642,8.82 -9.319,11.79 -24.313,15.47 -151.374,11.88 -183.24,5.28 -8.991,-1.87 -19.702,-5.2 -24.719,-13.43 -11.13,-18.26 -7.915,-63.39 -3.037,-84.2 3.073,-27.67 19.596,-28.94 43.332,-32.13 z"
       id="path383" />
    <path
       fill="#26dacb"
       d="m 334.172,1208.55 c 12.593,-0.85 32.605,-2.17 44.901,-1.89 -0.121,8.79 -0.75,13.75 2.504,21.98 10.191,5.03 27.918,11.44 37.885,2.92 7.131,-6.09 7.471,-16.05 8.222,-24.74 18.063,0.11 58.605,1.48 74.188,7.34 -5.134,12.15 17.042,29.97 -18.743,30.03 -26.023,0.05 -52.135,-2.36 -78.17,-2.36 -36.115,-0.93 -74.652,8.82 -109.791,2.13 -1.219,-0.23 -3.173,-1.38 -4.139,-2.09 l -0.189,-1.19 c 3.073,-27.67 19.596,-28.94 43.332,-32.13 z"
       id="path384" />
    <path
       fill="#14aba1"
       d="m 334.172,1208.55 c 12.593,-0.85 32.605,-2.17 44.901,-1.89 -0.121,8.79 -0.75,13.75 2.504,21.98 -11.524,-3.28 -31.774,-3.87 -38.546,-14.87 -3.268,-5.3 -3.274,-4.46 -8.859,-5.22 z"
       id="path385" />
    <path
       fill="#14aba1"
       d="m 290.84,1240.68 0.189,1.19 c -0.123,6.25 0.982,12.55 1.82,18.77 1.265,11.98 2.984,51.87 11.267,58.71 21.219,17.52 144.928,11.99 175.141,8.04 10.738,-1.41 21.351,-3.73 31.898,-6.15 -2.233,4.95 -4.642,8.82 -9.319,11.79 -24.313,15.47 -151.374,11.88 -183.24,5.28 -8.991,-1.87 -19.702,-5.2 -24.719,-13.43 -11.13,-18.26 -7.915,-63.39 -3.037,-84.2 z"
       id="path386" />
    <path
       fill="#59e0d2"
       d="m 501.872,1214.16 c 7.581,4.43 10.952,9.43 12.943,18.13 4.904,21.43 3.413,58 -1.395,79.69 -15.643,-10.7 -2.469,-33.07 -9.426,-47.74 -2.007,-4.24 -4.675,-6.02 -9.016,-7.51 -24.936,-8.54 -143.831,-6.33 -175.774,-2.58 -9.055,1.06 -18.109,2.44 -26.355,6.49 -0.838,-6.22 -1.943,-12.52 -1.82,-18.77 0.966,0.71 2.92,1.86 4.139,2.09 35.139,6.69 73.676,-3.06 109.791,-2.13 26.035,0 52.147,2.41 78.17,2.36 35.785,-0.06 13.609,-17.88 18.743,-30.03 z"
       id="path387" />
    <path
       fill="#c8c7c7"
       d="m 676.269,1364.32 c 44.294,1.73 49.547,10.76 51.604,55.05 0.46,9.9 1.761,20.29 1.256,30.44 2.066,20.61 0.169,93.24 -2.751,115.06 -0.686,13.23 -1.044,25.1 -11.109,34.97 -13.268,8.69 -25.342,8.22 -40.742,8.51 -5.674,-7.05 -4.31,-43.47 -4.328,-54.76 l 0.286,-79.95 -0.267,-60.56 c -0.091,-12.14 -2.981,-41.32 6.051,-48.76 z"
       id="path388" />
    <path
       fill="#9d9c9c"
       d="m 681.977,1526.58 c 12.45,10.52 20.916,7.77 34.049,-0.14 -1.089,18.48 -2.145,34.56 -1.811,53.05 3.975,-4.68 8.466,-9.78 12.163,-14.62 -0.686,13.23 -1.044,25.1 -11.109,34.97 -13.268,8.69 -25.342,8.22 -40.742,8.51 2.33,-5.57 3.253,-14.35 4.153,-20.58 2.522,-19.96 0.903,-40.66 3.297,-61.19 z"
       id="path389" />
    <path
       fill="#8c8b8b"
       d="m 678.68,1587.77 c 12.018,0.21 20.91,0.5 32.953,-1.07 0.591,5 0.429,9.44 3.636,13.14 -13.268,8.69 -25.342,8.22 -40.742,8.51 2.33,-5.57 3.253,-14.35 4.153,-20.58 z"
       id="path390" />
    <path
       fill="#777676"
       d="m 674.527,1608.35 c -5.674,-7.05 -4.31,-43.47 -4.328,-54.76 l 0.286,-79.95 -0.267,-60.56 c -0.091,-12.14 -2.981,-41.32 6.051,-48.76 l 1.687,9.57 c 2.927,45.94 5.074,91.06 3.997,137.11 -0.116,4.92 -0.226,10.69 0.024,15.58 -2.394,20.53 -0.775,41.23 -3.297,61.19 -0.9,6.23 -1.823,15.01 -4.153,20.58 z"
       id="path391" />
    <path
       fill="#edecec"
       d="m 676.269,1364.32 c 44.294,1.73 49.547,10.76 51.604,55.05 0.46,9.9 1.761,20.29 1.256,30.44 -1.274,12.43 0.413,27.04 -0.907,39.05 -0.985,8.97 -7.881,26.1 -11.303,35.14 1.556,-33.29 4.556,-107.99 -10.406,-141.37 -2.856,-6.37 -20.902,-7.68 -28.557,-8.74 z"
       id="path392" />
    <path
       fill="url(#Gradient1)"
       d="m 120.057,1364.6 c 3.704,-0.51 5.629,-1.22 8.915,0.47 4.779,5.35 3.245,38.16 3.244,46.49 l -0.046,66.31 -0.103,80.84 c -0.014,8.14 0.812,42.66 -1.457,47.65 -1.966,1.64 -1.171,1.38 -3.431,2.04 -25.38,-1.23 -42.9741,-1.67 -48.7296,-31.68 -5.9619,-31.09 -5.6961,-63.27 -5.3348,-94.82 -0.6466,-25.85 -1.8813,-82.84 13.3248,-104.47 6.9161,-9.83 22.4476,-11.54 33.6176,-12.83 z"
       id="path393"
       style="fill:url(#Gradient1)" />
    <path
       fill="#9d9c9c"
       d="m 120.057,1364.6 c 3.704,-0.51 5.629,-1.22 8.915,0.47 4.779,5.35 3.245,38.16 3.244,46.49 l -0.046,66.31 -0.103,80.84 c -0.014,8.14 0.812,42.66 -1.457,47.65 -1.966,1.64 -1.171,1.38 -3.431,2.04 -25.38,-1.23 -42.9741,-1.67 -48.7296,-31.68 -5.9619,-31.09 -5.6961,-63.27 -5.3348,-94.82 1.2836,11.75 3.3542,21.48 6.471,32.91 1.2174,6.43 8.6714,15.12 15.2917,16.93 9.8137,2.68 14.5167,0.82 23.0177,-3.37 -0.084,-17.36 -1.123,-53.89 0.973,-69.8 0.022,-24.85 1.326,-59.08 5.567,-83.34 0.882,-4.83 2.352,-6.67 0.56,-9.85 z"
       id="path394" />
    <path
       fill="#777676"
       d="m 120.057,1364.6 c 3.704,-0.51 5.629,-1.22 8.915,0.47 4.779,5.35 3.245,38.16 3.244,46.49 l -0.046,66.31 -0.103,80.84 c -0.014,8.14 0.812,42.66 -1.457,47.65 -1.966,1.64 -1.171,1.38 -3.431,2.04 -0.494,-5.64 -3.76,-10.3 -4.428,-14.94 -6.207,-43.11 -2.916,-91.96 -3.883,-134.89 0.022,-24.85 1.326,-59.08 5.567,-83.34 0.882,-4.83 2.352,-6.67 0.56,-9.85 z"
       id="path395" />
    <path
       fill="#edecec"
       d="m 120.057,1364.6 4.938,0.78 c 1.792,3.18 0.322,5.02 -0.56,9.85 -7.026,0.25 -24.4721,0.56 -28.4955,6.58 -17.6652,26.41 -14.0499,79.12 -15.2337,110.74 -0.2262,6.04 0.8096,18.96 -1.1202,22.26 -3.1168,-11.43 -5.1874,-21.16 -6.471,-32.91 -0.6466,-25.85 -1.8813,-82.84 13.3248,-104.47 6.9161,-9.83 22.4476,-11.54 33.6176,-12.83 z"
       id="path396" />
    <path
       fill="#14aba1"
       d="m 373.801,1061.78 c 3.027,27.85 14.602,50.88 47.875,37.81 13.755,-5.4 12.062,-12.68 20.129,-21.49 1.44,13.78 1.183,20.82 -6.685,32.99 -2.969,3.43 -5.171,5.83 -8.844,8.57 -8.604,6.36 -19.447,8.9 -29.979,7.01 -12.425,-2.12 -19.95,-8.69 -26.915,-18.51 -8.475,-17.85 -6.252,-30.7 4.419,-46.38 z"
       id="path398" />
    <path
       fill="#0f8f88"
       d="m 369.382,1108.16 c 11.267,-1.01 19.308,0.73 30.147,1.02 13.204,0.35 22.411,0.17 35.591,1.91 -2.969,3.43 -5.171,5.83 -8.844,8.57 -8.604,6.36 -19.447,8.9 -29.979,7.01 -12.425,-2.12 -19.95,-8.69 -26.915,-18.51 z"
       id="path399" />
    <path
       fill="#c8c7c7"
       d="m 417.298,1142.26 1.753,0.76 1.007,5.24 c 0.456,17.12 5.306,66.77 -4.075,78.94 l -4.452,1.38 -1.048,0.1 c -5.646,0.53 -17.303,1.32 -20.956,-3.1 -8.207,-9.92 -4.679,-59.05 -3.565,-71.29 l 7.137,-4.11 c 6.299,-6.27 15.504,-8.66 24.199,-7.92 z"
       id="path401" />
    <path
       fill="#edecec"
       d="m 417.298,1142.26 1.753,0.76 1.007,5.24 c 0.456,17.12 5.306,66.77 -4.075,78.94 -7.8,-10.72 -7.798,-68.11 -7.284,-82.57 1.519,-1.92 5.514,-1.89 8.599,-2.37 z"
       id="path402" />
    <path
       fill="#9d9c9c"
       d="m 385.962,1154.29 7.137,-4.11 c -0.705,13.04 -3.698,60.66 3.406,72.79 1.393,2.38 11.531,4.73 15.026,5.61 l -1.048,0.1 c -5.646,0.53 -17.303,1.32 -20.956,-3.1 -8.207,-9.92 -4.679,-59.05 -3.565,-71.29 z"
       id="path403" />
    <path
       fill="#af87e1"
       d="m 732.75,1388.31 c 13.233,11.28 17.731,19.19 20.857,36.52 4.277,23.7 3.441,47.66 3.162,71.61 l -0.008,8.62 c -3.695,3.56 -11.12,9.54 -16.554,8.58 -6.309,-5.39 -0.268,-20.51 -3.831,-26.39 l -0.433,-35.87 -0.255,-11.23 c -0.675,-17.29 -1.654,-34.57 -2.938,-51.84 z"
       id="path404" />
    <path
       fill="#8b58c3"
       d="m 735.943,1451.38 c 3.863,7.84 9.412,23.81 13.186,29.52 0.954,5.28 2.908,18.13 4.811,22.4 l 1.21,0.4 c 1.223,-2.79 1.243,-4.29 1.619,-7.26 l -0.008,8.62 c -3.695,3.56 -11.12,9.54 -16.554,8.58 -6.309,-5.39 -0.268,-20.51 -3.831,-26.39 z"
       id="path405" />
    <path
       fill="#9465cc"
       d="m 735.688,1440.15 c 13.588,12.77 12.34,22.92 13.441,40.75 -3.774,-5.71 -9.323,-21.68 -13.186,-29.52 z"
       id="path406" />
    <path
       fill="#8b58c3"
       d="m 48.8688,1439.52 c 1.0411,-20.44 6.7795,-35.54 22.4882,-49.18 -1.6134,16.52 -3.7396,35.33 -4.3858,51.84 l -0.912,32.55 -0.3364,1.36 c -3.0311,12.59 -0.5953,33.09 -17.8169,29.07 -0.8014,-10.92 -0.6202,-54.91 0.9629,-65.64 z"
       id="path407" />
    <path
       fill="#af87e1"
       d="m 48.8688,1439.52 c 1.0411,-20.44 6.7795,-35.54 22.4882,-49.18 -1.6134,16.52 -3.7396,35.33 -4.3858,51.84 -7.6762,4.52 -12.3464,9.74 -18.6318,15.9 0.5873,-7.3 0.8809,-11.29 0.5294,-18.56 z"
       id="path408" />
    <path
       fill="#7445a9"
       d="m 66.0592,1474.73 0.0974,4.82 c 0.9463,9.5 1.0964,20.4 1.0243,30.06 -0.1882,25.22 2.0326,48.62 5.3517,73.52 -6.8195,-5 -9.9571,-6.99 -14.3282,-14.48 -10.6933,-24.37 -10.1028,-37.02 -10.2985,-63.49 17.2216,4.02 14.7858,-16.48 17.8169,-29.07 z"
       id="path409" />
    <path
       fill="#5e368a"
       d="m 66.1566,1479.55 c 0.9463,9.5 1.0964,20.4 1.0243,30.06 -0.1882,25.22 2.0326,48.62 5.3517,73.52 -6.8195,-5 -9.9571,-6.99 -14.3282,-14.48 1.7304,-1.99 4.1378,-5.42 4.1695,-8.08 0.3166,-26.63 2.4575,-54.64 3.7827,-81.02 z"
       id="path410" />
    <path
       fill="#7445a9"
       d="m 736.376,1487.25 c 3.563,5.88 -2.478,21 3.831,26.39 5.434,0.96 12.859,-5.02 16.554,-8.58 -0.385,18.52 -0.93,32.83 -5.012,51.19 -4.274,16.34 -7.73,20.52 -19.918,31.4 0.881,-11.09 1.538,-24.03 3.089,-34.89 1.128,-21.81 1.614,-43.66 1.456,-65.51 z"
       id="path411" />
    <path
       fill="#5e368a"
       d="m 734.92,1552.76 c 0.095,5.75 -0.674,8.24 2.764,12.18 5.596,0.67 10.082,-4.89 14.065,-8.69 -4.274,16.34 -7.73,20.52 -19.918,31.4 0.881,-11.09 1.538,-24.03 3.089,-34.89 z"
       id="path412" />
    <path
       fill="#8c8b8b"
       d="m 387.161,1130.91 c 11.337,2.05 20.783,1.69 32.031,-0.07 0.592,6.36 0.78,11.04 0.866,17.42 l -1.007,-5.24 -1.753,-0.76 c -8.695,-0.74 -17.9,1.65 -24.199,7.92 l -7.137,4.11 c 0.1,-7.33 0.794,-15.97 1.199,-23.38 z"
       id="path413" />
  </g>
</svg>
